<mxfile host="app.diagrams.net" agent="Mozilla/5.0 (Windows NT 10.0; Win64; x64; rv:133.0) Gecko/20100101 Firefox/133.0" version="25.0.3">
  <diagram id="38b20595-45e3-9b7f-d5ca-b57f44c5b66d" name="Page-1">
    <mxGraphModel dx="1434" dy="894" grid="1" gridSize="10" guides="1" tooltips="1" connect="1" arrows="1" fold="1" page="1" pageScale="1" pageWidth="850" pageHeight="1100" math="0" shadow="0">
      <root>
        <mxCell id="0" />
        <mxCell id="5fdbbbe72816c942-1752" value="Toggles" style="locked=1;" parent="0" />
        <UserObject label="Walls and doors" link="data:action/json,{&quot;actions&quot;:[{&quot;toggle&quot;: {&quot;cells&quot;: [&quot;5fdbbbe72816c942-1054&quot;]}}]}" id="5fdbbbe72816c942-1753">
          <mxCell style="rounded=1;whiteSpace=wrap;html=1;strokeWidth=3;fillColor=#f5f5f5;fontColor=#000000;strokeColor=#666666;fontSize=28;verticalAlign=middle;" parent="5fdbbbe72816c942-1752" vertex="1">
            <mxGeometry x="413" y="1485" width="227" height="60" as="geometry" />
          </mxCell>
        </UserObject>
        <UserObject label="Furniture" link="data:action/json,{&quot;actions&quot;:[{&quot;toggle&quot;: {&quot;cells&quot;: [&quot;5fdbbbe72816c942-1&quot;]}}]}" id="5fdbbbe72816c942-1754">
          <mxCell style="rounded=1;whiteSpace=wrap;html=1;strokeWidth=3;fillColor=#f5f5f5;fontColor=#000000;strokeColor=#666666;fontSize=28;verticalAlign=middle;" parent="5fdbbbe72816c942-1752" vertex="1">
            <mxGeometry x="413.5" y="1565" width="227" height="60" as="geometry" />
          </mxCell>
        </UserObject>
        <UserObject label="Lights" link="data:action/json,{&quot;actions&quot;:[{&quot;toggle&quot;: {&quot;cells&quot;: [&quot;1&quot;]}}]}" id="5fdbbbe72816c942-1755">
          <mxCell style="rounded=1;whiteSpace=wrap;html=1;strokeWidth=3;fillColor=#f5f5f5;fontColor=#000000;strokeColor=#666666;fontSize=28;verticalAlign=middle;" parent="5fdbbbe72816c942-1752" vertex="1">
            <mxGeometry x="731" y="1485" width="227" height="60" as="geometry" />
          </mxCell>
        </UserObject>
        <UserObject label="Plumbing" link="data:action/json,{&quot;actions&quot;:[{&quot;toggle&quot;: {&quot;cells&quot;: [&quot;5fdbbbe72816c942-1278&quot;]}}]}" id="5fdbbbe72816c942-1756">
          <mxCell style="rounded=1;whiteSpace=wrap;html=1;strokeWidth=3;fillColor=#f5f5f5;fontColor=#000000;strokeColor=#666666;fontSize=28;verticalAlign=middle;" parent="5fdbbbe72816c942-1752" vertex="1">
            <mxGeometry x="732.5" y="1565" width="227" height="60" as="geometry" />
          </mxCell>
        </UserObject>
        <UserObject label="Fire safety" link="data:action/json,{&quot;actions&quot;:[{&quot;toggle&quot;: {&quot;cells&quot;: [&quot;5fdbbbe72816c942-1606&quot;]}}]}" id="5fdbbbe72816c942-1757">
          <mxCell style="rounded=1;whiteSpace=wrap;html=1;strokeWidth=3;fillColor=#f5f5f5;fontColor=#000000;strokeColor=#666666;fontSize=28;verticalAlign=middle;" parent="5fdbbbe72816c942-1752" vertex="1">
            <mxGeometry x="1053" y="1485" width="227" height="60" as="geometry" />
          </mxCell>
        </UserObject>
        <mxCell id="5fdbbbe72816c942-1054" value="Walls and doors" style="locked=1;" parent="0" />
        <mxCell id="5fdbbbe72816c942-1055" value="" style="verticalLabelPosition=bottom;html=1;verticalAlign=top;align=center;strokeWidth=1;shape=mxgraph.floorplan.doorRight;rounded=0;shadow=0;comic=0;fillColor=#FFFFFF;fontFamily=Verdana;fontSize=12;" parent="5fdbbbe72816c942-1054" vertex="1">
          <mxGeometry x="693" y="1250" width="80" height="85" as="geometry" />
        </mxCell>
        <mxCell id="5fdbbbe72816c942-1056" value="" style="verticalLabelPosition=bottom;html=1;verticalAlign=top;align=center;strokeWidth=1;shape=mxgraph.floorplan.doorLeft;rounded=0;shadow=0;comic=0;fillColor=#FFFFFF;fontFamily=Verdana;fontSize=12;" parent="5fdbbbe72816c942-1054" vertex="1">
          <mxGeometry x="796" y="1251" width="80" height="85" as="geometry" />
        </mxCell>
        <mxCell id="5fdbbbe72816c942-1057" value="" style="verticalLabelPosition=bottom;html=1;verticalAlign=top;align=center;strokeWidth=1;shape=mxgraph.floorplan.doorLeft;rounded=0;shadow=0;comic=0;fillColor=#FFFFFF;fontFamily=Verdana;fontSize=12;" parent="5fdbbbe72816c942-1054" vertex="1">
          <mxGeometry x="1244" y="1251" width="80" height="85" as="geometry" />
        </mxCell>
        <mxCell id="5fdbbbe72816c942-1058" value="" style="verticalLabelPosition=bottom;html=1;verticalAlign=top;align=center;strokeWidth=1;shape=mxgraph.floorplan.wallCorner;fillColor=#000000;rounded=0;shadow=0;comic=0;fontFamily=Verdana;fontSize=12;" parent="5fdbbbe72816c942-1054" vertex="1">
          <mxGeometry x="393" y="243" width="100" height="385" as="geometry" />
        </mxCell>
        <mxCell id="5fdbbbe72816c942-1059" value="" style="verticalLabelPosition=bottom;html=1;verticalAlign=top;align=center;strokeWidth=1;shape=mxgraph.floorplan.wallU;fillColor=#000000;rounded=0;shadow=0;comic=0;fontFamily=Verdana;fontSize=12;rotation=90;" parent="5fdbbbe72816c942-1054" vertex="1">
          <mxGeometry x="1021" y="-380" width="1210" height="2456" as="geometry" />
        </mxCell>
        <mxCell id="5fdbbbe72816c942-1060" value="" style="verticalLabelPosition=bottom;html=1;verticalAlign=top;align=center;strokeWidth=1;shape=mxgraph.floorplan.wallU;fillColor=#000000;rounded=0;shadow=0;comic=0;fontFamily=Verdana;fontSize=12;rotation=90;" parent="5fdbbbe72816c942-1054" vertex="1">
          <mxGeometry x="789" y="702" width="481" height="335" as="geometry" />
        </mxCell>
        <mxCell id="5fdbbbe72816c942-1061" value="" style="verticalLabelPosition=bottom;html=1;verticalAlign=top;align=center;strokeWidth=1;shape=mxgraph.floorplan.wallCorner;fillColor=#000000;direction=south;rounded=0;shadow=0;comic=0;fontFamily=Verdana;fontSize=12;" parent="5fdbbbe72816c942-1054" vertex="1">
          <mxGeometry x="2274" y="631" width="221" height="266" as="geometry" />
        </mxCell>
        <mxCell id="5fdbbbe72816c942-1062" value="" style="verticalLabelPosition=bottom;html=1;verticalAlign=top;align=center;strokeWidth=1;shape=mxgraph.floorplan.wallCorner;fillColor=#000000;direction=west;rounded=0;shadow=0;comic=0;fontFamily=Verdana;fontSize=12;" parent="5fdbbbe72816c942-1054" vertex="1">
          <mxGeometry x="2053" y="893" width="442" height="142" as="geometry" />
        </mxCell>
        <mxCell id="5fdbbbe72816c942-1063" value="" style="verticalLabelPosition=bottom;html=1;verticalAlign=top;align=center;strokeWidth=1;shape=mxgraph.floorplan.wallCorner;fillColor=#000000;direction=north;rounded=0;shadow=0;comic=0;fontFamily=Verdana;fontSize=12;" parent="5fdbbbe72816c942-1054" vertex="1">
          <mxGeometry x="1873" y="637" width="186" height="398" as="geometry" />
        </mxCell>
        <mxCell id="5fdbbbe72816c942-1064" value="" style="verticalLabelPosition=bottom;html=1;verticalAlign=top;align=center;strokeWidth=1;shape=mxgraph.floorplan.doorDouble;rounded=0;shadow=0;comic=0;fillColor=#FFFFFF;fontFamily=Verdana;fontSize=12;rotation=-90;" parent="5fdbbbe72816c942-1054" vertex="1">
          <mxGeometry x="358" y="666" width="160" height="85" as="geometry" />
        </mxCell>
        <mxCell id="5fdbbbe72816c942-1065" value="" style="verticalLabelPosition=bottom;html=1;verticalAlign=top;align=center;strokeWidth=1;shape=mxgraph.floorplan.wall;fillColor=#000000;rounded=0;shadow=0;comic=0;fontFamily=Verdana;fontSize=12;" parent="5fdbbbe72816c942-1054" vertex="1">
          <mxGeometry x="394" y="1024" width="204" height="10" as="geometry" />
        </mxCell>
        <mxCell id="5fdbbbe72816c942-1066" value="" style="verticalLabelPosition=bottom;html=1;verticalAlign=top;align=center;strokeWidth=1;shape=mxgraph.floorplan.wall;fillColor=#000000;direction=south;rounded=0;shadow=0;comic=0;fontFamily=Verdana;fontSize=12;" parent="5fdbbbe72816c942-1054" vertex="1">
          <mxGeometry x="593" y="912" width="10" height="246" as="geometry" />
        </mxCell>
        <mxCell id="5fdbbbe72816c942-1067" value="" style="verticalLabelPosition=bottom;html=1;verticalAlign=top;align=center;strokeWidth=1;shape=mxgraph.floorplan.wallCorner;fillColor=#000000;direction=south;rounded=0;shadow=0;comic=0;fontFamily=Verdana;fontSize=12;" parent="5fdbbbe72816c942-1054" vertex="1">
          <mxGeometry x="398" y="814" width="205" height="17" as="geometry" />
        </mxCell>
        <mxCell id="5fdbbbe72816c942-1068" value="" style="verticalLabelPosition=bottom;html=1;verticalAlign=top;align=center;strokeWidth=1;shape=mxgraph.floorplan.doorLeft;rounded=0;shadow=0;comic=0;fillColor=#FFFFFF;fontFamily=Verdana;fontSize=12;rotation=90;" parent="5fdbbbe72816c942-1054" vertex="1">
          <mxGeometry x="517" y="829" width="80" height="85" as="geometry" />
        </mxCell>
        <mxCell id="5fdbbbe72816c942-1069" value="" style="verticalLabelPosition=bottom;html=1;verticalAlign=top;align=center;strokeWidth=1;shape=mxgraph.floorplan.wall;fillColor=#000000;rounded=0;shadow=0;comic=0;fontFamily=Verdana;fontSize=12;" parent="5fdbbbe72816c942-1054" vertex="1">
          <mxGeometry x="394" y="1248" width="299" height="10" as="geometry" />
        </mxCell>
        <mxCell id="5fdbbbe72816c942-1070" value="" style="verticalLabelPosition=bottom;html=1;verticalAlign=top;align=center;strokeWidth=1;shape=mxgraph.floorplan.wall;fillColor=#000000;direction=south;rounded=0;shadow=0;comic=0;fontFamily=Verdana;fontSize=12;" parent="5fdbbbe72816c942-1054" vertex="1">
          <mxGeometry x="593" y="1239" width="10" height="18" as="geometry" />
        </mxCell>
        <mxCell id="5fdbbbe72816c942-1071" value="" style="verticalLabelPosition=bottom;html=1;verticalAlign=top;align=center;strokeWidth=1;shape=mxgraph.floorplan.doorLeft;rounded=0;shadow=0;comic=0;fillColor=#FFFFFF;fontFamily=Verdana;fontSize=12;rotation=90;flipV=0;flipH=1;" parent="5fdbbbe72816c942-1054" vertex="1">
          <mxGeometry x="517" y="1156" width="80" height="85" as="geometry" />
        </mxCell>
        <mxCell id="5fdbbbe72816c942-1072" value="" style="verticalLabelPosition=bottom;html=1;verticalAlign=top;align=center;strokeWidth=1;shape=mxgraph.floorplan.wall;fillColor=#000000;direction=south;rounded=0;shadow=0;comic=0;fontFamily=Verdana;fontSize=12;" parent="5fdbbbe72816c942-1054" vertex="1">
          <mxGeometry x="393" y="789" width="10" height="664" as="geometry" />
        </mxCell>
        <mxCell id="5fdbbbe72816c942-1073" value="" style="verticalLabelPosition=bottom;html=1;verticalAlign=top;align=center;strokeWidth=1;shape=mxgraph.floorplan.wall;fillColor=#000000;direction=south;rounded=0;shadow=0;comic=0;fontFamily=Verdana;fontSize=12;" parent="5fdbbbe72816c942-1054" vertex="1">
          <mxGeometry x="780" y="1257" width="10" height="191" as="geometry" />
        </mxCell>
        <mxCell id="5fdbbbe72816c942-1074" value="" style="verticalLabelPosition=bottom;html=1;verticalAlign=top;align=center;strokeWidth=1;shape=mxgraph.floorplan.wall;fillColor=#000000;rounded=0;shadow=0;comic=0;fontFamily=Verdana;fontSize=12;" parent="5fdbbbe72816c942-1054" vertex="1">
          <mxGeometry x="774" y="1248" width="22" height="10" as="geometry" />
        </mxCell>
        <mxCell id="5fdbbbe72816c942-1075" value="" style="verticalLabelPosition=bottom;html=1;verticalAlign=top;align=center;strokeWidth=1;shape=mxgraph.floorplan.wall;fillColor=#000000;direction=south;rounded=0;shadow=0;comic=0;fontFamily=Verdana;fontSize=12;" parent="5fdbbbe72816c942-1054" vertex="1">
          <mxGeometry x="1003" y="1257" width="10" height="191" as="geometry" />
        </mxCell>
        <mxCell id="5fdbbbe72816c942-1076" value="" style="verticalLabelPosition=bottom;html=1;verticalAlign=top;align=center;strokeWidth=1;shape=mxgraph.floorplan.wall;fillColor=#000000;rounded=0;shadow=0;comic=0;fontFamily=Verdana;fontSize=12;" parent="5fdbbbe72816c942-1054" vertex="1">
          <mxGeometry x="876" y="1248" width="144" height="10" as="geometry" />
        </mxCell>
        <mxCell id="5fdbbbe72816c942-1077" value="" style="verticalLabelPosition=bottom;html=1;verticalAlign=top;align=center;strokeWidth=1;shape=mxgraph.floorplan.doorLeft;rounded=0;shadow=0;comic=0;fillColor=#FFFFFF;fontFamily=Verdana;fontSize=12;" parent="5fdbbbe72816c942-1054" vertex="1">
          <mxGeometry x="1020" y="1251" width="80" height="85" as="geometry" />
        </mxCell>
        <mxCell id="5fdbbbe72816c942-1078" value="" style="verticalLabelPosition=bottom;html=1;verticalAlign=top;align=center;strokeWidth=1;shape=mxgraph.floorplan.wall;fillColor=#000000;direction=south;rounded=0;shadow=0;comic=0;fontFamily=Verdana;fontSize=12;" parent="5fdbbbe72816c942-1054" vertex="1">
          <mxGeometry x="1228" y="1258" width="10" height="191" as="geometry" />
        </mxCell>
        <mxCell id="5fdbbbe72816c942-1079" value="" style="verticalLabelPosition=bottom;html=1;verticalAlign=top;align=center;strokeWidth=1;shape=mxgraph.floorplan.wall;fillColor=#000000;rounded=0;shadow=0;comic=0;fontFamily=Verdana;fontSize=12;" parent="5fdbbbe72816c942-1054" vertex="1">
          <mxGeometry x="1100" y="1248" width="144" height="10" as="geometry" />
        </mxCell>
        <mxCell id="5fdbbbe72816c942-1080" value="" style="verticalLabelPosition=bottom;html=1;verticalAlign=top;align=center;strokeWidth=1;shape=mxgraph.floorplan.wall;fillColor=#000000;rounded=0;shadow=0;comic=0;fontFamily=Verdana;fontSize=12;" parent="5fdbbbe72816c942-1054" vertex="1">
          <mxGeometry x="1324" y="1248" width="129" height="10" as="geometry" />
        </mxCell>
        <mxCell id="5fdbbbe72816c942-1081" value="" style="verticalLabelPosition=bottom;html=1;verticalAlign=top;align=center;strokeWidth=1;shape=mxgraph.floorplan.wallCorner;fillColor=#000000;rounded=0;shadow=0;comic=0;fontFamily=Verdana;fontSize=12;" parent="5fdbbbe72816c942-1054" vertex="1">
          <mxGeometry x="1452" y="1197" width="21" height="250" as="geometry" />
        </mxCell>
        <mxCell id="5fdbbbe72816c942-1082" value="" style="verticalLabelPosition=bottom;html=1;verticalAlign=top;align=center;strokeWidth=1;shape=mxgraph.floorplan.wallCorner;fillColor=#000000;direction=south;rounded=0;shadow=0;comic=0;fontFamily=Verdana;fontSize=12;" parent="5fdbbbe72816c942-1054" vertex="1">
          <mxGeometry x="1633" y="1197" width="330" height="254" as="geometry" />
        </mxCell>
        <mxCell id="5fdbbbe72816c942-1083" value="" style="verticalLabelPosition=bottom;html=1;verticalAlign=top;align=center;strokeWidth=1;shape=mxgraph.floorplan.doorDouble;rounded=0;shadow=0;comic=0;fillColor=#FFFFFF;fontFamily=Verdana;fontSize=12;" parent="5fdbbbe72816c942-1054" vertex="1">
          <mxGeometry x="1473" y="1200" width="160" height="85" as="geometry" />
        </mxCell>
        <mxCell id="5fdbbbe72816c942-1084" value="" style="verticalLabelPosition=bottom;html=1;verticalAlign=top;align=center;strokeWidth=1;shape=mxgraph.floorplan.window;fillColor=#ffffff;rounded=0;shadow=0;comic=0;fontFamily=Verdana;fontSize=12;" parent="5fdbbbe72816c942-1054" vertex="1">
          <mxGeometry x="1653" y="1197" width="120" height="10" as="geometry" />
        </mxCell>
        <mxCell id="5fdbbbe72816c942-1085" value="" style="verticalLabelPosition=bottom;html=1;verticalAlign=top;align=center;strokeWidth=1;shape=mxgraph.floorplan.window;fillColor=#ffffff;rounded=0;shadow=0;comic=0;fontFamily=Verdana;fontSize=12;" parent="5fdbbbe72816c942-1054" vertex="1">
          <mxGeometry x="1793" y="1197" width="110" height="10" as="geometry" />
        </mxCell>
        <mxCell id="5fdbbbe72816c942-1086" value="" style="verticalLabelPosition=bottom;html=1;verticalAlign=top;align=center;strokeWidth=1;shape=mxgraph.floorplan.wall;fillColor=#000000;rounded=0;shadow=0;comic=0;fontFamily=Verdana;fontSize=12;" parent="5fdbbbe72816c942-1054" vertex="1">
          <mxGeometry x="1963" y="1248" width="10" height="10" as="geometry" />
        </mxCell>
        <mxCell id="5fdbbbe72816c942-1087" value="" style="verticalLabelPosition=bottom;html=1;verticalAlign=top;align=center;strokeWidth=1;shape=mxgraph.floorplan.doorLeft;rounded=0;shadow=0;comic=0;fillColor=#FFFFFF;fontFamily=Verdana;fontSize=12;" parent="5fdbbbe72816c942-1054" vertex="1">
          <mxGeometry x="1973" y="1251" width="80" height="85" as="geometry" />
        </mxCell>
        <mxCell id="5fdbbbe72816c942-1088" value="" style="verticalLabelPosition=bottom;html=1;verticalAlign=top;align=center;strokeWidth=1;shape=mxgraph.floorplan.wall;fillColor=#000000;rounded=0;shadow=0;comic=0;fontFamily=Verdana;fontSize=12;" parent="5fdbbbe72816c942-1054" vertex="1">
          <mxGeometry x="2053" y="1248" width="270" height="10" as="geometry" />
        </mxCell>
        <mxCell id="5fdbbbe72816c942-1089" value="" style="verticalLabelPosition=bottom;html=1;verticalAlign=top;align=center;strokeWidth=1;shape=mxgraph.floorplan.wall;fillColor=#000000;direction=south;rounded=0;shadow=0;comic=0;fontFamily=Verdana;fontSize=12;" parent="5fdbbbe72816c942-1054" vertex="1">
          <mxGeometry x="2308" y="1258" width="10" height="191" as="geometry" />
        </mxCell>
        <mxCell id="5fdbbbe72816c942-1090" value="" style="verticalLabelPosition=bottom;html=1;verticalAlign=top;align=center;strokeWidth=1;shape=mxgraph.floorplan.doorLeft;rounded=0;shadow=0;comic=0;fillColor=#FFFFFF;fontFamily=Verdana;fontSize=12;" parent="5fdbbbe72816c942-1054" vertex="1">
          <mxGeometry x="2323" y="1251" width="80" height="85" as="geometry" />
        </mxCell>
        <mxCell id="5fdbbbe72816c942-1091" value="" style="verticalLabelPosition=bottom;html=1;verticalAlign=top;align=center;strokeWidth=1;shape=mxgraph.floorplan.wall;fillColor=#000000;direction=south;rounded=0;shadow=0;comic=0;fontFamily=Verdana;fontSize=12;" parent="5fdbbbe72816c942-1054" vertex="1">
          <mxGeometry x="2530" y="1257" width="10" height="191" as="geometry" />
        </mxCell>
        <mxCell id="5fdbbbe72816c942-1092" value="" style="verticalLabelPosition=bottom;html=1;verticalAlign=top;align=center;strokeWidth=1;shape=mxgraph.floorplan.wall;fillColor=#000000;rounded=0;shadow=0;comic=0;fontFamily=Verdana;fontSize=12;" parent="5fdbbbe72816c942-1054" vertex="1">
          <mxGeometry x="2403" y="1248" width="144" height="10" as="geometry" />
        </mxCell>
        <mxCell id="5fdbbbe72816c942-1093" value="" style="verticalLabelPosition=bottom;html=1;verticalAlign=top;align=center;strokeWidth=1;shape=mxgraph.floorplan.doorLeft;rounded=0;shadow=0;comic=0;fillColor=#FFFFFF;fontFamily=Verdana;fontSize=12;" parent="5fdbbbe72816c942-1054" vertex="1">
          <mxGeometry x="2547" y="1251" width="80" height="85" as="geometry" />
        </mxCell>
        <mxCell id="5fdbbbe72816c942-1094" value="" style="verticalLabelPosition=bottom;html=1;verticalAlign=top;align=center;strokeWidth=1;shape=mxgraph.floorplan.wall;fillColor=#000000;rounded=0;shadow=0;comic=0;fontFamily=Verdana;fontSize=12;" parent="5fdbbbe72816c942-1054" vertex="1">
          <mxGeometry x="2648" y="1023" width="204" height="10" as="geometry" />
        </mxCell>
        <mxCell id="5fdbbbe72816c942-1095" value="" style="verticalLabelPosition=bottom;html=1;verticalAlign=top;align=center;strokeWidth=1;shape=mxgraph.floorplan.wall;fillColor=#000000;direction=south;rounded=0;shadow=0;comic=0;fontFamily=Verdana;fontSize=12;" parent="5fdbbbe72816c942-1054" vertex="1">
          <mxGeometry x="2638" y="1017" width="10" height="139" as="geometry" />
        </mxCell>
        <mxCell id="5fdbbbe72816c942-1096" value="" style="verticalLabelPosition=bottom;html=1;verticalAlign=top;align=center;strokeWidth=1;shape=mxgraph.floorplan.wall;fillColor=#000000;rounded=0;shadow=0;comic=0;fontFamily=Verdana;fontSize=12;" parent="5fdbbbe72816c942-1054" vertex="1">
          <mxGeometry x="2627" y="1248" width="216" height="10" as="geometry" />
        </mxCell>
        <mxCell id="5fdbbbe72816c942-1097" value="" style="verticalLabelPosition=bottom;html=1;verticalAlign=top;align=center;strokeWidth=1;shape=mxgraph.floorplan.wall;fillColor=#000000;direction=south;rounded=0;shadow=0;comic=0;fontFamily=Verdana;fontSize=12;" parent="5fdbbbe72816c942-1054" vertex="1">
          <mxGeometry x="2638" y="1237" width="10" height="20" as="geometry" />
        </mxCell>
        <mxCell id="5fdbbbe72816c942-1098" value="" style="verticalLabelPosition=bottom;html=1;verticalAlign=top;align=center;strokeWidth=1;shape=mxgraph.floorplan.doorLeft;rounded=0;shadow=0;comic=0;fillColor=#FFFFFF;fontFamily=Verdana;fontSize=12;rotation=90;flipV=1;flipH=1;" parent="5fdbbbe72816c942-1054" vertex="1">
          <mxGeometry x="2643" y="1154" width="80" height="85" as="geometry" />
        </mxCell>
        <mxCell id="5fdbbbe72816c942-1099" value="" style="verticalLabelPosition=bottom;html=1;verticalAlign=top;align=center;strokeWidth=1;shape=mxgraph.floorplan.wall;fillColor=#000000;rounded=0;shadow=0;comic=0;fontFamily=Verdana;fontSize=12;" parent="5fdbbbe72816c942-1054" vertex="1">
          <mxGeometry x="2648" y="803" width="204" height="10" as="geometry" />
        </mxCell>
        <mxCell id="5fdbbbe72816c942-1100" value="" style="verticalLabelPosition=bottom;html=1;verticalAlign=top;align=center;strokeWidth=1;shape=mxgraph.floorplan.wall;fillColor=#000000;direction=south;rounded=0;shadow=0;comic=0;fontFamily=Verdana;fontSize=12;" parent="5fdbbbe72816c942-1054" vertex="1">
          <mxGeometry x="2638" y="797" width="10" height="139" as="geometry" />
        </mxCell>
        <mxCell id="5fdbbbe72816c942-1101" value="" style="verticalLabelPosition=bottom;html=1;verticalAlign=top;align=center;strokeWidth=1;shape=mxgraph.floorplan.doorLeft;rounded=0;shadow=0;comic=0;fillColor=#FFFFFF;fontFamily=Verdana;fontSize=12;rotation=90;flipV=1;flipH=1;" parent="5fdbbbe72816c942-1054" vertex="1">
          <mxGeometry x="2643" y="934" width="80" height="85" as="geometry" />
        </mxCell>
        <mxCell id="5fdbbbe72816c942-1102" value="" style="verticalLabelPosition=bottom;html=1;verticalAlign=top;align=center;strokeWidth=1;shape=mxgraph.floorplan.wall;fillColor=#000000;rounded=0;shadow=0;comic=0;fontFamily=Verdana;fontSize=12;" parent="5fdbbbe72816c942-1054" vertex="1">
          <mxGeometry x="2648" y="583" width="204" height="10" as="geometry" />
        </mxCell>
        <mxCell id="5fdbbbe72816c942-1103" value="" style="verticalLabelPosition=bottom;html=1;verticalAlign=top;align=center;strokeWidth=1;shape=mxgraph.floorplan.wall;fillColor=#000000;direction=south;rounded=0;shadow=0;comic=0;fontFamily=Verdana;fontSize=12;" parent="5fdbbbe72816c942-1054" vertex="1">
          <mxGeometry x="2638" y="577" width="10" height="139" as="geometry" />
        </mxCell>
        <mxCell id="5fdbbbe72816c942-1104" value="" style="verticalLabelPosition=bottom;html=1;verticalAlign=top;align=center;strokeWidth=1;shape=mxgraph.floorplan.doorLeft;rounded=0;shadow=0;comic=0;fillColor=#FFFFFF;fontFamily=Verdana;fontSize=12;rotation=90;flipV=1;flipH=1;" parent="5fdbbbe72816c942-1054" vertex="1">
          <mxGeometry x="2643" y="714" width="80" height="85" as="geometry" />
        </mxCell>
        <mxCell id="5fdbbbe72816c942-1105" value="" style="verticalLabelPosition=bottom;html=1;verticalAlign=top;align=center;strokeWidth=1;shape=mxgraph.floorplan.wall;fillColor=#000000;direction=south;rounded=0;shadow=0;comic=0;fontFamily=Verdana;fontSize=12;" parent="5fdbbbe72816c942-1054" vertex="1">
          <mxGeometry x="2638" y="247" width="10" height="248" as="geometry" />
        </mxCell>
        <mxCell id="5fdbbbe72816c942-1106" value="" style="verticalLabelPosition=bottom;html=1;verticalAlign=top;align=center;strokeWidth=1;shape=mxgraph.floorplan.doorLeft;rounded=0;shadow=0;comic=0;fillColor=#FFFFFF;fontFamily=Verdana;fontSize=12;rotation=90;flipV=1;flipH=1;" parent="5fdbbbe72816c942-1054" vertex="1">
          <mxGeometry x="2643" y="493" width="80" height="85" as="geometry" />
        </mxCell>
        <mxCell id="5fdbbbe72816c942-1107" value="" style="verticalLabelPosition=bottom;html=1;verticalAlign=top;align=center;strokeWidth=1;shape=mxgraph.floorplan.wallCorner;fillColor=#000000;direction=west;rounded=0;shadow=0;comic=0;fontFamily=Verdana;fontSize=12;" parent="5fdbbbe72816c942-1054" vertex="1">
          <mxGeometry x="401" y="607" width="202" height="12" as="geometry" />
        </mxCell>
        <mxCell id="5fdbbbe72816c942-1108" value="" style="verticalLabelPosition=bottom;html=1;verticalAlign=top;align=center;strokeWidth=1;shape=mxgraph.floorplan.wall;fillColor=#000000;direction=south;rounded=0;shadow=0;comic=0;fontFamily=Verdana;fontSize=12;" parent="5fdbbbe72816c942-1054" vertex="1">
          <mxGeometry x="593" y="247" width="10" height="279" as="geometry" />
        </mxCell>
        <mxCell id="5fdbbbe72816c942-1109" value="" style="verticalLabelPosition=bottom;html=1;verticalAlign=top;align=center;strokeWidth=1;shape=mxgraph.floorplan.doorLeft;rounded=0;shadow=0;comic=0;fillColor=#FFFFFF;fontFamily=Verdana;fontSize=12;rotation=90;flipH=1;" parent="5fdbbbe72816c942-1054" vertex="1">
          <mxGeometry x="518" y="524" width="80" height="85" as="geometry" />
        </mxCell>
        <mxCell id="5fdbbbe72816c942-1110" value="" style="verticalLabelPosition=bottom;html=1;verticalAlign=top;align=center;strokeWidth=1;shape=mxgraph.floorplan.wall;fillColor=#000000;rounded=0;shadow=0;comic=0;fontFamily=Verdana;fontSize=12;" parent="5fdbbbe72816c942-1054" vertex="1">
          <mxGeometry x="603" y="483" width="212" height="10" as="geometry" />
        </mxCell>
        <mxCell id="5fdbbbe72816c942-1111" value="" style="verticalLabelPosition=bottom;html=1;verticalAlign=top;align=center;strokeWidth=1;shape=mxgraph.floorplan.doorDouble;rounded=0;shadow=0;comic=0;fillColor=#FFFFFF;fontFamily=Verdana;fontSize=12;flipV=1;" parent="5fdbbbe72816c942-1054" vertex="1">
          <mxGeometry x="816" y="405" width="160" height="85" as="geometry" />
        </mxCell>
        <mxCell id="5fdbbbe72816c942-1112" value="" style="verticalLabelPosition=bottom;html=1;verticalAlign=top;align=center;strokeWidth=1;shape=mxgraph.floorplan.wall;fillColor=#000000;rounded=0;shadow=0;comic=0;fontFamily=Verdana;fontSize=12;" parent="5fdbbbe72816c942-1054" vertex="1">
          <mxGeometry x="2413" y="483" width="230" height="10" as="geometry" />
        </mxCell>
        <mxCell id="5fdbbbe72816c942-1113" value="" style="verticalLabelPosition=bottom;html=1;verticalAlign=top;align=center;strokeWidth=1;shape=mxgraph.floorplan.wall;fillColor=#000000;direction=south;rounded=0;shadow=0;comic=0;fontFamily=Verdana;fontSize=12;" parent="5fdbbbe72816c942-1054" vertex="1">
          <mxGeometry x="2318" y="243" width="10" height="248" as="geometry" />
        </mxCell>
        <mxCell id="5fdbbbe72816c942-1114" value="" style="verticalLabelPosition=bottom;html=1;verticalAlign=top;align=center;strokeWidth=1;shape=mxgraph.floorplan.doorLeft;rounded=0;shadow=0;comic=0;fillColor=#FFFFFF;fontFamily=Verdana;fontSize=12;flipV=1;" parent="5fdbbbe72816c942-1054" vertex="1">
          <mxGeometry x="2333" y="405" width="80" height="85" as="geometry" />
        </mxCell>
        <mxCell id="5fdbbbe72816c942-1115" value="" style="verticalLabelPosition=bottom;html=1;verticalAlign=top;align=center;strokeWidth=1;shape=mxgraph.floorplan.wall;fillColor=#000000;rounded=0;shadow=0;comic=0;fontFamily=Verdana;fontSize=12;" parent="5fdbbbe72816c942-1054" vertex="1">
          <mxGeometry x="2313" y="483" width="20" height="10" as="geometry" />
        </mxCell>
        <mxCell id="5fdbbbe72816c942-1116" value="" style="verticalLabelPosition=bottom;html=1;verticalAlign=top;align=center;strokeWidth=1;shape=mxgraph.floorplan.doorRight;rounded=0;shadow=0;comic=0;fillColor=#FFFFFF;fontFamily=Verdana;fontSize=12;flipV=1;" parent="5fdbbbe72816c942-1054" vertex="1">
          <mxGeometry x="2233" y="405" width="80" height="85" as="geometry" />
        </mxCell>
        <mxCell id="5fdbbbe72816c942-1117" value="" style="verticalLabelPosition=bottom;html=1;verticalAlign=top;align=center;strokeWidth=1;shape=mxgraph.floorplan.wall;fillColor=#000000;rounded=0;shadow=0;comic=0;fontFamily=Verdana;fontSize=12;" parent="5fdbbbe72816c942-1054" vertex="1">
          <mxGeometry x="2093" y="483" width="140" height="10" as="geometry" />
        </mxCell>
        <mxCell id="5fdbbbe72816c942-1118" value="" style="verticalLabelPosition=bottom;html=1;verticalAlign=top;align=center;strokeWidth=1;shape=mxgraph.floorplan.wall;fillColor=#000000;direction=south;rounded=0;shadow=0;comic=0;fontFamily=Verdana;fontSize=12;" parent="5fdbbbe72816c942-1054" vertex="1">
          <mxGeometry x="2098" y="247" width="10" height="244" as="geometry" />
        </mxCell>
        <mxCell id="5fdbbbe72816c942-1119" value="" style="verticalLabelPosition=bottom;html=1;verticalAlign=top;align=center;strokeWidth=1;shape=mxgraph.floorplan.doorRight;rounded=0;shadow=0;comic=0;fillColor=#FFFFFF;fontFamily=Verdana;fontSize=12;flipV=1;" parent="5fdbbbe72816c942-1054" vertex="1">
          <mxGeometry x="2013" y="405" width="80" height="85" as="geometry" />
        </mxCell>
        <mxCell id="5fdbbbe72816c942-1120" value="" style="verticalLabelPosition=bottom;html=1;verticalAlign=top;align=center;strokeWidth=1;shape=mxgraph.floorplan.wall;fillColor=#000000;rounded=0;shadow=0;comic=0;fontFamily=Verdana;fontSize=12;" parent="5fdbbbe72816c942-1054" vertex="1">
          <mxGeometry x="1873" y="483" width="140" height="10" as="geometry" />
        </mxCell>
        <mxCell id="5fdbbbe72816c942-1121" value="" style="verticalLabelPosition=bottom;html=1;verticalAlign=top;align=center;strokeWidth=1;shape=mxgraph.floorplan.wall;fillColor=#000000;direction=south;rounded=0;shadow=0;comic=0;fontFamily=Verdana;fontSize=12;" parent="5fdbbbe72816c942-1054" vertex="1">
          <mxGeometry x="1878" y="247" width="10" height="244" as="geometry" />
        </mxCell>
        <mxCell id="5fdbbbe72816c942-1122" value="" style="verticalLabelPosition=bottom;html=1;verticalAlign=top;align=center;strokeWidth=1;shape=mxgraph.floorplan.doorRight;rounded=0;shadow=0;comic=0;fillColor=#FFFFFF;fontFamily=Verdana;fontSize=12;flipV=1;" parent="5fdbbbe72816c942-1054" vertex="1">
          <mxGeometry x="1793" y="405" width="80" height="85" as="geometry" />
        </mxCell>
        <mxCell id="5fdbbbe72816c942-1123" value="" style="verticalLabelPosition=bottom;html=1;verticalAlign=top;align=center;strokeWidth=1;shape=mxgraph.floorplan.wall;fillColor=#000000;rounded=0;shadow=0;comic=0;fontFamily=Verdana;fontSize=12;" parent="5fdbbbe72816c942-1054" vertex="1">
          <mxGeometry x="1653" y="483" width="140" height="10" as="geometry" />
        </mxCell>
        <mxCell id="5fdbbbe72816c942-1124" value="" style="verticalLabelPosition=bottom;html=1;verticalAlign=top;align=center;strokeWidth=1;shape=mxgraph.floorplan.wall;fillColor=#000000;direction=south;rounded=0;shadow=0;comic=0;fontFamily=Verdana;fontSize=12;" parent="5fdbbbe72816c942-1054" vertex="1">
          <mxGeometry x="1658" y="247" width="10" height="244" as="geometry" />
        </mxCell>
        <mxCell id="5fdbbbe72816c942-1125" value="" style="verticalLabelPosition=bottom;html=1;verticalAlign=top;align=center;strokeWidth=1;shape=mxgraph.floorplan.doorRight;rounded=0;shadow=0;comic=0;fillColor=#FFFFFF;fontFamily=Verdana;fontSize=12;flipV=1;" parent="5fdbbbe72816c942-1054" vertex="1">
          <mxGeometry x="1573" y="405" width="80" height="85" as="geometry" />
        </mxCell>
        <mxCell id="5fdbbbe72816c942-1126" value="" style="verticalLabelPosition=bottom;html=1;verticalAlign=top;align=center;strokeWidth=1;shape=mxgraph.floorplan.wall;fillColor=#000000;rounded=0;shadow=0;comic=0;fontFamily=Verdana;fontSize=12;" parent="5fdbbbe72816c942-1054" vertex="1">
          <mxGeometry x="1433" y="483" width="140" height="10" as="geometry" />
        </mxCell>
        <mxCell id="5fdbbbe72816c942-1127" value="" style="verticalLabelPosition=bottom;html=1;verticalAlign=top;align=center;strokeWidth=1;shape=mxgraph.floorplan.wall;fillColor=#000000;direction=south;rounded=0;shadow=0;comic=0;fontFamily=Verdana;fontSize=12;" parent="5fdbbbe72816c942-1054" vertex="1">
          <mxGeometry x="1438" y="247" width="10" height="244" as="geometry" />
        </mxCell>
        <mxCell id="5fdbbbe72816c942-1128" value="" style="verticalLabelPosition=bottom;html=1;verticalAlign=top;align=center;strokeWidth=1;shape=mxgraph.floorplan.doorRight;rounded=0;shadow=0;comic=0;fillColor=#FFFFFF;fontFamily=Verdana;fontSize=12;flipV=1;" parent="5fdbbbe72816c942-1054" vertex="1">
          <mxGeometry x="1352" y="405" width="80" height="85" as="geometry" />
        </mxCell>
        <mxCell id="5fdbbbe72816c942-1129" value="" style="verticalLabelPosition=bottom;html=1;verticalAlign=top;align=center;strokeWidth=1;shape=mxgraph.floorplan.wall;fillColor=#000000;rounded=0;shadow=0;comic=0;fontFamily=Verdana;fontSize=12;" parent="5fdbbbe72816c942-1054" vertex="1">
          <mxGeometry x="976" y="483" width="375" height="10" as="geometry" />
        </mxCell>
        <mxCell id="5fdbbbe72816c942-1130" value="" style="verticalLabelPosition=bottom;html=1;verticalAlign=top;align=center;strokeWidth=1;shape=mxgraph.floorplan.wall;fillColor=#000000;direction=south;rounded=0;shadow=0;comic=0;fontFamily=Verdana;fontSize=12;" parent="5fdbbbe72816c942-1054" vertex="1">
          <mxGeometry x="1217" y="247" width="10" height="244" as="geometry" />
        </mxCell>
        <mxCell id="5fdbbbe72816c942-1131" value="" style="verticalLabelPosition=bottom;html=1;verticalAlign=top;align=center;strokeWidth=1;shape=mxgraph.floorplan.wall;fillColor=#000000;rounded=0;shadow=0;comic=0;fontFamily=Verdana;fontSize=12;" parent="5fdbbbe72816c942-1054" vertex="1">
          <mxGeometry x="853" y="865" width="340" height="10" as="geometry" />
        </mxCell>
        <mxCell id="5fdbbbe72816c942-1132" value="" style="verticalLabelPosition=bottom;html=1;verticalAlign=top;align=center;strokeWidth=1;shape=mxgraph.floorplan.wall;fillColor=#000000;direction=south;rounded=0;shadow=0;comic=0;fontFamily=Verdana;fontSize=12;" parent="5fdbbbe72816c942-1054" vertex="1">
          <mxGeometry x="853" y="629" width="10" height="150" as="geometry" />
        </mxCell>
        <mxCell id="5fdbbbe72816c942-1133" value="" style="verticalLabelPosition=bottom;html=1;verticalAlign=top;align=center;strokeWidth=1;shape=mxgraph.floorplan.wall;fillColor=#000000;direction=south;rounded=0;shadow=0;comic=0;fontFamily=Verdana;fontSize=12;" parent="5fdbbbe72816c942-1054" vertex="1">
          <mxGeometry x="853" y="961" width="10" height="149" as="geometry" />
        </mxCell>
        <mxCell id="5fdbbbe72816c942-1134" value="" style="verticalLabelPosition=bottom;html=1;verticalAlign=top;align=center;strokeWidth=1;shape=mxgraph.floorplan.wall;fillColor=#000000;direction=south;rounded=0;shadow=0;comic=0;fontFamily=Verdana;fontSize=12;" parent="5fdbbbe72816c942-1054" vertex="1">
          <mxGeometry x="853" y="860" width="10" height="20" as="geometry" />
        </mxCell>
        <mxCell id="5fdbbbe72816c942-1135" value="" style="verticalLabelPosition=bottom;html=1;verticalAlign=top;align=center;strokeWidth=1;shape=mxgraph.floorplan.doorLeft;rounded=0;shadow=0;comic=0;fillColor=#FFFFFF;fontFamily=Verdana;fontSize=12;rotation=-90;" parent="5fdbbbe72816c942-1054" vertex="1">
          <mxGeometry x="858" y="777" width="80" height="85" as="geometry" />
        </mxCell>
        <mxCell id="5fdbbbe72816c942-1136" value="" style="verticalLabelPosition=bottom;html=1;verticalAlign=top;align=center;strokeWidth=1;shape=mxgraph.floorplan.doorRight;rounded=0;shadow=0;comic=0;fillColor=#FFFFFF;fontFamily=Verdana;fontSize=12;rotation=-90;" parent="5fdbbbe72816c942-1054" vertex="1">
          <mxGeometry x="858" y="878" width="80" height="85" as="geometry" />
        </mxCell>
        <mxCell id="5fdbbbe72816c942-1137" value="" style="verticalLabelPosition=bottom;html=1;verticalAlign=top;align=center;strokeWidth=1;shape=mxgraph.floorplan.wall;fillColor=#000000;direction=south;rounded=0;shadow=0;comic=0;fontFamily=Verdana;fontSize=12;" parent="5fdbbbe72816c942-1054" vertex="1">
          <mxGeometry x="1370" y="638" width="10" height="399" as="geometry" />
        </mxCell>
        <mxCell id="5fdbbbe72816c942-1138" value="" style="verticalLabelPosition=bottom;html=1;verticalAlign=top;align=center;strokeWidth=1;shape=mxgraph.floorplan.wall;fillColor=#000000;rounded=0;shadow=0;comic=0;fontFamily=Verdana;fontSize=12;" parent="5fdbbbe72816c942-1054" vertex="1">
          <mxGeometry x="1380" y="731" width="172" height="10" as="geometry" />
        </mxCell>
        <mxCell id="5fdbbbe72816c942-1139" value="" style="verticalLabelPosition=bottom;html=1;verticalAlign=top;align=center;strokeWidth=1;shape=mxgraph.floorplan.doorLeft;rounded=0;shadow=0;comic=0;fillColor=#FFFFFF;fontFamily=Verdana;fontSize=12;rotation=90;" parent="5fdbbbe72816c942-1054" vertex="1">
          <mxGeometry x="1478" y="644" width="80" height="85" as="geometry" />
        </mxCell>
        <mxCell id="5fdbbbe72816c942-1140" value="" style="verticalLabelPosition=bottom;html=1;verticalAlign=top;align=center;strokeWidth=1;shape=mxgraph.floorplan.doorLeft;rounded=0;shadow=0;comic=0;fillColor=#FFFFFF;fontFamily=Verdana;fontSize=12;rotation=90;" parent="5fdbbbe72816c942-1054" vertex="1">
          <mxGeometry x="1478" y="743" width="80" height="85" as="geometry" />
        </mxCell>
        <mxCell id="5fdbbbe72816c942-1141" value="" style="verticalLabelPosition=bottom;html=1;verticalAlign=top;align=center;strokeWidth=1;shape=mxgraph.floorplan.wallCorner;fillColor=#000000;direction=west;rounded=0;shadow=0;comic=0;fontFamily=Verdana;fontSize=12;" parent="5fdbbbe72816c942-1054" vertex="1">
          <mxGeometry x="1373" y="826" width="323" height="14" as="geometry" />
        </mxCell>
        <mxCell id="5fdbbbe72816c942-1142" value="" style="verticalLabelPosition=bottom;html=1;verticalAlign=top;align=center;strokeWidth=1;shape=mxgraph.floorplan.wall;fillColor=#000000;direction=south;rounded=0;shadow=0;comic=0;fontFamily=Verdana;fontSize=12;" parent="5fdbbbe72816c942-1054" vertex="1">
          <mxGeometry x="1552" y="727" width="10" height="18" as="geometry" />
        </mxCell>
        <mxCell id="5fdbbbe72816c942-1143" value="" style="verticalLabelPosition=bottom;html=1;verticalAlign=top;align=center;strokeWidth=1;shape=mxgraph.floorplan.wall;fillColor=#000000;direction=south;rounded=0;shadow=0;comic=0;fontFamily=Verdana;fontSize=12;" parent="5fdbbbe72816c942-1054" vertex="1">
          <mxGeometry x="1552" y="637" width="10" height="9" as="geometry" />
        </mxCell>
        <mxCell id="5fdbbbe72816c942-1144" value="" style="verticalLabelPosition=bottom;html=1;verticalAlign=top;align=center;strokeWidth=1;shape=mxgraph.floorplan.doorRight;rounded=0;shadow=0;comic=0;fillColor=#FFFFFF;fontFamily=Verdana;fontSize=12;rotation=90;" parent="5fdbbbe72816c942-1054" vertex="1">
          <mxGeometry x="1611" y="743" width="80" height="85" as="geometry" />
        </mxCell>
        <mxCell id="5fdbbbe72816c942-1145" value="" style="verticalLabelPosition=bottom;html=1;verticalAlign=top;align=center;strokeWidth=1;shape=mxgraph.floorplan.wallCorner;fillColor=#000000;direction=south;rounded=0;shadow=0;comic=0;fontFamily=Verdana;fontSize=12;" parent="5fdbbbe72816c942-1054" vertex="1">
          <mxGeometry x="1370" y="631" width="326" height="114" as="geometry" />
        </mxCell>
        <mxCell id="5fdbbbe72816c942-1146" value="" style="verticalLabelPosition=bottom;html=1;verticalAlign=top;align=center;strokeWidth=1;shape=mxgraph.floorplan.doorLeft;rounded=0;shadow=0;comic=0;fillColor=#FFFFFF;fontFamily=Verdana;fontSize=12;rotation=90;" parent="5fdbbbe72816c942-1054" vertex="1">
          <mxGeometry x="1477" y="840" width="80" height="85" as="geometry" />
        </mxCell>
        <mxCell id="5fdbbbe72816c942-1147" value="" style="verticalLabelPosition=bottom;html=1;verticalAlign=top;align=center;strokeWidth=1;shape=mxgraph.floorplan.wall;fillColor=#000000;direction=south;rounded=0;shadow=0;comic=0;fontFamily=Verdana;fontSize=12;" parent="5fdbbbe72816c942-1054" vertex="1">
          <mxGeometry x="1552" y="826" width="10" height="16" as="geometry" />
        </mxCell>
        <mxCell id="5fdbbbe72816c942-1148" value="" style="verticalLabelPosition=bottom;html=1;verticalAlign=top;align=center;strokeWidth=1;shape=mxgraph.floorplan.wall;fillColor=#000000;rounded=0;shadow=0;comic=0;fontFamily=Verdana;fontSize=12;" parent="5fdbbbe72816c942-1054" vertex="1">
          <mxGeometry x="1373" y="926" width="180" height="10" as="geometry" />
        </mxCell>
        <mxCell id="5fdbbbe72816c942-1149" value="" style="verticalLabelPosition=bottom;html=1;verticalAlign=top;align=center;strokeWidth=1;shape=mxgraph.floorplan.wall;fillColor=#000000;direction=south;rounded=0;shadow=0;comic=0;fontFamily=Verdana;fontSize=12;" parent="5fdbbbe72816c942-1054" vertex="1">
          <mxGeometry x="1552" y="923" width="10" height="18" as="geometry" />
        </mxCell>
        <mxCell id="5fdbbbe72816c942-1150" value="" style="verticalLabelPosition=bottom;html=1;verticalAlign=top;align=center;strokeWidth=1;shape=mxgraph.floorplan.doorLeft;rounded=0;shadow=0;comic=0;fillColor=#FFFFFF;fontFamily=Verdana;fontSize=12;rotation=90;" parent="5fdbbbe72816c942-1054" vertex="1">
          <mxGeometry x="1477" y="939" width="80" height="85" as="geometry" />
        </mxCell>
        <mxCell id="5fdbbbe72816c942-1151" value="" style="verticalLabelPosition=bottom;html=1;verticalAlign=top;align=center;strokeWidth=1;shape=mxgraph.floorplan.wall;fillColor=#000000;direction=south;rounded=0;shadow=0;comic=0;fontFamily=Verdana;fontSize=12;" parent="5fdbbbe72816c942-1054" vertex="1">
          <mxGeometry x="1552" y="1017" width="10" height="10" as="geometry" />
        </mxCell>
        <mxCell id="5fdbbbe72816c942-1152" value="" style="verticalLabelPosition=bottom;html=1;verticalAlign=top;align=center;strokeWidth=1;shape=mxgraph.floorplan.wallCorner;fillColor=#000000;direction=west;rounded=0;shadow=0;comic=0;fontFamily=Verdana;fontSize=12;" parent="5fdbbbe72816c942-1054" vertex="1">
          <mxGeometry x="1373" y="925" width="323" height="110" as="geometry" />
        </mxCell>
        <mxCell id="5fdbbbe72816c942-1153" value="" style="verticalLabelPosition=bottom;html=1;verticalAlign=top;align=center;strokeWidth=1;shape=mxgraph.floorplan.doorRight;rounded=0;shadow=0;comic=0;fillColor=#FFFFFF;fontFamily=Verdana;fontSize=12;rotation=90;flipV=0;flipH=1;" parent="5fdbbbe72816c942-1054" vertex="1">
          <mxGeometry x="1611" y="842" width="80" height="85" as="geometry" />
        </mxCell>
        <mxCell id="5fdbbbe72816c942-1154" value="" style="verticalLabelPosition=bottom;html=1;verticalAlign=top;align=center;strokeWidth=1;shape=mxgraph.floorplan.wall;fillColor=#000000;direction=south;rounded=0;shadow=0;comic=0;fontFamily=Verdana;fontSize=12;" parent="5fdbbbe72816c942-1054" vertex="1">
          <mxGeometry x="1686" y="834" width="10" height="10" as="geometry" />
        </mxCell>
        <mxCell id="5fdbbbe72816c942-1155" value="" style="verticalLabelPosition=bottom;html=1;verticalAlign=top;align=center;strokeWidth=1;shape=mxgraph.floorplan.wall;fillColor=#000000;rounded=0;shadow=0;comic=0;fontFamily=Verdana;fontSize=12;" parent="5fdbbbe72816c942-1054" vertex="1">
          <mxGeometry x="1873" y="631" width="220" height="10" as="geometry" />
        </mxCell>
        <mxCell id="5fdbbbe72816c942-1156" value="" style="verticalLabelPosition=bottom;html=1;verticalAlign=top;align=center;strokeWidth=1;shape=mxgraph.floorplan.wallCorner;fillColor=#000000;direction=north;rounded=0;shadow=0;comic=0;fontFamily=Verdana;fontSize=12;" parent="5fdbbbe72816c942-1054" vertex="1">
          <mxGeometry x="2181" y="817" width="312" height="120" as="geometry" />
        </mxCell>
        <mxCell id="5fdbbbe72816c942-1157" value="" style="verticalLabelPosition=bottom;html=1;verticalAlign=top;align=center;strokeWidth=1;shape=mxgraph.floorplan.doorLeft;rounded=0;shadow=0;comic=0;fillColor=#FFFFFF;fontFamily=Verdana;fontSize=12;" parent="5fdbbbe72816c942-1054" vertex="1">
          <mxGeometry x="2194" y="633" width="80" height="85" as="geometry" />
        </mxCell>
        <mxCell id="5fdbbbe72816c942-1158" value="" style="verticalLabelPosition=bottom;html=1;verticalAlign=top;align=center;strokeWidth=1;shape=mxgraph.floorplan.doorRight;rounded=0;shadow=0;comic=0;fillColor=#FFFFFF;fontFamily=Verdana;fontSize=12;rotation=-90;" parent="5fdbbbe72816c942-1054" vertex="1">
          <mxGeometry x="2186" y="734" width="80" height="85" as="geometry" />
        </mxCell>
        <mxCell id="5fdbbbe72816c942-1159" value="" style="verticalLabelPosition=bottom;html=1;verticalAlign=top;align=center;strokeWidth=1;shape=mxgraph.floorplan.doorRight;rounded=0;shadow=0;comic=0;fillColor=#FFFFFF;fontFamily=Verdana;fontSize=12;rotation=-90;" parent="5fdbbbe72816c942-1054" vertex="1">
          <mxGeometry x="2322" y="941" width="80" height="78" as="geometry" />
        </mxCell>
        <mxCell id="5fdbbbe72816c942-1160" value="" style="verticalLabelPosition=bottom;html=1;verticalAlign=top;align=center;strokeWidth=1;shape=mxgraph.floorplan.wall;fillColor=#000000;rounded=0;shadow=0;comic=0;fontFamily=Verdana;fontSize=12;" parent="5fdbbbe72816c942-1054" vertex="1">
          <mxGeometry x="2174" y="631" width="20" height="10" as="geometry" />
        </mxCell>
        <mxCell id="5fdbbbe72816c942-1161" value="" style="verticalLabelPosition=bottom;html=1;verticalAlign=top;align=center;strokeWidth=1;shape=mxgraph.floorplan.doorRight;rounded=0;shadow=0;comic=0;fillColor=#FFFFFF;fontFamily=Verdana;fontSize=12;" parent="5fdbbbe72816c942-1054" vertex="1">
          <mxGeometry x="2094" y="633" width="80" height="85" as="geometry" />
        </mxCell>
        <mxCell id="5fdbbbe72816c942-1162" value="" style="verticalLabelPosition=bottom;html=1;verticalAlign=top;align=center;strokeWidth=1;shape=mxgraph.floorplan.wall;fillColor=#000000;direction=south;rounded=0;shadow=0;comic=0;fontFamily=Verdana;fontSize=12;" parent="5fdbbbe72816c942-1054" vertex="1">
          <mxGeometry x="2181" y="637" width="10" height="100" as="geometry" />
        </mxCell>
        <mxCell id="5fdbbbe72816c942-1164" value="" style="verticalLabelPosition=bottom;html=1;verticalAlign=top;align=center;strokeWidth=1;shape=mxgraph.floorplan.wall;fillColor=#000000;direction=south;rounded=0;shadow=0;comic=0;fontFamily=Verdana;fontSize=12;" parent="5fdbbbe72816c942-1054" vertex="1">
          <mxGeometry x="2321" y="1020" width="10" height="13" as="geometry" />
        </mxCell>
        <mxCell id="5fdbbbe72816c942-1169" style="edgeStyle=orthogonalEdgeStyle;html=1;exitX=0;exitY=0.5;exitPerimeter=0;entryX=1.079;entryY=0.075;entryPerimeter=0;jettySize=auto;orthogonalLoop=1;strokeColor=none;curved=1;endArrow=none;endFill=0;" parent="5fdbbbe72816c942-1054" target="5fdbbbe72816c942-1109" edge="1">
          <mxGeometry relative="1" as="geometry">
            <mxPoint x="525.5714285714289" y="431.57142857142867" as="sourcePoint" />
          </mxGeometry>
        </mxCell>
        <UserObject label="Walls and doors" link="data:action/json,{&quot;actions&quot;:[{&quot;toggle&quot;: {&quot;cells&quot;: [&quot;5fdbbbe72816c942-1054&quot;]}}]}" id="5fdbbbe72816c942-1759">
          <mxCell style="rounded=1;whiteSpace=wrap;html=1;strokeWidth=3;fillColor=#e1d5e7;fontColor=#000000;strokeColor=#9673a6;fontSize=28;verticalAlign=middle;" parent="5fdbbbe72816c942-1054" vertex="1">
            <mxGeometry x="413" y="1485" width="227" height="60" as="geometry" />
          </mxCell>
        </UserObject>
        <mxCell id="5fdbbbe72816c942-1" value="Furniture" style="locked=1;" parent="0" />
        <mxCell id="5fdbbbe72816c942-2" value="" style="verticalLabelPosition=bottom;html=1;verticalAlign=top;align=center;strokeWidth=1;shape=mxgraph.floorplan.desk_corner_2;rounded=0;shadow=0;comic=0;fillColor=#FFFFFF;fontFamily=Verdana;fontSize=12;flipH=1;flipV=1;" parent="5fdbbbe72816c942-1" vertex="1">
          <mxGeometry x="2292" y="840" width="192" height="97" as="geometry" />
        </mxCell>
        <mxCell id="5fdbbbe72816c942-3" value="" style="verticalLabelPosition=bottom;html=1;verticalAlign=top;align=center;strokeWidth=1;shape=mxgraph.floorplan.office_chair;fillColor=#ffffff;strokeColor=#000000;shadow=0;rounded=0;comic=0;fontFamily=Verdana;fontSize=12;" parent="5fdbbbe72816c942-1" vertex="1">
          <mxGeometry x="493" y="1372" width="40" height="43" as="geometry" />
        </mxCell>
        <mxCell id="5fdbbbe72816c942-4" value="" style="shape=rect;fillColor=#ffffff;strokeColor=#000000;shadow=0;rounded=0;comic=0;fontFamily=Verdana;fontSize=12;align=center;html=1;" parent="5fdbbbe72816c942-1" vertex="1">
          <mxGeometry x="403" y="1392" width="300" height="50" as="geometry" />
        </mxCell>
        <mxCell id="5fdbbbe72816c942-5" value="" style="verticalLabelPosition=bottom;html=1;verticalAlign=top;align=center;strokeWidth=1;shape=mxgraph.floorplan.office_chair;fillColor=#ffffff;strokeColor=#000000;shadow=0;rounded=0;comic=0;fontFamily=Verdana;fontSize=12;" parent="5fdbbbe72816c942-1" vertex="1">
          <mxGeometry x="1642" y="1283" width="40" height="43" as="geometry" />
        </mxCell>
        <mxCell id="5fdbbbe72816c942-6" value="" style="verticalLabelPosition=bottom;html=1;verticalAlign=top;align=center;strokeWidth=1;shape=mxgraph.floorplan.office_chair;fillColor=#ffffff;strokeColor=#000000;shadow=0;direction=west;rounded=0;comic=0;fontFamily=Verdana;fontSize=12;" parent="5fdbbbe72816c942-1" vertex="1">
          <mxGeometry x="1642" y="1380" width="40" height="43" as="geometry" />
        </mxCell>
        <mxCell id="5fdbbbe72816c942-7" value="" style="verticalLabelPosition=bottom;html=1;verticalAlign=top;align=center;strokeWidth=1;shape=mxgraph.floorplan.office_chair;fillColor=#ffffff;strokeColor=#000000;shadow=0;direction=north;rounded=0;comic=0;fontFamily=Verdana;fontSize=12;" parent="5fdbbbe72816c942-1" vertex="1">
          <mxGeometry x="1592" y="1333" width="43" height="40" as="geometry" />
        </mxCell>
        <mxCell id="5fdbbbe72816c942-8" value="" style="verticalLabelPosition=bottom;html=1;verticalAlign=top;align=center;strokeWidth=1;shape=mxgraph.floorplan.office_chair;fillColor=#ffffff;strokeColor=#000000;shadow=0;direction=south;rounded=0;comic=0;fontFamily=Verdana;fontSize=12;" parent="5fdbbbe72816c942-1" vertex="1">
          <mxGeometry x="1869" y="1333" width="43" height="40" as="geometry" />
        </mxCell>
        <mxCell id="5fdbbbe72816c942-9" value="" style="verticalLabelPosition=bottom;html=1;verticalAlign=top;align=center;strokeWidth=1;shape=mxgraph.floorplan.office_chair;fillColor=#ffffff;strokeColor=#000000;shadow=0;rounded=0;comic=0;fontFamily=Verdana;fontSize=12;" parent="5fdbbbe72816c942-1" vertex="1">
          <mxGeometry x="1702" y="1283" width="40" height="43" as="geometry" />
        </mxCell>
        <mxCell id="5fdbbbe72816c942-10" value="" style="verticalLabelPosition=bottom;html=1;verticalAlign=top;align=center;strokeWidth=1;shape=mxgraph.floorplan.office_chair;fillColor=#ffffff;strokeColor=#000000;shadow=0;direction=west;rounded=0;comic=0;fontFamily=Verdana;fontSize=12;" parent="5fdbbbe72816c942-1" vertex="1">
          <mxGeometry x="1702" y="1380" width="40" height="43" as="geometry" />
        </mxCell>
        <mxCell id="5fdbbbe72816c942-11" value="" style="verticalLabelPosition=bottom;html=1;verticalAlign=top;align=center;strokeWidth=1;shape=mxgraph.floorplan.office_chair;fillColor=#ffffff;strokeColor=#000000;shadow=0;rounded=0;comic=0;fontFamily=Verdana;fontSize=12;" parent="5fdbbbe72816c942-1" vertex="1">
          <mxGeometry x="1762" y="1283" width="40" height="43" as="geometry" />
        </mxCell>
        <mxCell id="5fdbbbe72816c942-12" value="" style="verticalLabelPosition=bottom;html=1;verticalAlign=top;align=center;strokeWidth=1;shape=mxgraph.floorplan.office_chair;fillColor=#ffffff;strokeColor=#000000;shadow=0;direction=west;rounded=0;comic=0;fontFamily=Verdana;fontSize=12;" parent="5fdbbbe72816c942-1" vertex="1">
          <mxGeometry x="1762" y="1380" width="40" height="43" as="geometry" />
        </mxCell>
        <mxCell id="5fdbbbe72816c942-13" value="" style="verticalLabelPosition=bottom;html=1;verticalAlign=top;align=center;strokeWidth=1;shape=mxgraph.floorplan.office_chair;fillColor=#ffffff;strokeColor=#000000;shadow=0;rounded=0;comic=0;fontFamily=Verdana;fontSize=12;" parent="5fdbbbe72816c942-1" vertex="1">
          <mxGeometry x="1822" y="1283" width="40" height="43" as="geometry" />
        </mxCell>
        <mxCell id="5fdbbbe72816c942-14" value="" style="verticalLabelPosition=bottom;html=1;verticalAlign=top;align=center;strokeWidth=1;shape=mxgraph.floorplan.office_chair;fillColor=#ffffff;strokeColor=#000000;shadow=0;direction=west;rounded=0;comic=0;fontFamily=Verdana;fontSize=12;" parent="5fdbbbe72816c942-1" vertex="1">
          <mxGeometry x="1822" y="1380" width="40" height="43" as="geometry" />
        </mxCell>
        <mxCell id="5fdbbbe72816c942-15" value="" style="shape=ellipse;fillColor=#ffffff;strokeColor=#000000;shadow=0;rounded=0;comic=0;fontFamily=Verdana;fontSize=12;align=center;html=1;" parent="5fdbbbe72816c942-1" vertex="1">
          <mxGeometry x="1612" y="1303" width="280" height="100" as="geometry" />
        </mxCell>
        <mxCell id="5fdbbbe72816c942-16" value="" style="group" parent="5fdbbbe72816c942-1" vertex="1" connectable="0">
          <mxGeometry x="916" y="1372" width="80" height="70" as="geometry" />
        </mxCell>
        <mxCell id="5fdbbbe72816c942-17" value="" style="verticalLabelPosition=bottom;html=1;verticalAlign=top;align=center;strokeWidth=1;shape=mxgraph.floorplan.office_chair;fillColor=#ffffff;strokeColor=#000000;shadow=0;rounded=0;comic=0;fontFamily=Verdana;fontSize=12;" parent="5fdbbbe72816c942-16" vertex="1">
          <mxGeometry x="20" width="40" height="43" as="geometry" />
        </mxCell>
        <mxCell id="5fdbbbe72816c942-18" value="" style="shape=rect;fillColor=#ffffff;strokeColor=#000000;shadow=0;rounded=0;comic=0;fontFamily=Verdana;fontSize=12;align=center;html=1;" parent="5fdbbbe72816c942-16" vertex="1">
          <mxGeometry y="20" width="80" height="50" as="geometry" />
        </mxCell>
        <mxCell id="5fdbbbe72816c942-19" value="" style="verticalLabelPosition=bottom;html=1;verticalAlign=top;align=center;strokeWidth=1;shape=mxgraph.floorplan.workstation;fillColor=#ffffff;strokeColor=#000000;shadow=0;flipV=1;rounded=0;comic=0;fontFamily=Verdana;fontSize=12;" parent="5fdbbbe72816c942-16" vertex="1">
          <mxGeometry x="15" y="30" width="50" height="40" as="geometry" />
        </mxCell>
        <mxCell id="5fdbbbe72816c942-20" value="" style="group;rotation=90;" parent="5fdbbbe72816c942-1" vertex="1" connectable="0">
          <mxGeometry x="398" y="947" width="80" height="70" as="geometry" />
        </mxCell>
        <mxCell id="5fdbbbe72816c942-21" value="" style="verticalLabelPosition=bottom;html=1;verticalAlign=top;align=center;strokeWidth=1;shape=mxgraph.floorplan.office_chair;fillColor=#ffffff;strokeColor=#000000;shadow=0;rounded=0;comic=0;fontFamily=Verdana;fontSize=12;rotation=90;" parent="5fdbbbe72816c942-20" vertex="1">
          <mxGeometry x="34" y="14" width="40" height="43" as="geometry" />
        </mxCell>
        <mxCell id="5fdbbbe72816c942-22" value="" style="shape=rect;fillColor=#ffffff;strokeColor=#000000;shadow=0;rounded=0;comic=0;fontFamily=Verdana;fontSize=12;align=center;html=1;rotation=90;" parent="5fdbbbe72816c942-20" vertex="1">
          <mxGeometry x="-10" y="10" width="80" height="50" as="geometry" />
        </mxCell>
        <mxCell id="5fdbbbe72816c942-23" value="" style="verticalLabelPosition=bottom;html=1;verticalAlign=top;align=center;strokeWidth=1;shape=mxgraph.floorplan.workstation;fillColor=#ffffff;strokeColor=#000000;shadow=0;flipV=1;rounded=0;comic=0;fontFamily=Verdana;fontSize=12;rotation=90;" parent="5fdbbbe72816c942-20" vertex="1">
          <mxGeometry y="15" width="50" height="40" as="geometry" />
        </mxCell>
        <mxCell id="5fdbbbe72816c942-24" value="" style="group;rotation=180;" parent="5fdbbbe72816c942-1" vertex="1" connectable="0">
          <mxGeometry x="2330" y="253" width="80" height="70" as="geometry" />
        </mxCell>
        <mxCell id="5fdbbbe72816c942-25" value="" style="verticalLabelPosition=bottom;html=1;verticalAlign=top;align=center;strokeWidth=1;shape=mxgraph.floorplan.office_chair;fillColor=#ffffff;strokeColor=#000000;shadow=0;rounded=0;comic=0;fontFamily=Verdana;fontSize=12;rotation=180;" parent="5fdbbbe72816c942-24" vertex="1">
          <mxGeometry x="20" y="28" width="40" height="43" as="geometry" />
        </mxCell>
        <mxCell id="5fdbbbe72816c942-26" value="" style="shape=rect;fillColor=#ffffff;strokeColor=#000000;shadow=0;rounded=0;comic=0;fontFamily=Verdana;fontSize=12;align=center;html=1;rotation=180;" parent="5fdbbbe72816c942-24" vertex="1">
          <mxGeometry width="80" height="50" as="geometry" />
        </mxCell>
        <mxCell id="5fdbbbe72816c942-27" value="" style="verticalLabelPosition=bottom;html=1;verticalAlign=top;align=center;strokeWidth=1;shape=mxgraph.floorplan.workstation;fillColor=#ffffff;strokeColor=#000000;shadow=0;flipV=1;rounded=0;comic=0;fontFamily=Verdana;fontSize=12;rotation=180;" parent="5fdbbbe72816c942-24" vertex="1">
          <mxGeometry x="15" width="50" height="40" as="geometry" />
        </mxCell>
        <mxCell id="5fdbbbe72816c942-28" value="" style="verticalLabelPosition=bottom;html=1;verticalAlign=top;align=center;strokeWidth=1;shape=mxgraph.floorplan.office_chair;fillColor=#ffffff;strokeColor=#000000;shadow=0;rounded=0;comic=0;fontFamily=Verdana;fontSize=12;" parent="5fdbbbe72816c942-1" vertex="1">
          <mxGeometry x="1034" y="699" width="40" height="43" as="geometry" />
        </mxCell>
        <mxCell id="5fdbbbe72816c942-29" value="" style="verticalLabelPosition=bottom;html=1;verticalAlign=top;align=center;strokeWidth=1;shape=mxgraph.floorplan.office_chair;fillColor=#ffffff;strokeColor=#000000;shadow=0;direction=west;rounded=0;comic=0;fontFamily=Verdana;fontSize=12;" parent="5fdbbbe72816c942-1" vertex="1">
          <mxGeometry x="1034" y="796" width="40" height="43" as="geometry" />
        </mxCell>
        <mxCell id="5fdbbbe72816c942-30" value="" style="verticalLabelPosition=bottom;html=1;verticalAlign=top;align=center;strokeWidth=1;shape=mxgraph.floorplan.office_chair;fillColor=#ffffff;strokeColor=#000000;shadow=0;direction=north;rounded=0;comic=0;fontFamily=Verdana;fontSize=12;" parent="5fdbbbe72816c942-1" vertex="1">
          <mxGeometry x="984" y="749" width="43" height="40" as="geometry" />
        </mxCell>
        <mxCell id="5fdbbbe72816c942-31" value="" style="verticalLabelPosition=bottom;html=1;verticalAlign=top;align=center;strokeWidth=1;shape=mxgraph.floorplan.office_chair;fillColor=#ffffff;strokeColor=#000000;shadow=0;direction=south;rounded=0;comic=0;fontFamily=Verdana;fontSize=12;" parent="5fdbbbe72816c942-1" vertex="1">
          <mxGeometry x="1081" y="749" width="43" height="40" as="geometry" />
        </mxCell>
        <mxCell id="5fdbbbe72816c942-32" value="" style="shape=rect;fillColor=#ffffff;strokeColor=#000000;shadow=0;rounded=0;comic=0;fontFamily=Verdana;fontSize=12;align=center;html=1;" parent="5fdbbbe72816c942-1" vertex="1">
          <mxGeometry x="1004" y="719" width="100" height="100" as="geometry" />
        </mxCell>
        <mxCell id="5fdbbbe72816c942-33" value="" style="verticalLabelPosition=bottom;html=1;verticalAlign=top;align=center;strokeWidth=1;shape=mxgraph.floorplan.office_chair;fillColor=#ffffff;strokeColor=#000000;shadow=0;rounded=0;comic=0;fontFamily=Verdana;fontSize=12;" parent="5fdbbbe72816c942-1" vertex="1">
          <mxGeometry x="1034" y="939" width="40" height="43" as="geometry" />
        </mxCell>
        <mxCell id="5fdbbbe72816c942-34" value="" style="verticalLabelPosition=bottom;html=1;verticalAlign=top;align=center;strokeWidth=1;shape=mxgraph.floorplan.office_chair;fillColor=#ffffff;strokeColor=#000000;shadow=0;direction=west;rounded=0;comic=0;fontFamily=Verdana;fontSize=12;" parent="5fdbbbe72816c942-1" vertex="1">
          <mxGeometry x="1034" y="1036" width="40" height="43" as="geometry" />
        </mxCell>
        <mxCell id="5fdbbbe72816c942-35" value="" style="verticalLabelPosition=bottom;html=1;verticalAlign=top;align=center;strokeWidth=1;shape=mxgraph.floorplan.office_chair;fillColor=#ffffff;strokeColor=#000000;shadow=0;direction=north;rounded=0;comic=0;fontFamily=Verdana;fontSize=12;" parent="5fdbbbe72816c942-1" vertex="1">
          <mxGeometry x="984" y="989" width="43" height="40" as="geometry" />
        </mxCell>
        <mxCell id="5fdbbbe72816c942-36" value="" style="verticalLabelPosition=bottom;html=1;verticalAlign=top;align=center;strokeWidth=1;shape=mxgraph.floorplan.office_chair;fillColor=#ffffff;strokeColor=#000000;shadow=0;direction=south;rounded=0;comic=0;fontFamily=Verdana;fontSize=12;" parent="5fdbbbe72816c942-1" vertex="1">
          <mxGeometry x="1081" y="989" width="43" height="40" as="geometry" />
        </mxCell>
        <mxCell id="5fdbbbe72816c942-37" value="" style="shape=rect;fillColor=#ffffff;strokeColor=#000000;shadow=0;rounded=0;comic=0;fontFamily=Verdana;fontSize=12;align=center;html=1;" parent="5fdbbbe72816c942-1" vertex="1">
          <mxGeometry x="1004" y="959" width="100" height="100" as="geometry" />
        </mxCell>
        <mxCell id="5fdbbbe72816c942-52" value="" style="verticalLabelPosition=bottom;html=1;verticalAlign=top;align=center;strokeWidth=1;shape=mxgraph.floorplan.dresser;rounded=0;shadow=0;comic=0;fillColor=#FFFFFF;fontFamily=Verdana;fontSize=12;rotation=90;" parent="5fdbbbe72816c942-1" vertex="1">
          <mxGeometry x="510" y="941" width="100" height="65" as="geometry" />
        </mxCell>
        <mxCell id="5fdbbbe72816c942-53" value="" style="verticalLabelPosition=bottom;html=1;verticalAlign=top;align=center;strokeWidth=1;shape=mxgraph.floorplan.plant;rounded=0;shadow=0;comic=0;fillColor=#FFFFFF;fontFamily=Verdana;fontSize=12;" parent="5fdbbbe72816c942-1" vertex="1">
          <mxGeometry x="406" y="829" width="47" height="51" as="geometry" />
        </mxCell>
        <mxCell id="5fdbbbe72816c942-54" value="" style="group;rotation=90;" parent="5fdbbbe72816c942-1" vertex="1" connectable="0">
          <mxGeometry x="399" y="1040" width="80" height="70" as="geometry" />
        </mxCell>
        <mxCell id="5fdbbbe72816c942-55" value="" style="verticalLabelPosition=bottom;html=1;verticalAlign=top;align=center;strokeWidth=1;shape=mxgraph.floorplan.office_chair;fillColor=#ffffff;strokeColor=#000000;shadow=0;rounded=0;comic=0;fontFamily=Verdana;fontSize=12;rotation=90;" parent="5fdbbbe72816c942-54" vertex="1">
          <mxGeometry x="34" y="14" width="40" height="43" as="geometry" />
        </mxCell>
        <mxCell id="5fdbbbe72816c942-56" value="" style="shape=rect;fillColor=#ffffff;strokeColor=#000000;shadow=0;rounded=0;comic=0;fontFamily=Verdana;fontSize=12;align=center;html=1;rotation=90;" parent="5fdbbbe72816c942-54" vertex="1">
          <mxGeometry x="-10" y="10" width="80" height="50" as="geometry" />
        </mxCell>
        <mxCell id="5fdbbbe72816c942-57" value="" style="verticalLabelPosition=bottom;html=1;verticalAlign=top;align=center;strokeWidth=1;shape=mxgraph.floorplan.workstation;fillColor=#ffffff;strokeColor=#000000;shadow=0;flipV=1;rounded=0;comic=0;fontFamily=Verdana;fontSize=12;rotation=90;" parent="5fdbbbe72816c942-54" vertex="1">
          <mxGeometry y="15" width="50" height="40" as="geometry" />
        </mxCell>
        <mxCell id="5fdbbbe72816c942-61" value="" style="verticalLabelPosition=bottom;html=1;verticalAlign=top;align=center;strokeWidth=1;shape=mxgraph.floorplan.dresser;rounded=0;shadow=0;comic=0;fillColor=#FFFFFF;fontFamily=Verdana;fontSize=12;rotation=90;" parent="5fdbbbe72816c942-1" vertex="1">
          <mxGeometry x="510" y="1051" width="100" height="65" as="geometry" />
        </mxCell>
        <mxCell id="5fdbbbe72816c942-62" value="" style="verticalLabelPosition=bottom;html=1;verticalAlign=top;align=center;strokeWidth=1;shape=mxgraph.floorplan.plant;rounded=0;shadow=0;comic=0;fillColor=#FFFFFF;fontFamily=Verdana;fontSize=12;" parent="5fdbbbe72816c942-1" vertex="1">
          <mxGeometry x="409" y="1190" width="47" height="51" as="geometry" />
        </mxCell>
        <mxCell id="5fdbbbe72816c942-63" value="" style="verticalLabelPosition=bottom;html=1;verticalAlign=top;align=center;strokeWidth=1;shape=mxgraph.floorplan.workstation;fillColor=#ffffff;strokeColor=#000000;shadow=0;flipV=1;rounded=0;comic=0;fontFamily=Verdana;fontSize=12;" parent="5fdbbbe72816c942-1" vertex="1">
          <mxGeometry x="488" y="1402" width="50" height="40" as="geometry" />
        </mxCell>
        <mxCell id="5fdbbbe72816c942-64" value="" style="verticalLabelPosition=bottom;html=1;verticalAlign=top;align=center;strokeWidth=1;shape=mxgraph.floorplan.flat_tv;rounded=0;shadow=0;comic=0;fillColor=#FFFFFF;fontFamily=Verdana;fontSize=12;rotation=-165;" parent="5fdbbbe72816c942-1" vertex="1">
          <mxGeometry x="413" y="1425" width="70" height="10" as="geometry" />
        </mxCell>
        <mxCell id="5fdbbbe72816c942-65" value="" style="verticalLabelPosition=bottom;html=1;verticalAlign=top;align=center;strokeWidth=1;shape=mxgraph.floorplan.flat_tv;rounded=0;shadow=0;comic=0;fillColor=#FFFFFF;fontFamily=Verdana;fontSize=12;rotation=160;" parent="5fdbbbe72816c942-1" vertex="1">
          <mxGeometry x="544" y="1425" width="70" height="10" as="geometry" />
        </mxCell>
        <mxCell id="5fdbbbe72816c942-69" value="" style="verticalLabelPosition=bottom;html=1;verticalAlign=top;align=center;strokeWidth=1;shape=mxgraph.floorplan.dresser;rounded=0;shadow=0;comic=0;fillColor=#FFFFFF;fontFamily=Verdana;fontSize=12;flipV=1;rotation=90;" parent="5fdbbbe72816c942-1" vertex="1">
          <mxGeometry x="386" y="1276" width="100" height="65" as="geometry" />
        </mxCell>
        <mxCell id="5fdbbbe72816c942-70" value="" style="verticalLabelPosition=bottom;html=1;verticalAlign=top;align=center;strokeWidth=1;shape=mxgraph.floorplan.plant;rounded=0;shadow=0;comic=0;fillColor=#FFFFFF;fontFamily=Verdana;fontSize=12;" parent="5fdbbbe72816c942-1" vertex="1">
          <mxGeometry x="723" y="1389" width="47" height="51" as="geometry" />
        </mxCell>
        <mxCell id="5fdbbbe72816c942-71" value="" style="verticalLabelPosition=bottom;html=1;verticalAlign=top;align=center;strokeWidth=1;shape=mxgraph.floorplan.plant;rounded=0;shadow=0;comic=0;fillColor=#FFFFFF;fontFamily=Verdana;fontSize=12;" parent="5fdbbbe72816c942-1" vertex="1">
          <mxGeometry x="796" y="1387" width="47" height="51" as="geometry" />
        </mxCell>
        <mxCell id="5fdbbbe72816c942-75" value="" style="group" parent="5fdbbbe72816c942-1" vertex="1" connectable="0">
          <mxGeometry x="1143" y="1373" width="80" height="70" as="geometry" />
        </mxCell>
        <mxCell id="5fdbbbe72816c942-76" value="" style="verticalLabelPosition=bottom;html=1;verticalAlign=top;align=center;strokeWidth=1;shape=mxgraph.floorplan.office_chair;fillColor=#ffffff;strokeColor=#000000;shadow=0;rounded=0;comic=0;fontFamily=Verdana;fontSize=12;" parent="5fdbbbe72816c942-75" vertex="1">
          <mxGeometry x="20" width="40" height="43" as="geometry" />
        </mxCell>
        <mxCell id="5fdbbbe72816c942-77" value="" style="shape=rect;fillColor=#ffffff;strokeColor=#000000;shadow=0;rounded=0;comic=0;fontFamily=Verdana;fontSize=12;align=center;html=1;" parent="5fdbbbe72816c942-75" vertex="1">
          <mxGeometry y="20" width="80" height="50" as="geometry" />
        </mxCell>
        <mxCell id="5fdbbbe72816c942-78" value="" style="verticalLabelPosition=bottom;html=1;verticalAlign=top;align=center;strokeWidth=1;shape=mxgraph.floorplan.workstation;fillColor=#ffffff;strokeColor=#000000;shadow=0;flipV=1;rounded=0;comic=0;fontFamily=Verdana;fontSize=12;" parent="5fdbbbe72816c942-75" vertex="1">
          <mxGeometry x="15" y="30" width="50" height="40" as="geometry" />
        </mxCell>
        <mxCell id="5fdbbbe72816c942-79" value="" style="verticalLabelPosition=bottom;html=1;verticalAlign=top;align=center;strokeWidth=1;shape=mxgraph.floorplan.plant;rounded=0;shadow=0;comic=0;fillColor=#FFFFFF;fontFamily=Verdana;fontSize=12;" parent="5fdbbbe72816c942-1" vertex="1">
          <mxGeometry x="1019" y="1387" width="47" height="51" as="geometry" />
        </mxCell>
        <mxCell id="5fdbbbe72816c942-83" value="" style="group" parent="5fdbbbe72816c942-1" vertex="1" connectable="0">
          <mxGeometry x="1367" y="1372" width="323" height="177" as="geometry" />
        </mxCell>
        <mxCell id="5fdbbbe72816c942-84" value="" style="verticalLabelPosition=bottom;html=1;verticalAlign=top;align=center;strokeWidth=1;shape=mxgraph.floorplan.office_chair;fillColor=#ffffff;strokeColor=#000000;shadow=0;rounded=0;comic=0;fontFamily=Verdana;fontSize=12;" parent="5fdbbbe72816c942-83" vertex="1">
          <mxGeometry x="20" width="40" height="43" as="geometry" />
        </mxCell>
        <mxCell id="5fdbbbe72816c942-85" value="" style="shape=rect;fillColor=#ffffff;strokeColor=#000000;shadow=0;rounded=0;comic=0;fontFamily=Verdana;fontSize=12;align=center;html=1;" parent="5fdbbbe72816c942-83" vertex="1">
          <mxGeometry y="20" width="80" height="50" as="geometry" />
        </mxCell>
        <mxCell id="5fdbbbe72816c942-86" value="" style="verticalLabelPosition=bottom;html=1;verticalAlign=top;align=center;strokeWidth=1;shape=mxgraph.floorplan.workstation;fillColor=#ffffff;strokeColor=#000000;shadow=0;flipV=1;rounded=0;comic=0;fontFamily=Verdana;fontSize=12;" parent="5fdbbbe72816c942-83" vertex="1">
          <mxGeometry x="15" y="30" width="50" height="40" as="geometry" />
        </mxCell>
        <mxCell id="5fdbbbe72816c942-87" value="" style="verticalLabelPosition=bottom;html=1;verticalAlign=top;align=center;strokeWidth=1;shape=mxgraph.floorplan.plant;rounded=0;shadow=0;comic=0;fillColor=#FFFFFF;fontFamily=Verdana;fontSize=12;" parent="5fdbbbe72816c942-1" vertex="1">
          <mxGeometry x="1244" y="1392" width="47" height="51" as="geometry" />
        </mxCell>
        <mxCell id="5fdbbbe72816c942-88" value="" style="verticalLabelPosition=bottom;html=1;verticalAlign=top;align=center;strokeWidth=1;shape=mxgraph.floorplan.dresser;rounded=0;shadow=0;comic=0;fillColor=#FFFFFF;fontFamily=Verdana;fontSize=12;rotation=0;" parent="5fdbbbe72816c942-1" vertex="1">
          <mxGeometry x="903" y="1258" width="100" height="65" as="geometry" />
        </mxCell>
        <mxCell id="5fdbbbe72816c942-89" value="" style="verticalLabelPosition=bottom;html=1;verticalAlign=top;align=center;strokeWidth=1;shape=mxgraph.floorplan.dresser;rounded=0;shadow=0;comic=0;fillColor=#FFFFFF;fontFamily=Verdana;fontSize=12;rotation=0;" parent="5fdbbbe72816c942-1" vertex="1">
          <mxGeometry x="1127" y="1258" width="100" height="65" as="geometry" />
        </mxCell>
        <mxCell id="5fdbbbe72816c942-90" value="" style="verticalLabelPosition=bottom;html=1;verticalAlign=top;align=center;strokeWidth=1;shape=mxgraph.floorplan.dresser;rounded=0;shadow=0;comic=0;fillColor=#FFFFFF;fontFamily=Verdana;fontSize=12;rotation=0;" parent="5fdbbbe72816c942-1" vertex="1">
          <mxGeometry x="1353" y="1258" width="100" height="65" as="geometry" />
        </mxCell>
        <mxCell id="5fdbbbe72816c942-94" value="" style="verticalLabelPosition=bottom;html=1;verticalAlign=top;align=center;strokeWidth=1;shape=mxgraph.floorplan.plant;rounded=0;shadow=0;comic=0;fillColor=#FFFFFF;fontFamily=Verdana;fontSize=12;" parent="5fdbbbe72816c942-1" vertex="1">
          <mxGeometry x="1473" y="1380" width="47" height="51" as="geometry" />
        </mxCell>
        <mxCell id="5fdbbbe72816c942-95" value="" style="verticalLabelPosition=bottom;html=1;verticalAlign=top;align=center;strokeWidth=1;shape=mxgraph.floorplan.plant;rounded=0;shadow=0;comic=0;fillColor=#FFFFFF;fontFamily=Verdana;fontSize=12;" parent="5fdbbbe72816c942-1" vertex="1">
          <mxGeometry x="1892" y="1211" width="47" height="51" as="geometry" />
        </mxCell>
        <mxCell id="5fdbbbe72816c942-96" value="" style="verticalLabelPosition=bottom;html=1;verticalAlign=top;align=center;strokeWidth=1;shape=mxgraph.floorplan.plant;rounded=0;shadow=0;comic=0;fillColor=#FFFFFF;fontFamily=Verdana;fontSize=12;" parent="5fdbbbe72816c942-1" vertex="1">
          <mxGeometry x="1893" y="1387" width="47" height="51" as="geometry" />
        </mxCell>
        <mxCell id="5fdbbbe72816c942-103" value="" style="group;rotation=-90;" parent="5fdbbbe72816c942-1" vertex="1" connectable="0">
          <mxGeometry x="2232" y="1284" width="110" height="70" as="geometry" />
        </mxCell>
        <mxCell id="5fdbbbe72816c942-104" value="" style="verticalLabelPosition=bottom;html=1;verticalAlign=top;align=center;strokeWidth=1;shape=mxgraph.floorplan.office_chair;fillColor=#ffffff;strokeColor=#000000;shadow=0;rounded=0;comic=0;fontFamily=Verdana;fontSize=12;rotation=-90;" parent="5fdbbbe72816c942-103" vertex="1">
          <mxGeometry x="7" y="14" width="40" height="43" as="geometry" />
        </mxCell>
        <mxCell id="5fdbbbe72816c942-105" value="" style="shape=rect;fillColor=#ffffff;strokeColor=#000000;shadow=0;rounded=0;comic=0;fontFamily=Verdana;fontSize=12;align=center;html=1;rotation=-90;" parent="5fdbbbe72816c942-103" vertex="1">
          <mxGeometry x="-10" y="10" width="120" height="50" as="geometry" />
        </mxCell>
        <mxCell id="5fdbbbe72816c942-106" value="" style="verticalLabelPosition=bottom;html=1;verticalAlign=top;align=center;strokeWidth=1;shape=mxgraph.floorplan.workstation;fillColor=#ffffff;strokeColor=#000000;shadow=0;flipV=1;rounded=0;comic=0;fontFamily=Verdana;fontSize=12;rotation=-90;" parent="5fdbbbe72816c942-103" vertex="1">
          <mxGeometry x="30" y="15" width="50" height="40" as="geometry" />
        </mxCell>
        <mxCell id="5fdbbbe72816c942-107" value="" style="verticalLabelPosition=bottom;html=1;verticalAlign=top;align=center;strokeWidth=1;shape=mxgraph.floorplan.office_chair;fillColor=#ffffff;strokeColor=#000000;shadow=0;rounded=0;comic=0;fontFamily=Verdana;fontSize=12;" parent="5fdbbbe72816c942-1" vertex="1">
          <mxGeometry x="2098" y="1322" width="40" height="43" as="geometry" />
        </mxCell>
        <mxCell id="5fdbbbe72816c942-108" value="" style="verticalLabelPosition=bottom;html=1;verticalAlign=top;align=center;strokeWidth=1;shape=mxgraph.floorplan.office_chair;fillColor=#ffffff;strokeColor=#000000;shadow=0;direction=north;rounded=0;comic=0;fontFamily=Verdana;fontSize=12;" parent="5fdbbbe72816c942-1" vertex="1">
          <mxGeometry x="2048" y="1372" width="43" height="40" as="geometry" />
        </mxCell>
        <mxCell id="5fdbbbe72816c942-109" value="" style="verticalLabelPosition=bottom;html=1;verticalAlign=top;align=center;strokeWidth=1;shape=mxgraph.floorplan.office_chair;fillColor=#ffffff;strokeColor=#000000;shadow=0;direction=south;rounded=0;comic=0;fontFamily=Verdana;fontSize=12;" parent="5fdbbbe72816c942-1" vertex="1">
          <mxGeometry x="2145" y="1372" width="43" height="40" as="geometry" />
        </mxCell>
        <mxCell id="5fdbbbe72816c942-110" value="" style="shape=rect;fillColor=#ffffff;strokeColor=#000000;shadow=0;rounded=0;comic=0;fontFamily=Verdana;fontSize=12;align=center;html=1;" parent="5fdbbbe72816c942-1" vertex="1">
          <mxGeometry x="2068" y="1342" width="100" height="100" as="geometry" />
        </mxCell>
        <mxCell id="5fdbbbe72816c942-111" value="" style="verticalLabelPosition=bottom;html=1;verticalAlign=top;align=center;strokeWidth=1;shape=mxgraph.floorplan.plant;rounded=0;shadow=0;comic=0;fillColor=#FFFFFF;fontFamily=Verdana;fontSize=12;" parent="5fdbbbe72816c942-1" vertex="1">
          <mxGeometry x="1968" y="1390" width="47" height="51" as="geometry" />
        </mxCell>
        <mxCell id="5fdbbbe72816c942-112" value="" style="verticalLabelPosition=bottom;html=1;verticalAlign=top;align=center;strokeWidth=1;shape=mxgraph.floorplan.plant;rounded=0;shadow=0;comic=0;fillColor=#FFFFFF;fontFamily=Verdana;fontSize=12;" parent="5fdbbbe72816c942-1" vertex="1">
          <mxGeometry x="2256" y="1388" width="47" height="51" as="geometry" />
        </mxCell>
        <mxCell id="5fdbbbe72816c942-113" value="" style="group" parent="5fdbbbe72816c942-1" vertex="1" connectable="0">
          <mxGeometry x="2443" y="1372" width="80" height="70" as="geometry" />
        </mxCell>
        <mxCell id="5fdbbbe72816c942-114" value="" style="verticalLabelPosition=bottom;html=1;verticalAlign=top;align=center;strokeWidth=1;shape=mxgraph.floorplan.office_chair;fillColor=#ffffff;strokeColor=#000000;shadow=0;rounded=0;comic=0;fontFamily=Verdana;fontSize=12;" parent="5fdbbbe72816c942-113" vertex="1">
          <mxGeometry x="20" width="40" height="43" as="geometry" />
        </mxCell>
        <mxCell id="5fdbbbe72816c942-115" value="" style="shape=rect;fillColor=#ffffff;strokeColor=#000000;shadow=0;rounded=0;comic=0;fontFamily=Verdana;fontSize=12;align=center;html=1;" parent="5fdbbbe72816c942-113" vertex="1">
          <mxGeometry y="20" width="80" height="50" as="geometry" />
        </mxCell>
        <mxCell id="5fdbbbe72816c942-116" value="" style="verticalLabelPosition=bottom;html=1;verticalAlign=top;align=center;strokeWidth=1;shape=mxgraph.floorplan.workstation;fillColor=#ffffff;strokeColor=#000000;shadow=0;flipV=1;rounded=0;comic=0;fontFamily=Verdana;fontSize=12;" parent="5fdbbbe72816c942-113" vertex="1">
          <mxGeometry x="15" y="30" width="50" height="40" as="geometry" />
        </mxCell>
        <mxCell id="5fdbbbe72816c942-118" value="" style="verticalLabelPosition=bottom;html=1;verticalAlign=top;align=center;strokeWidth=1;shape=mxgraph.floorplan.plant;rounded=0;shadow=0;comic=0;fillColor=#FFFFFF;fontFamily=Verdana;fontSize=12;" parent="5fdbbbe72816c942-1" vertex="1">
          <mxGeometry x="2323" y="1387" width="47" height="51" as="geometry" />
        </mxCell>
        <mxCell id="5fdbbbe72816c942-122" value="" style="verticalLabelPosition=bottom;html=1;verticalAlign=top;align=center;strokeWidth=1;shape=mxgraph.floorplan.plant;rounded=0;shadow=0;comic=0;fillColor=#FFFFFF;fontFamily=Verdana;fontSize=12;" parent="5fdbbbe72816c942-1" vertex="1">
          <mxGeometry x="2546" y="1387" width="47" height="51" as="geometry" />
        </mxCell>
        <mxCell id="5fdbbbe72816c942-123" value="" style="verticalLabelPosition=bottom;html=1;verticalAlign=top;align=center;strokeWidth=1;shape=mxgraph.floorplan.dresser;rounded=0;shadow=0;comic=0;fillColor=#FFFFFF;fontFamily=Verdana;fontSize=12;rotation=0;" parent="5fdbbbe72816c942-1" vertex="1">
          <mxGeometry x="2430" y="1258" width="100" height="65" as="geometry" />
        </mxCell>
        <mxCell id="5fdbbbe72816c942-124" value="" style="verticalLabelPosition=bottom;html=1;verticalAlign=top;align=center;strokeWidth=1;shape=mxgraph.floorplan.dresser;rounded=0;shadow=0;comic=0;fillColor=#FFFFFF;fontFamily=Verdana;fontSize=12;rotation=0;" parent="5fdbbbe72816c942-1" vertex="1">
          <mxGeometry x="2654" y="1258" width="100" height="65" as="geometry" />
        </mxCell>
        <mxCell id="5fdbbbe72816c942-128" value="" style="verticalLabelPosition=bottom;html=1;verticalAlign=top;align=center;strokeWidth=1;shape=mxgraph.floorplan.office_chair;fillColor=#ffffff;strokeColor=#000000;shadow=0;rounded=0;comic=0;fontFamily=Verdana;fontSize=12;rotation=-90;" parent="5fdbbbe72816c942-1" vertex="1">
          <mxGeometry x="2776" y="1359" width="40" height="43" as="geometry" />
        </mxCell>
        <mxCell id="5fdbbbe72816c942-129" value="" style="shape=rect;fillColor=#ffffff;strokeColor=#000000;shadow=0;rounded=0;comic=0;fontFamily=Verdana;fontSize=12;align=center;html=1;rotation=-90;" parent="5fdbbbe72816c942-1" vertex="1">
          <mxGeometry x="2757" y="1355" width="124" height="50" as="geometry" />
        </mxCell>
        <mxCell id="5fdbbbe72816c942-130" value="" style="verticalLabelPosition=bottom;html=1;verticalAlign=top;align=center;strokeWidth=1;shape=mxgraph.floorplan.workstation;fillColor=#ffffff;strokeColor=#000000;shadow=0;flipV=1;rounded=0;comic=0;fontFamily=Verdana;fontSize=12;rotation=-90;" parent="5fdbbbe72816c942-1" vertex="1">
          <mxGeometry x="2799" y="1360" width="50" height="40" as="geometry" />
        </mxCell>
        <mxCell id="5fdbbbe72816c942-131" value="" style="verticalLabelPosition=bottom;html=1;verticalAlign=top;align=center;strokeWidth=1;shape=mxgraph.floorplan.plant;rounded=0;shadow=0;comic=0;fillColor=#FFFFFF;fontFamily=Verdana;fontSize=12;" parent="5fdbbbe72816c942-1" vertex="1">
          <mxGeometry x="2783" y="1262" width="47" height="51" as="geometry" />
        </mxCell>
        <mxCell id="5fdbbbe72816c942-133" value="" style="group" parent="5fdbbbe72816c942-1" vertex="1" connectable="0">
          <mxGeometry x="2768" y="1039" width="80" height="70" as="geometry" />
        </mxCell>
        <mxCell id="5fdbbbe72816c942-134" value="" style="group;rotation=-90;" parent="5fdbbbe72816c942-133" vertex="1" connectable="0">
          <mxGeometry width="80" height="70" as="geometry" />
        </mxCell>
        <mxCell id="5fdbbbe72816c942-135" value="" style="verticalLabelPosition=bottom;html=1;verticalAlign=top;align=center;strokeWidth=1;shape=mxgraph.floorplan.office_chair;fillColor=#ffffff;strokeColor=#000000;shadow=0;rounded=0;comic=0;fontFamily=Verdana;fontSize=12;rotation=-90;" parent="5fdbbbe72816c942-134" vertex="1">
          <mxGeometry x="7" y="14" width="40" height="43" as="geometry" />
        </mxCell>
        <mxCell id="5fdbbbe72816c942-136" value="" style="shape=rect;fillColor=#ffffff;strokeColor=#000000;shadow=0;rounded=0;comic=0;fontFamily=Verdana;fontSize=12;align=center;html=1;rotation=-90;" parent="5fdbbbe72816c942-134" vertex="1">
          <mxGeometry x="10" y="10" width="80" height="50" as="geometry" />
        </mxCell>
        <mxCell id="5fdbbbe72816c942-137" value="" style="verticalLabelPosition=bottom;html=1;verticalAlign=top;align=center;strokeWidth=1;shape=mxgraph.floorplan.workstation;fillColor=#ffffff;strokeColor=#000000;shadow=0;flipV=1;rounded=0;comic=0;fontFamily=Verdana;fontSize=12;rotation=-90;" parent="5fdbbbe72816c942-134" vertex="1">
          <mxGeometry x="30" y="15" width="50" height="40" as="geometry" />
        </mxCell>
        <mxCell id="5fdbbbe72816c942-139" value="" style="verticalLabelPosition=bottom;html=1;verticalAlign=top;align=center;strokeWidth=1;shape=mxgraph.floorplan.plant;rounded=0;shadow=0;comic=0;fillColor=#FFFFFF;fontFamily=Verdana;fontSize=12;" parent="5fdbbbe72816c942-1" vertex="1">
          <mxGeometry x="2793" y="1188" width="47" height="51" as="geometry" />
        </mxCell>
        <mxCell id="5fdbbbe72816c942-140" value="" style="verticalLabelPosition=bottom;html=1;verticalAlign=top;align=center;strokeWidth=1;shape=mxgraph.floorplan.dresser;rounded=0;shadow=0;comic=0;fillColor=#FFFFFF;fontFamily=Verdana;fontSize=12;rotation=-90;" parent="5fdbbbe72816c942-1" vertex="1">
          <mxGeometry x="2631" y="1051" width="100" height="65" as="geometry" />
        </mxCell>
        <mxCell id="5fdbbbe72816c942-143" value="" style="group" parent="5fdbbbe72816c942-1" vertex="1" connectable="0">
          <mxGeometry x="2768" y="819" width="80" height="70" as="geometry" />
        </mxCell>
        <mxCell id="5fdbbbe72816c942-144" value="" style="group;rotation=-90;" parent="5fdbbbe72816c942-143" vertex="1" connectable="0">
          <mxGeometry width="80" height="70" as="geometry" />
        </mxCell>
        <mxCell id="5fdbbbe72816c942-145" value="" style="verticalLabelPosition=bottom;html=1;verticalAlign=top;align=center;strokeWidth=1;shape=mxgraph.floorplan.office_chair;fillColor=#ffffff;strokeColor=#000000;shadow=0;rounded=0;comic=0;fontFamily=Verdana;fontSize=12;rotation=-90;" parent="5fdbbbe72816c942-144" vertex="1">
          <mxGeometry x="7" y="14" width="40" height="43" as="geometry" />
        </mxCell>
        <mxCell id="5fdbbbe72816c942-146" value="" style="shape=rect;fillColor=#ffffff;strokeColor=#000000;shadow=0;rounded=0;comic=0;fontFamily=Verdana;fontSize=12;align=center;html=1;rotation=-90;" parent="5fdbbbe72816c942-144" vertex="1">
          <mxGeometry x="10" y="10" width="80" height="50" as="geometry" />
        </mxCell>
        <mxCell id="5fdbbbe72816c942-147" value="" style="verticalLabelPosition=bottom;html=1;verticalAlign=top;align=center;strokeWidth=1;shape=mxgraph.floorplan.workstation;fillColor=#ffffff;strokeColor=#000000;shadow=0;flipV=1;rounded=0;comic=0;fontFamily=Verdana;fontSize=12;rotation=-90;" parent="5fdbbbe72816c942-144" vertex="1">
          <mxGeometry x="30" y="15" width="50" height="40" as="geometry" />
        </mxCell>
        <mxCell id="5fdbbbe72816c942-149" value="" style="verticalLabelPosition=bottom;html=1;verticalAlign=top;align=center;strokeWidth=1;shape=mxgraph.floorplan.plant;rounded=0;shadow=0;comic=0;fillColor=#FFFFFF;fontFamily=Verdana;fontSize=12;" parent="5fdbbbe72816c942-1" vertex="1">
          <mxGeometry x="2793" y="968" width="47" height="51" as="geometry" />
        </mxCell>
        <mxCell id="5fdbbbe72816c942-150" value="" style="verticalLabelPosition=bottom;html=1;verticalAlign=top;align=center;strokeWidth=1;shape=mxgraph.floorplan.dresser;rounded=0;shadow=0;comic=0;fillColor=#FFFFFF;fontFamily=Verdana;fontSize=12;rotation=-90;" parent="5fdbbbe72816c942-1" vertex="1">
          <mxGeometry x="2631" y="831" width="100" height="65" as="geometry" />
        </mxCell>
        <mxCell id="5fdbbbe72816c942-153" value="" style="group" parent="5fdbbbe72816c942-1" vertex="1" connectable="0">
          <mxGeometry x="2768" y="599" width="80" height="70" as="geometry" />
        </mxCell>
        <mxCell id="5fdbbbe72816c942-154" value="" style="group;rotation=-90;" parent="5fdbbbe72816c942-153" vertex="1" connectable="0">
          <mxGeometry width="80" height="70" as="geometry" />
        </mxCell>
        <mxCell id="5fdbbbe72816c942-155" value="" style="verticalLabelPosition=bottom;html=1;verticalAlign=top;align=center;strokeWidth=1;shape=mxgraph.floorplan.office_chair;fillColor=#ffffff;strokeColor=#000000;shadow=0;rounded=0;comic=0;fontFamily=Verdana;fontSize=12;rotation=-90;" parent="5fdbbbe72816c942-154" vertex="1">
          <mxGeometry x="7" y="14" width="40" height="43" as="geometry" />
        </mxCell>
        <mxCell id="5fdbbbe72816c942-156" value="" style="shape=rect;fillColor=#ffffff;strokeColor=#000000;shadow=0;rounded=0;comic=0;fontFamily=Verdana;fontSize=12;align=center;html=1;rotation=-90;" parent="5fdbbbe72816c942-154" vertex="1">
          <mxGeometry x="10" y="10" width="80" height="50" as="geometry" />
        </mxCell>
        <mxCell id="5fdbbbe72816c942-157" value="" style="verticalLabelPosition=bottom;html=1;verticalAlign=top;align=center;strokeWidth=1;shape=mxgraph.floorplan.workstation;fillColor=#ffffff;strokeColor=#000000;shadow=0;flipV=1;rounded=0;comic=0;fontFamily=Verdana;fontSize=12;rotation=-90;" parent="5fdbbbe72816c942-154" vertex="1">
          <mxGeometry x="30" y="15" width="50" height="40" as="geometry" />
        </mxCell>
        <mxCell id="5fdbbbe72816c942-159" value="" style="verticalLabelPosition=bottom;html=1;verticalAlign=top;align=center;strokeWidth=1;shape=mxgraph.floorplan.plant;rounded=0;shadow=0;comic=0;fillColor=#FFFFFF;fontFamily=Verdana;fontSize=12;" parent="5fdbbbe72816c942-1" vertex="1">
          <mxGeometry x="2793" y="748" width="47" height="51" as="geometry" />
        </mxCell>
        <mxCell id="5fdbbbe72816c942-160" value="" style="verticalLabelPosition=bottom;html=1;verticalAlign=top;align=center;strokeWidth=1;shape=mxgraph.floorplan.dresser;rounded=0;shadow=0;comic=0;fillColor=#FFFFFF;fontFamily=Verdana;fontSize=12;rotation=-90;" parent="5fdbbbe72816c942-1" vertex="1">
          <mxGeometry x="2631" y="611" width="100" height="65" as="geometry" />
        </mxCell>
        <mxCell id="5fdbbbe72816c942-163" value="" style="verticalLabelPosition=bottom;html=1;verticalAlign=top;align=center;strokeWidth=1;shape=mxgraph.floorplan.plant;rounded=0;shadow=0;comic=0;fillColor=#FFFFFF;fontFamily=Verdana;fontSize=12;" parent="5fdbbbe72816c942-1" vertex="1">
          <mxGeometry x="2793" y="527" width="47" height="51" as="geometry" />
        </mxCell>
        <mxCell id="5fdbbbe72816c942-164" value="" style="verticalLabelPosition=bottom;html=1;verticalAlign=top;align=center;strokeWidth=1;shape=mxgraph.floorplan.dresser;rounded=0;shadow=0;comic=0;fillColor=#FFFFFF;fontFamily=Verdana;fontSize=12;rotation=0;" parent="5fdbbbe72816c942-1" vertex="1">
          <mxGeometry x="2650" y="253" width="100" height="65" as="geometry" />
        </mxCell>
        <mxCell id="5fdbbbe72816c942-169" value="" style="group;rotation=90;" parent="5fdbbbe72816c942-1" vertex="1" connectable="0">
          <mxGeometry x="626" y="264" width="160" height="140" as="geometry" />
        </mxCell>
        <mxCell id="5fdbbbe72816c942-170" value="" style="verticalLabelPosition=bottom;html=1;verticalAlign=top;align=center;strokeWidth=1;shape=mxgraph.floorplan.office_chair;fillColor=#ffffff;strokeColor=#000000;shadow=0;rounded=0;comic=0;fontFamily=Verdana;fontSize=12;rotation=90;" parent="5fdbbbe72816c942-169" vertex="1">
          <mxGeometry x="109" y="19" width="40" height="43" as="geometry" />
        </mxCell>
        <mxCell id="5fdbbbe72816c942-171" value="" style="verticalLabelPosition=bottom;html=1;verticalAlign=top;align=center;strokeWidth=1;shape=mxgraph.floorplan.office_chair;fillColor=#ffffff;strokeColor=#000000;shadow=0;direction=west;rounded=0;comic=0;fontFamily=Verdana;fontSize=12;rotation=90;" parent="5fdbbbe72816c942-169" vertex="1">
          <mxGeometry x="12" y="19" width="40" height="43" as="geometry" />
        </mxCell>
        <mxCell id="5fdbbbe72816c942-172" value="" style="verticalLabelPosition=bottom;html=1;verticalAlign=top;align=center;strokeWidth=1;shape=mxgraph.floorplan.office_chair;fillColor=#ffffff;strokeColor=#000000;shadow=0;rounded=0;comic=0;fontFamily=Verdana;fontSize=12;rotation=90;" parent="5fdbbbe72816c942-169" vertex="1">
          <mxGeometry x="109" y="79" width="40" height="43" as="geometry" />
        </mxCell>
        <mxCell id="5fdbbbe72816c942-173" value="" style="verticalLabelPosition=bottom;html=1;verticalAlign=top;align=center;strokeWidth=1;shape=mxgraph.floorplan.office_chair;fillColor=#ffffff;strokeColor=#000000;shadow=0;direction=west;rounded=0;comic=0;fontFamily=Verdana;fontSize=12;rotation=90;" parent="5fdbbbe72816c942-169" vertex="1">
          <mxGeometry x="12" y="79" width="40" height="43" as="geometry" />
        </mxCell>
        <mxCell id="5fdbbbe72816c942-174" value="" style="shape=rect;fillColor=#ffffff;strokeColor=#000000;shadow=0;rounded=0;comic=0;fontFamily=Verdana;fontSize=12;align=center;html=1;rotation=90;" parent="5fdbbbe72816c942-169" vertex="1">
          <mxGeometry y="20" width="160" height="100" as="geometry" />
        </mxCell>
        <mxCell id="5fdbbbe72816c942-175" value="" style="verticalLabelPosition=bottom;html=1;verticalAlign=top;align=center;strokeWidth=1;shape=mxgraph.floorplan.office_chair;fillColor=#ffffff;strokeColor=#000000;shadow=0;rounded=0;comic=0;fontFamily=Verdana;fontSize=12;rotation=180;" parent="5fdbbbe72816c942-1" vertex="1">
          <mxGeometry x="476" y="281" width="40" height="43" as="geometry" />
        </mxCell>
        <mxCell id="5fdbbbe72816c942-176" value="" style="shape=rect;fillColor=#ffffff;strokeColor=#000000;shadow=0;rounded=0;comic=0;fontFamily=Verdana;fontSize=12;align=center;html=1;rotation=180;" parent="5fdbbbe72816c942-1" vertex="1">
          <mxGeometry x="404" y="253" width="187" height="50" as="geometry" />
        </mxCell>
        <mxCell id="5fdbbbe72816c942-177" value="" style="verticalLabelPosition=bottom;html=1;verticalAlign=top;align=center;strokeWidth=1;shape=mxgraph.floorplan.workstation;fillColor=#ffffff;strokeColor=#000000;shadow=0;flipV=1;rounded=0;comic=0;fontFamily=Verdana;fontSize=12;rotation=180;" parent="5fdbbbe72816c942-1" vertex="1">
          <mxGeometry x="471" y="253" width="50" height="40" as="geometry" />
        </mxCell>
        <mxCell id="5fdbbbe72816c942-178" value="" style="verticalLabelPosition=bottom;html=1;verticalAlign=top;align=center;strokeWidth=1;shape=mxgraph.floorplan.flat_tv;rounded=0;shadow=0;comic=0;fillColor=#FFFFFF;fontFamily=Verdana;fontSize=12;rotation=-35;" parent="5fdbbbe72816c942-1" vertex="1">
          <mxGeometry x="402" y="274" width="70" height="10" as="geometry" />
        </mxCell>
        <mxCell id="5fdbbbe72816c942-179" value="" style="verticalLabelPosition=bottom;html=1;verticalAlign=top;align=center;strokeWidth=1;shape=mxgraph.floorplan.flat_tv;rounded=0;shadow=0;comic=0;fillColor=#FFFFFF;fontFamily=Verdana;fontSize=12;rotation=30;" parent="5fdbbbe72816c942-1" vertex="1">
          <mxGeometry x="523" y="275" width="70" height="10" as="geometry" />
        </mxCell>
        <mxCell id="5fdbbbe72816c942-180" value="" style="group;rotation=-90;" parent="5fdbbbe72816c942-1" vertex="1" connectable="0">
          <mxGeometry x="344" y="477" width="191" height="71" as="geometry" />
        </mxCell>
        <mxCell id="5fdbbbe72816c942-181" value="" style="verticalLabelPosition=bottom;html=1;verticalAlign=top;align=center;strokeWidth=1;shape=mxgraph.floorplan.office_chair;fillColor=#ffffff;strokeColor=#000000;shadow=0;rounded=0;comic=0;fontFamily=Verdana;fontSize=12;rotation=90;" parent="5fdbbbe72816c942-180" vertex="1">
          <mxGeometry x="90" y="16" width="40" height="43" as="geometry" />
        </mxCell>
        <mxCell id="5fdbbbe72816c942-182" value="" style="shape=rect;fillColor=#ffffff;strokeColor=#000000;shadow=0;rounded=0;comic=0;fontFamily=Verdana;fontSize=12;align=center;html=1;rotation=90;" parent="5fdbbbe72816c942-180" vertex="1">
          <mxGeometry x="-8" y="11" width="187" height="50" as="geometry" />
        </mxCell>
        <mxCell id="5fdbbbe72816c942-183" value="" style="verticalLabelPosition=bottom;html=1;verticalAlign=top;align=center;strokeWidth=1;shape=mxgraph.floorplan.workstation;fillColor=#ffffff;strokeColor=#000000;shadow=0;flipV=1;rounded=0;comic=0;fontFamily=Verdana;fontSize=12;rotation=90;" parent="5fdbbbe72816c942-180" vertex="1">
          <mxGeometry x="55" y="17" width="50" height="40" as="geometry" />
        </mxCell>
        <mxCell id="5fdbbbe72816c942-184" value="" style="verticalLabelPosition=bottom;html=1;verticalAlign=top;align=center;strokeWidth=1;shape=mxgraph.floorplan.flat_tv;rounded=0;shadow=0;comic=0;fillColor=#FFFFFF;fontFamily=Verdana;fontSize=12;rotation=-125;" parent="5fdbbbe72816c942-180" vertex="1">
          <mxGeometry x="51" y="91" width="70" height="10" as="geometry" />
        </mxCell>
        <mxCell id="5fdbbbe72816c942-185" value="" style="verticalLabelPosition=bottom;html=1;verticalAlign=top;align=center;strokeWidth=1;shape=mxgraph.floorplan.flat_tv;rounded=0;shadow=0;comic=0;fillColor=#FFFFFF;fontFamily=Verdana;fontSize=12;rotation=-60;" parent="5fdbbbe72816c942-180" vertex="1">
          <mxGeometry x="52" y="-30" width="70" height="10" as="geometry" />
        </mxCell>
        <mxCell id="5fdbbbe72816c942-186" value="" style="verticalLabelPosition=bottom;html=1;verticalAlign=top;align=center;strokeWidth=1;shape=mxgraph.floorplan.plant;rounded=0;shadow=0;comic=0;fillColor=#FFFFFF;fontFamily=Verdana;fontSize=12;" parent="5fdbbbe72816c942-1" vertex="1">
          <mxGeometry x="405" y="345" width="47" height="51" as="geometry" />
        </mxCell>
        <mxCell id="5fdbbbe72816c942-187" value="" style="verticalLabelPosition=bottom;html=1;verticalAlign=top;align=center;strokeWidth=1;shape=mxgraph.floorplan.dresser;rounded=0;shadow=0;comic=0;fillColor=#FFFFFF;fontFamily=Verdana;fontSize=12;rotation=90;" parent="5fdbbbe72816c942-1" vertex="1">
          <mxGeometry x="509" y="379" width="100" height="65" as="geometry" />
        </mxCell>
        <mxCell id="5fdbbbe72816c942-188" value="" style="group;rotation=90;" parent="5fdbbbe72816c942-1" vertex="1" connectable="0">
          <mxGeometry x="1015" y="264" width="160" height="140" as="geometry" />
        </mxCell>
        <mxCell id="5fdbbbe72816c942-189" value="" style="verticalLabelPosition=bottom;html=1;verticalAlign=top;align=center;strokeWidth=1;shape=mxgraph.floorplan.office_chair;fillColor=#ffffff;strokeColor=#000000;shadow=0;rounded=0;comic=0;fontFamily=Verdana;fontSize=12;rotation=90;" parent="5fdbbbe72816c942-188" vertex="1">
          <mxGeometry x="109" y="19" width="40" height="43" as="geometry" />
        </mxCell>
        <mxCell id="5fdbbbe72816c942-190" value="" style="verticalLabelPosition=bottom;html=1;verticalAlign=top;align=center;strokeWidth=1;shape=mxgraph.floorplan.office_chair;fillColor=#ffffff;strokeColor=#000000;shadow=0;direction=west;rounded=0;comic=0;fontFamily=Verdana;fontSize=12;rotation=90;" parent="5fdbbbe72816c942-188" vertex="1">
          <mxGeometry x="12" y="19" width="40" height="43" as="geometry" />
        </mxCell>
        <mxCell id="5fdbbbe72816c942-191" value="" style="verticalLabelPosition=bottom;html=1;verticalAlign=top;align=center;strokeWidth=1;shape=mxgraph.floorplan.office_chair;fillColor=#ffffff;strokeColor=#000000;shadow=0;rounded=0;comic=0;fontFamily=Verdana;fontSize=12;rotation=90;" parent="5fdbbbe72816c942-188" vertex="1">
          <mxGeometry x="109" y="79" width="40" height="43" as="geometry" />
        </mxCell>
        <mxCell id="5fdbbbe72816c942-192" value="" style="verticalLabelPosition=bottom;html=1;verticalAlign=top;align=center;strokeWidth=1;shape=mxgraph.floorplan.office_chair;fillColor=#ffffff;strokeColor=#000000;shadow=0;direction=west;rounded=0;comic=0;fontFamily=Verdana;fontSize=12;rotation=90;" parent="5fdbbbe72816c942-188" vertex="1">
          <mxGeometry x="12" y="79" width="40" height="43" as="geometry" />
        </mxCell>
        <mxCell id="5fdbbbe72816c942-193" value="" style="shape=rect;fillColor=#ffffff;strokeColor=#000000;shadow=0;rounded=0;comic=0;fontFamily=Verdana;fontSize=12;align=center;html=1;rotation=90;" parent="5fdbbbe72816c942-188" vertex="1">
          <mxGeometry y="20" width="160" height="100" as="geometry" />
        </mxCell>
        <mxCell id="5fdbbbe72816c942-195" value="" style="verticalLabelPosition=bottom;html=1;verticalAlign=top;align=center;strokeWidth=1;shape=mxgraph.floorplan.office_chair;fillColor=#ffffff;strokeColor=#000000;shadow=0;rounded=0;comic=0;fontFamily=Verdana;fontSize=12;rotation=-90;" parent="5fdbbbe72816c942-1" vertex="1">
          <mxGeometry x="2774" y="358" width="40" height="43" as="geometry" />
        </mxCell>
        <mxCell id="5fdbbbe72816c942-196" value="" style="shape=rect;fillColor=#ffffff;strokeColor=#000000;shadow=0;rounded=0;comic=0;fontFamily=Verdana;fontSize=12;align=center;html=1;rotation=-90;" parent="5fdbbbe72816c942-1" vertex="1">
          <mxGeometry x="2750" y="360" width="135" height="50" as="geometry" />
        </mxCell>
        <mxCell id="5fdbbbe72816c942-197" value="" style="verticalLabelPosition=bottom;html=1;verticalAlign=top;align=center;strokeWidth=1;shape=mxgraph.floorplan.workstation;fillColor=#ffffff;strokeColor=#000000;shadow=0;flipV=1;rounded=0;comic=0;fontFamily=Verdana;fontSize=12;rotation=-90;" parent="5fdbbbe72816c942-1" vertex="1">
          <mxGeometry x="2797" y="359" width="50" height="40" as="geometry" />
        </mxCell>
        <mxCell id="5fdbbbe72816c942-198" value="" style="verticalLabelPosition=bottom;html=1;verticalAlign=top;align=center;strokeWidth=1;shape=mxgraph.floorplan.plant;rounded=0;shadow=0;comic=0;fillColor=#FFFFFF;fontFamily=Verdana;fontSize=12;" parent="5fdbbbe72816c942-1" vertex="1">
          <mxGeometry x="2791" y="256" width="47" height="51" as="geometry" />
        </mxCell>
        <mxCell id="5fdbbbe72816c942-200" value="" style="verticalLabelPosition=bottom;html=1;verticalAlign=top;align=center;strokeWidth=1;shape=mxgraph.floorplan.office_chair;fillColor=#ffffff;strokeColor=#000000;shadow=0;rounded=0;comic=0;fontFamily=Verdana;fontSize=12;" parent="5fdbbbe72816c942-1" vertex="1">
          <mxGeometry x="2525" y="297" width="40" height="43" as="geometry" />
        </mxCell>
        <mxCell id="5fdbbbe72816c942-201" value="" style="verticalLabelPosition=bottom;html=1;verticalAlign=top;align=center;strokeWidth=1;shape=mxgraph.floorplan.office_chair;fillColor=#ffffff;strokeColor=#000000;shadow=0;direction=west;rounded=0;comic=0;fontFamily=Verdana;fontSize=12;" parent="5fdbbbe72816c942-1" vertex="1">
          <mxGeometry x="2525" y="394" width="40" height="43" as="geometry" />
        </mxCell>
        <mxCell id="5fdbbbe72816c942-202" value="" style="verticalLabelPosition=bottom;html=1;verticalAlign=top;align=center;strokeWidth=1;shape=mxgraph.floorplan.office_chair;fillColor=#ffffff;strokeColor=#000000;shadow=0;direction=north;rounded=0;comic=0;fontFamily=Verdana;fontSize=12;" parent="5fdbbbe72816c942-1" vertex="1">
          <mxGeometry x="2475" y="347" width="43" height="40" as="geometry" />
        </mxCell>
        <mxCell id="5fdbbbe72816c942-203" value="" style="verticalLabelPosition=bottom;html=1;verticalAlign=top;align=center;strokeWidth=1;shape=mxgraph.floorplan.office_chair;fillColor=#ffffff;strokeColor=#000000;shadow=0;direction=south;rounded=0;comic=0;fontFamily=Verdana;fontSize=12;" parent="5fdbbbe72816c942-1" vertex="1">
          <mxGeometry x="2572" y="347" width="43" height="40" as="geometry" />
        </mxCell>
        <mxCell id="5fdbbbe72816c942-204" value="" style="shape=rect;fillColor=#ffffff;strokeColor=#000000;shadow=0;rounded=0;comic=0;fontFamily=Verdana;fontSize=12;align=center;html=1;" parent="5fdbbbe72816c942-1" vertex="1">
          <mxGeometry x="2495" y="317" width="100" height="100" as="geometry" />
        </mxCell>
        <mxCell id="5fdbbbe72816c942-206" value="" style="verticalLabelPosition=bottom;html=1;verticalAlign=top;align=center;strokeWidth=1;shape=mxgraph.floorplan.plant;rounded=0;shadow=0;comic=0;fillColor=#FFFFFF;fontFamily=Verdana;fontSize=12;" parent="5fdbbbe72816c942-1" vertex="1">
          <mxGeometry x="2416" y="258" width="47" height="51" as="geometry" />
        </mxCell>
        <mxCell id="5fdbbbe72816c942-212" value="" style="group;rotation=90;" parent="5fdbbbe72816c942-1" vertex="1" connectable="0">
          <mxGeometry x="2104" y="273" width="80" height="70" as="geometry" />
        </mxCell>
        <mxCell id="5fdbbbe72816c942-213" value="" style="verticalLabelPosition=bottom;html=1;verticalAlign=top;align=center;strokeWidth=1;shape=mxgraph.floorplan.office_chair;fillColor=#ffffff;strokeColor=#000000;shadow=0;rounded=0;comic=0;fontFamily=Verdana;fontSize=12;rotation=90;" parent="5fdbbbe72816c942-212" vertex="1">
          <mxGeometry x="35" y="14" width="40" height="43" as="geometry" />
        </mxCell>
        <mxCell id="5fdbbbe72816c942-214" value="" style="shape=rect;fillColor=#ffffff;strokeColor=#000000;shadow=0;rounded=0;comic=0;fontFamily=Verdana;fontSize=12;align=center;html=1;rotation=90;" parent="5fdbbbe72816c942-212" vertex="1">
          <mxGeometry x="-10" y="10" width="80" height="50" as="geometry" />
        </mxCell>
        <mxCell id="5fdbbbe72816c942-215" value="" style="verticalLabelPosition=bottom;html=1;verticalAlign=top;align=center;strokeWidth=1;shape=mxgraph.floorplan.workstation;fillColor=#ffffff;strokeColor=#000000;shadow=0;flipV=1;rounded=0;comic=0;fontFamily=Verdana;fontSize=12;rotation=90;" parent="5fdbbbe72816c942-212" vertex="1">
          <mxGeometry y="15" width="50" height="40" as="geometry" />
        </mxCell>
        <mxCell id="5fdbbbe72816c942-216" value="" style="verticalLabelPosition=bottom;html=1;verticalAlign=top;align=center;strokeWidth=1;shape=mxgraph.floorplan.dresser;rounded=0;shadow=0;comic=0;fillColor=#FFFFFF;fontFamily=Verdana;fontSize=12;rotation=-90;" parent="5fdbbbe72816c942-1" vertex="1">
          <mxGeometry x="2091" y="400" width="100" height="65" as="geometry" />
        </mxCell>
        <mxCell id="5fdbbbe72816c942-217" value="" style="verticalLabelPosition=bottom;html=1;verticalAlign=top;align=center;strokeWidth=1;shape=mxgraph.floorplan.plant;rounded=0;shadow=0;comic=0;fillColor=#FFFFFF;fontFamily=Verdana;fontSize=12;" parent="5fdbbbe72816c942-1" vertex="1">
          <mxGeometry x="2261" y="260" width="47" height="51" as="geometry" />
        </mxCell>
        <mxCell id="5fdbbbe72816c942-221" value="" style="group;rotation=90;" parent="5fdbbbe72816c942-1" vertex="1" connectable="0">
          <mxGeometry x="1884" y="273" width="80" height="70" as="geometry" />
        </mxCell>
        <mxCell id="5fdbbbe72816c942-222" value="" style="verticalLabelPosition=bottom;html=1;verticalAlign=top;align=center;strokeWidth=1;shape=mxgraph.floorplan.office_chair;fillColor=#ffffff;strokeColor=#000000;shadow=0;rounded=0;comic=0;fontFamily=Verdana;fontSize=12;rotation=90;" parent="5fdbbbe72816c942-221" vertex="1">
          <mxGeometry x="35" y="14" width="40" height="43" as="geometry" />
        </mxCell>
        <mxCell id="5fdbbbe72816c942-223" value="" style="shape=rect;fillColor=#ffffff;strokeColor=#000000;shadow=0;rounded=0;comic=0;fontFamily=Verdana;fontSize=12;align=center;html=1;rotation=90;" parent="5fdbbbe72816c942-221" vertex="1">
          <mxGeometry x="-10" y="10" width="80" height="50" as="geometry" />
        </mxCell>
        <mxCell id="5fdbbbe72816c942-224" value="" style="verticalLabelPosition=bottom;html=1;verticalAlign=top;align=center;strokeWidth=1;shape=mxgraph.floorplan.workstation;fillColor=#ffffff;strokeColor=#000000;shadow=0;flipV=1;rounded=0;comic=0;fontFamily=Verdana;fontSize=12;rotation=90;" parent="5fdbbbe72816c942-221" vertex="1">
          <mxGeometry y="15" width="50" height="40" as="geometry" />
        </mxCell>
        <mxCell id="5fdbbbe72816c942-225" value="" style="verticalLabelPosition=bottom;html=1;verticalAlign=top;align=center;strokeWidth=1;shape=mxgraph.floorplan.dresser;rounded=0;shadow=0;comic=0;fillColor=#FFFFFF;fontFamily=Verdana;fontSize=12;rotation=-90;" parent="5fdbbbe72816c942-1" vertex="1">
          <mxGeometry x="1871" y="400" width="100" height="65" as="geometry" />
        </mxCell>
        <mxCell id="5fdbbbe72816c942-226" value="" style="verticalLabelPosition=bottom;html=1;verticalAlign=top;align=center;strokeWidth=1;shape=mxgraph.floorplan.plant;rounded=0;shadow=0;comic=0;fillColor=#FFFFFF;fontFamily=Verdana;fontSize=12;" parent="5fdbbbe72816c942-1" vertex="1">
          <mxGeometry x="2041" y="260" width="47" height="51" as="geometry" />
        </mxCell>
        <mxCell id="5fdbbbe72816c942-230" value="" style="group;rotation=90;" parent="5fdbbbe72816c942-1" vertex="1" connectable="0">
          <mxGeometry x="1664" y="273" width="80" height="70" as="geometry" />
        </mxCell>
        <mxCell id="5fdbbbe72816c942-231" value="" style="verticalLabelPosition=bottom;html=1;verticalAlign=top;align=center;strokeWidth=1;shape=mxgraph.floorplan.office_chair;fillColor=#ffffff;strokeColor=#000000;shadow=0;rounded=0;comic=0;fontFamily=Verdana;fontSize=12;rotation=90;" parent="5fdbbbe72816c942-230" vertex="1">
          <mxGeometry x="35" y="14" width="40" height="43" as="geometry" />
        </mxCell>
        <mxCell id="5fdbbbe72816c942-232" value="" style="shape=rect;fillColor=#ffffff;strokeColor=#000000;shadow=0;rounded=0;comic=0;fontFamily=Verdana;fontSize=12;align=center;html=1;rotation=90;" parent="5fdbbbe72816c942-230" vertex="1">
          <mxGeometry x="-10" y="10" width="80" height="50" as="geometry" />
        </mxCell>
        <mxCell id="5fdbbbe72816c942-233" value="" style="verticalLabelPosition=bottom;html=1;verticalAlign=top;align=center;strokeWidth=1;shape=mxgraph.floorplan.workstation;fillColor=#ffffff;strokeColor=#000000;shadow=0;flipV=1;rounded=0;comic=0;fontFamily=Verdana;fontSize=12;rotation=90;" parent="5fdbbbe72816c942-230" vertex="1">
          <mxGeometry y="15" width="50" height="40" as="geometry" />
        </mxCell>
        <mxCell id="5fdbbbe72816c942-234" value="" style="verticalLabelPosition=bottom;html=1;verticalAlign=top;align=center;strokeWidth=1;shape=mxgraph.floorplan.dresser;rounded=0;shadow=0;comic=0;fillColor=#FFFFFF;fontFamily=Verdana;fontSize=12;rotation=-90;" parent="5fdbbbe72816c942-1" vertex="1">
          <mxGeometry x="1651" y="400" width="100" height="65" as="geometry" />
        </mxCell>
        <mxCell id="5fdbbbe72816c942-235" value="" style="verticalLabelPosition=bottom;html=1;verticalAlign=top;align=center;strokeWidth=1;shape=mxgraph.floorplan.plant;rounded=0;shadow=0;comic=0;fillColor=#FFFFFF;fontFamily=Verdana;fontSize=12;" parent="5fdbbbe72816c942-1" vertex="1">
          <mxGeometry x="1821" y="260" width="47" height="51" as="geometry" />
        </mxCell>
        <mxCell id="5fdbbbe72816c942-239" value="" style="group;rotation=90;" parent="5fdbbbe72816c942-1" vertex="1" connectable="0">
          <mxGeometry x="1444" y="273" width="80" height="70" as="geometry" />
        </mxCell>
        <mxCell id="5fdbbbe72816c942-240" value="" style="verticalLabelPosition=bottom;html=1;verticalAlign=top;align=center;strokeWidth=1;shape=mxgraph.floorplan.office_chair;fillColor=#ffffff;strokeColor=#000000;shadow=0;rounded=0;comic=0;fontFamily=Verdana;fontSize=12;rotation=90;" parent="5fdbbbe72816c942-239" vertex="1">
          <mxGeometry x="35" y="14" width="40" height="43" as="geometry" />
        </mxCell>
        <mxCell id="5fdbbbe72816c942-241" value="" style="shape=rect;fillColor=#ffffff;strokeColor=#000000;shadow=0;rounded=0;comic=0;fontFamily=Verdana;fontSize=12;align=center;html=1;rotation=90;" parent="5fdbbbe72816c942-239" vertex="1">
          <mxGeometry x="-10" y="10" width="80" height="50" as="geometry" />
        </mxCell>
        <mxCell id="5fdbbbe72816c942-242" value="" style="verticalLabelPosition=bottom;html=1;verticalAlign=top;align=center;strokeWidth=1;shape=mxgraph.floorplan.workstation;fillColor=#ffffff;strokeColor=#000000;shadow=0;flipV=1;rounded=0;comic=0;fontFamily=Verdana;fontSize=12;rotation=90;" parent="5fdbbbe72816c942-239" vertex="1">
          <mxGeometry y="15" width="50" height="40" as="geometry" />
        </mxCell>
        <mxCell id="5fdbbbe72816c942-243" value="" style="verticalLabelPosition=bottom;html=1;verticalAlign=top;align=center;strokeWidth=1;shape=mxgraph.floorplan.dresser;rounded=0;shadow=0;comic=0;fillColor=#FFFFFF;fontFamily=Verdana;fontSize=12;rotation=-90;" parent="5fdbbbe72816c942-1" vertex="1">
          <mxGeometry x="1431" y="400" width="100" height="65" as="geometry" />
        </mxCell>
        <mxCell id="5fdbbbe72816c942-244" value="" style="verticalLabelPosition=bottom;html=1;verticalAlign=top;align=center;strokeWidth=1;shape=mxgraph.floorplan.plant;rounded=0;shadow=0;comic=0;fillColor=#FFFFFF;fontFamily=Verdana;fontSize=12;" parent="5fdbbbe72816c942-1" vertex="1">
          <mxGeometry x="1601" y="260" width="47" height="51" as="geometry" />
        </mxCell>
        <mxCell id="5fdbbbe72816c942-248" value="" style="group;rotation=90;" parent="5fdbbbe72816c942-1" vertex="1" connectable="0">
          <mxGeometry x="1223" y="273" width="80" height="70" as="geometry" />
        </mxCell>
        <mxCell id="5fdbbbe72816c942-249" value="" style="verticalLabelPosition=bottom;html=1;verticalAlign=top;align=center;strokeWidth=1;shape=mxgraph.floorplan.office_chair;fillColor=#ffffff;strokeColor=#000000;shadow=0;rounded=0;comic=0;fontFamily=Verdana;fontSize=12;rotation=90;" parent="5fdbbbe72816c942-248" vertex="1">
          <mxGeometry x="35" y="14" width="40" height="43" as="geometry" />
        </mxCell>
        <mxCell id="5fdbbbe72816c942-250" value="" style="shape=rect;fillColor=#ffffff;strokeColor=#000000;shadow=0;rounded=0;comic=0;fontFamily=Verdana;fontSize=12;align=center;html=1;rotation=90;" parent="5fdbbbe72816c942-248" vertex="1">
          <mxGeometry x="-10" y="10" width="80" height="50" as="geometry" />
        </mxCell>
        <mxCell id="5fdbbbe72816c942-251" value="" style="verticalLabelPosition=bottom;html=1;verticalAlign=top;align=center;strokeWidth=1;shape=mxgraph.floorplan.workstation;fillColor=#ffffff;strokeColor=#000000;shadow=0;flipV=1;rounded=0;comic=0;fontFamily=Verdana;fontSize=12;rotation=90;" parent="5fdbbbe72816c942-248" vertex="1">
          <mxGeometry y="15" width="50" height="40" as="geometry" />
        </mxCell>
        <mxCell id="5fdbbbe72816c942-252" value="" style="verticalLabelPosition=bottom;html=1;verticalAlign=top;align=center;strokeWidth=1;shape=mxgraph.floorplan.dresser;rounded=0;shadow=0;comic=0;fillColor=#FFFFFF;fontFamily=Verdana;fontSize=12;rotation=-90;" parent="5fdbbbe72816c942-1" vertex="1">
          <mxGeometry x="1210" y="400" width="100" height="65" as="geometry" />
        </mxCell>
        <mxCell id="5fdbbbe72816c942-253" value="" style="verticalLabelPosition=bottom;html=1;verticalAlign=top;align=center;strokeWidth=1;shape=mxgraph.floorplan.plant;rounded=0;shadow=0;comic=0;fillColor=#FFFFFF;fontFamily=Verdana;fontSize=12;" parent="5fdbbbe72816c942-1" vertex="1">
          <mxGeometry x="1380" y="260" width="47" height="51" as="geometry" />
        </mxCell>
        <mxCell id="5fdbbbe72816c942-287" value="" style="verticalLabelPosition=bottom;html=1;verticalAlign=top;align=center;strokeWidth=1;shape=mxgraph.floorplan.chair;fillColor=#ffffff;strokeColor=#000000;shadow=0;rounded=0;comic=0;fontFamily=Verdana;fontSize=12;" parent="5fdbbbe72816c942-1" vertex="1">
          <mxGeometry x="1974" y="680" width="40" height="52" as="geometry" />
        </mxCell>
        <mxCell id="5fdbbbe72816c942-288" value="" style="verticalLabelPosition=bottom;html=1;verticalAlign=top;align=center;strokeWidth=1;shape=mxgraph.floorplan.chair;fillColor=#ffffff;strokeColor=#000000;shadow=0;direction=west;rounded=0;comic=0;fontFamily=Verdana;fontSize=12;" parent="5fdbbbe72816c942-1" vertex="1">
          <mxGeometry x="1974" y="768" width="40" height="52" as="geometry" />
        </mxCell>
        <mxCell id="5fdbbbe72816c942-289" value="" style="verticalLabelPosition=bottom;html=1;verticalAlign=top;align=center;strokeWidth=1;shape=mxgraph.floorplan.chair;fillColor=#ffffff;strokeColor=#000000;shadow=0;direction=north;rounded=0;comic=0;fontFamily=Verdana;fontSize=12;" parent="5fdbbbe72816c942-1" vertex="1">
          <mxGeometry x="1924" y="730" width="52" height="40" as="geometry" />
        </mxCell>
        <mxCell id="5fdbbbe72816c942-290" value="" style="verticalLabelPosition=bottom;html=1;verticalAlign=top;align=center;strokeWidth=1;shape=mxgraph.floorplan.chair;fillColor=#ffffff;strokeColor=#000000;shadow=0;direction=south;rounded=0;comic=0;fontFamily=Verdana;fontSize=12;" parent="5fdbbbe72816c942-1" vertex="1">
          <mxGeometry x="2012" y="730" width="52" height="40" as="geometry" />
        </mxCell>
        <mxCell id="5fdbbbe72816c942-291" value="" style="shape=ellipse;fillColor=#ffffff;strokeColor=#000000;shadow=0;rounded=0;comic=0;fontFamily=Verdana;fontSize=12;align=center;html=1;" parent="5fdbbbe72816c942-1" vertex="1">
          <mxGeometry x="1944" y="700" width="100" height="100" as="geometry" />
        </mxCell>
        <mxCell id="5fdbbbe72816c942-292" value="" style="verticalLabelPosition=bottom;html=1;verticalAlign=top;align=center;strokeWidth=1;shape=mxgraph.floorplan.chair;fillColor=#ffffff;strokeColor=#000000;shadow=0;rounded=0;comic=0;fontFamily=Verdana;fontSize=12;" parent="5fdbbbe72816c942-1" vertex="1">
          <mxGeometry x="1969" y="869" width="40" height="52" as="geometry" />
        </mxCell>
        <mxCell id="5fdbbbe72816c942-293" value="" style="verticalLabelPosition=bottom;html=1;verticalAlign=top;align=center;strokeWidth=1;shape=mxgraph.floorplan.chair;fillColor=#ffffff;strokeColor=#000000;shadow=0;direction=west;rounded=0;comic=0;fontFamily=Verdana;fontSize=12;" parent="5fdbbbe72816c942-1" vertex="1">
          <mxGeometry x="1969" y="957" width="40" height="52" as="geometry" />
        </mxCell>
        <mxCell id="5fdbbbe72816c942-294" value="" style="verticalLabelPosition=bottom;html=1;verticalAlign=top;align=center;strokeWidth=1;shape=mxgraph.floorplan.chair;fillColor=#ffffff;strokeColor=#000000;shadow=0;direction=north;rounded=0;comic=0;fontFamily=Verdana;fontSize=12;" parent="5fdbbbe72816c942-1" vertex="1">
          <mxGeometry x="1919" y="919" width="52" height="40" as="geometry" />
        </mxCell>
        <mxCell id="5fdbbbe72816c942-295" value="" style="verticalLabelPosition=bottom;html=1;verticalAlign=top;align=center;strokeWidth=1;shape=mxgraph.floorplan.chair;fillColor=#ffffff;strokeColor=#000000;shadow=0;direction=south;rounded=0;comic=0;fontFamily=Verdana;fontSize=12;" parent="5fdbbbe72816c942-1" vertex="1">
          <mxGeometry x="2007" y="919" width="52" height="40" as="geometry" />
        </mxCell>
        <mxCell id="5fdbbbe72816c942-296" value="" style="shape=ellipse;fillColor=#ffffff;strokeColor=#000000;shadow=0;rounded=0;comic=0;fontFamily=Verdana;fontSize=12;align=center;html=1;" parent="5fdbbbe72816c942-1" vertex="1">
          <mxGeometry x="1939" y="889" width="100" height="100" as="geometry" />
        </mxCell>
        <mxCell id="5fdbbbe72816c942-297" value="" style="verticalLabelPosition=bottom;html=1;verticalAlign=top;align=center;strokeWidth=1;shape=mxgraph.floorplan.refrigerator;rounded=0;shadow=0;comic=0;fillColor=#FFFFFF;fontFamily=Verdana;fontSize=12;rotation=90;flipV=0;flipH=1;" parent="5fdbbbe72816c942-1" vertex="1">
          <mxGeometry x="2423" y="702" width="60" height="62" as="geometry" />
        </mxCell>
        <mxCell id="5fdbbbe72816c942-298" value="" style="verticalLabelPosition=bottom;html=1;verticalAlign=top;align=center;strokeWidth=1;shape=mxgraph.floorplan.refrigerator;rounded=0;shadow=0;comic=0;fillColor=#FFFFFF;fontFamily=Verdana;fontSize=12;rotation=90;" parent="5fdbbbe72816c942-1" vertex="1">
          <mxGeometry x="2423" y="642" width="60" height="62" as="geometry" />
        </mxCell>
        <mxCell id="5fdbbbe72816c942-299" value="" style="verticalLabelPosition=bottom;html=1;verticalAlign=top;align=center;strokeWidth=1;shape=mxgraph.floorplan.range_2;rounded=0;shadow=0;comic=0;fillColor=#FFFFFF;fontFamily=Verdana;fontSize=12;rotation=90;" parent="5fdbbbe72816c942-1" vertex="1">
          <mxGeometry x="2416" y="771" width="75" height="62" as="geometry" />
        </mxCell>
        <mxCell id="5fdbbbe72816c942-301" value="" style="verticalLabelPosition=bottom;html=1;verticalAlign=top;align=center;strokeWidth=1;shape=mxgraph.floorplan.dresser;rounded=0;shadow=0;comic=0;fillColor=#FFFFFF;fontFamily=Verdana;fontSize=12;flipV=1;" parent="5fdbbbe72816c942-1" vertex="1">
          <mxGeometry x="2192" y="872" width="100" height="65" as="geometry" />
        </mxCell>
        <UserObject label="Furniture" link="data:action/json,{&quot;actions&quot;:[{&quot;toggle&quot;: {&quot;cells&quot;: [&quot;5fdbbbe72816c942-1&quot;]}}]}" id="5fdbbbe72816c942-1761">
          <mxCell style="rounded=1;whiteSpace=wrap;html=1;strokeWidth=3;fillColor=#e1d5e7;fontColor=#000000;strokeColor=#9673a6;fontSize=28;verticalAlign=middle;" parent="5fdbbbe72816c942-1" vertex="1">
            <mxGeometry x="413.5" y="1565" width="227" height="60" as="geometry" />
          </mxCell>
        </UserObject>
        <object label="Plumbing" id="5fdbbbe72816c942-1278">
          <mxCell style="locked=1;" parent="0" />
        </object>
        <mxCell id="5fdbbbe72816c942-1393" value="" style="verticalLabelPosition=bottom;html=1;verticalAlign=top;align=center;strokeWidth=1;shape=mxgraph.floorplan.toilet;rounded=0;shadow=0;comic=0;fillColor=#d5e8d4;fontFamily=Verdana;fontSize=12;rotation=-90;strokeColor=#82b366;" parent="5fdbbbe72816c942-1278" vertex="1">
          <mxGeometry x="1387" y="654" width="50" height="67" as="geometry" />
        </mxCell>
        <mxCell id="5fdbbbe72816c942-1395" value="" style="verticalLabelPosition=bottom;html=1;verticalAlign=top;align=center;strokeWidth=1;shape=mxgraph.floorplan.toilet;rounded=0;shadow=0;comic=0;fillColor=#d5e8d4;fontFamily=Verdana;fontSize=12;rotation=-90;strokeColor=#82b366;" parent="5fdbbbe72816c942-1278" vertex="1">
          <mxGeometry x="1389" y="752" width="50" height="67" as="geometry" />
        </mxCell>
        <mxCell id="5fdbbbe72816c942-1402" value="" style="verticalLabelPosition=bottom;html=1;verticalAlign=top;align=center;strokeWidth=1;shape=mxgraph.floorplan.sink_2;rounded=0;shadow=0;comic=0;fillColor=#dae8fc;fontFamily=Verdana;fontSize=12;rotation=90;strokeColor=#6c8ebf;" parent="5fdbbbe72816c942-1278" vertex="1">
          <mxGeometry x="1648" y="649" width="40" height="35" as="geometry" />
        </mxCell>
        <mxCell id="5fdbbbe72816c942-1403" value="" style="verticalLabelPosition=bottom;html=1;verticalAlign=top;align=center;strokeWidth=1;shape=mxgraph.floorplan.sink_2;rounded=0;shadow=0;comic=0;fillColor=#dae8fc;fontFamily=Verdana;fontSize=12;rotation=90;strokeColor=#6c8ebf;" parent="5fdbbbe72816c942-1278" vertex="1">
          <mxGeometry x="1648" y="693" width="40" height="35" as="geometry" />
        </mxCell>
        <mxCell id="5fdbbbe72816c942-1413" value="" style="verticalLabelPosition=bottom;html=1;verticalAlign=top;align=center;strokeWidth=1;shape=mxgraph.floorplan.toilet;rounded=0;shadow=0;comic=0;fillColor=#d5e8d4;fontFamily=Verdana;fontSize=12;rotation=-90;strokeColor=#82b366;" parent="5fdbbbe72816c942-1278" vertex="1">
          <mxGeometry x="1389" y="850" width="50" height="67" as="geometry" />
        </mxCell>
        <mxCell id="5fdbbbe72816c942-1414" value="" style="verticalLabelPosition=bottom;html=1;verticalAlign=top;align=center;strokeWidth=1;shape=mxgraph.floorplan.toilet;rounded=0;shadow=0;comic=0;fillColor=#d5e8d4;fontFamily=Verdana;fontSize=12;rotation=-90;strokeColor=#82b366;" parent="5fdbbbe72816c942-1278" vertex="1">
          <mxGeometry x="1389" y="949" width="50" height="67" as="geometry" />
        </mxCell>
        <mxCell id="5fdbbbe72816c942-1415" value="" style="verticalLabelPosition=bottom;html=1;verticalAlign=top;align=center;strokeWidth=1;shape=mxgraph.floorplan.sink_2;rounded=0;shadow=0;comic=0;fillColor=#dae8fc;fontFamily=Verdana;fontSize=12;rotation=90;strokeColor=#6c8ebf;" parent="5fdbbbe72816c942-1278" vertex="1">
          <mxGeometry x="1648" y="942" width="40" height="35" as="geometry" />
        </mxCell>
        <mxCell id="5fdbbbe72816c942-1416" value="" style="verticalLabelPosition=bottom;html=1;verticalAlign=top;align=center;strokeWidth=1;shape=mxgraph.floorplan.sink_2;rounded=0;shadow=0;comic=0;fillColor=#dae8fc;fontFamily=Verdana;fontSize=12;rotation=90;strokeColor=#6c8ebf;" parent="5fdbbbe72816c942-1278" vertex="1">
          <mxGeometry x="1648" y="986" width="40" height="35" as="geometry" />
        </mxCell>
        <mxCell id="5fdbbbe72816c942-1433" value="" style="verticalLabelPosition=bottom;html=1;verticalAlign=top;align=center;strokeWidth=1;shape=mxgraph.floorplan.sink_double;rounded=0;shadow=0;comic=0;fillColor=#dae8fc;fontFamily=Verdana;fontSize=12;flipV=1;strokeColor=#6c8ebf;" parent="5fdbbbe72816c942-1278" vertex="1">
          <mxGeometry x="2292" y="888" width="80" height="35" as="geometry" />
        </mxCell>
        <mxCell id="5fdbbbe72816c942-1439" value="" style="verticalLabelPosition=bottom;html=1;verticalAlign=top;align=center;strokeWidth=1;shape=mxgraph.floorplan.sink_1;rounded=0;shadow=0;comic=0;fillColor=#dae8fc;fontFamily=Verdana;fontSize=12;rotation=90;strokeColor=#6c8ebf;" parent="5fdbbbe72816c942-1278" vertex="1">
          <mxGeometry x="2447" y="961" width="40" height="35" as="geometry" />
        </mxCell>
        <mxCell id="5fdbbbe72816c942-1446" value="" style="verticalLabelPosition=bottom;html=1;verticalAlign=top;align=center;strokeWidth=1;shape=mxgraph.floorplan.toilet;rounded=0;shadow=0;comic=0;fillColor=#d5e8d4;fontFamily=Verdana;fontSize=12;rotation=-90;strokeColor=#82b366;" parent="5fdbbbe72816c942-1278" vertex="1">
          <mxGeometry x="2892.5" y="338" width="50" height="67" as="geometry" />
        </mxCell>
        <mxCell id="5fdbbbe72816c942-1447" value="" style="verticalLabelPosition=bottom;html=1;verticalAlign=top;align=center;strokeWidth=1;shape=mxgraph.floorplan.sink_double;rounded=0;shadow=0;comic=0;fillColor=#dae8fc;fontFamily=Verdana;fontSize=12;flipV=1;strokeColor=#6c8ebf;" parent="5fdbbbe72816c942-1278" vertex="1">
          <mxGeometry x="2880" y="477.5" width="80" height="35" as="geometry" />
        </mxCell>
        <mxCell id="5fdbbbe72816c942-1453" value="" style="endArrow=none;html=1;strokeColor=#82b366;strokeWidth=3;fillColor=#d5e8d4;shape=link;" parent="5fdbbbe72816c942-1278" edge="1">
          <mxGeometry width="50" height="50" relative="1" as="geometry">
            <mxPoint x="2960" y="417" as="sourcePoint" />
            <mxPoint x="2879.5" y="416.5" as="targetPoint" />
          </mxGeometry>
        </mxCell>
        <mxCell id="5fdbbbe72816c942-1458" style="edgeStyle=orthogonalEdgeStyle;shape=link;curved=1;html=1;endArrow=none;endFill=0;jettySize=auto;orthogonalLoop=1;strokeColor=#82b366;strokeWidth=3;fillColor=#d5e8d4;" parent="5fdbbbe72816c942-1278" source="5fdbbbe72816c942-1415" target="5fdbbbe72816c942-1416" edge="1">
          <mxGeometry relative="1" as="geometry" />
        </mxCell>
        <mxCell id="5fdbbbe72816c942-1461" value="Drainage - sewage pipes" style="text;html=1;resizable=0;points=[];autosize=1;align=left;verticalAlign=top;spacingTop=-4;" parent="5fdbbbe72816c942-1278" vertex="1">
          <mxGeometry x="2982" y="409" width="150" height="20" as="geometry" />
        </mxCell>
        <mxCell id="5fdbbbe72816c942-1462" value="" style="verticalLabelPosition=bottom;html=1;verticalAlign=top;align=center;strokeWidth=1;shape=mxgraph.floorplan.sink_2;rounded=0;shadow=0;comic=0;fillColor=#dae8fc;fontFamily=Verdana;fontSize=12;rotation=90;strokeColor=#6c8ebf;" parent="5fdbbbe72816c942-1278" vertex="1">
          <mxGeometry x="2877.5" y="531.5" width="40" height="35" as="geometry" />
        </mxCell>
        <mxCell id="5fdbbbe72816c942-1463" value="" style="verticalLabelPosition=bottom;html=1;verticalAlign=top;align=center;strokeWidth=1;shape=mxgraph.floorplan.sink_1;rounded=0;shadow=0;comic=0;fillColor=#dae8fc;fontFamily=Verdana;fontSize=12;rotation=90;strokeColor=#6c8ebf;" parent="5fdbbbe72816c942-1278" vertex="1">
          <mxGeometry x="2922.5" y="531.5" width="40" height="35" as="geometry" />
        </mxCell>
        <mxCell id="5fdbbbe72816c942-1472" value="" style="shape=image;html=1;verticalAlign=top;verticalLabelPosition=bottom;labelBackgroundColor=#ffffff;imageAspect=0;aspect=fixed;image=https://cdn1.iconfinder.com/data/icons/handy-work/400/image2vector-6-128.png;fillColor=none;fontColor=#0000FF;" parent="5fdbbbe72816c942-1278" vertex="1">
          <mxGeometry x="280" y="1012" width="38" height="38" as="geometry" />
        </mxCell>
        <mxCell id="5fdbbbe72816c942-1473" value="" style="shape=image;html=1;verticalAlign=top;verticalLabelPosition=bottom;labelBackgroundColor=#ffffff;imageAspect=0;aspect=fixed;image=https://cdn1.iconfinder.com/data/icons/handy-work/400/image2vector-6-128.png;fillColor=none;fontColor=#0000FF;" parent="5fdbbbe72816c942-1278" vertex="1">
          <mxGeometry x="2880" y="738" width="38" height="38" as="geometry" />
        </mxCell>
        <mxCell id="5fdbbbe72816c942-1474" value="&lt;font color=&quot;#000000&quot;&gt;Toilet&lt;/font&gt;" style="text;html=1;resizable=0;points=[];autosize=1;align=left;verticalAlign=top;spacingTop=-4;fontColor=#0000FF;" parent="5fdbbbe72816c942-1278" vertex="1">
          <mxGeometry x="2982" y="361.5" width="40" height="20" as="geometry" />
        </mxCell>
        <mxCell id="5fdbbbe72816c942-1476" value="&lt;font color=&quot;#000000&quot;&gt;Double sink and dishwasher&lt;/font&gt;" style="text;html=1;resizable=0;points=[];autosize=1;align=left;verticalAlign=top;spacingTop=-4;fontColor=#0000FF;" parent="5fdbbbe72816c942-1278" vertex="1">
          <mxGeometry x="2982" y="480" width="170" height="20" as="geometry" />
        </mxCell>
        <mxCell id="5fdbbbe72816c942-1477" value="&lt;font color=&quot;#000000&quot;&gt;Vanity basins&lt;/font&gt;" style="text;html=1;resizable=0;points=[];autosize=1;align=left;verticalAlign=top;spacingTop=-4;fontColor=#0000FF;" parent="5fdbbbe72816c942-1278" vertex="1">
          <mxGeometry x="2982" y="535.5" width="90" height="20" as="geometry" />
        </mxCell>
        <mxCell id="5fdbbbe72816c942-1478" value="&lt;font color=&quot;#000000&quot;&gt;Water shut-off valve and meter&lt;/font&gt;" style="text;html=1;resizable=0;points=[];autosize=1;align=left;verticalAlign=top;spacingTop=-4;fontColor=#0000FF;" parent="5fdbbbe72816c942-1278" vertex="1">
          <mxGeometry x="2982" y="745" width="180" height="20" as="geometry" />
        </mxCell>
        <mxCell id="5fdbbbe72816c942-1479" value="" style="endArrow=none;html=1;strokeColor=#6c8ebf;strokeWidth=3;fillColor=#dae8fc;shape=link;" parent="5fdbbbe72816c942-1278" edge="1">
          <mxGeometry width="50" height="50" relative="1" as="geometry">
            <mxPoint x="2961.5" y="591" as="sourcePoint" />
            <mxPoint x="2881" y="590.5" as="targetPoint" />
          </mxGeometry>
        </mxCell>
        <mxCell id="5fdbbbe72816c942-1480" value="Cold water pipes" style="text;html=1;resizable=0;points=[];autosize=1;align=left;verticalAlign=top;spacingTop=-4;" parent="5fdbbbe72816c942-1278" vertex="1">
          <mxGeometry x="2983.5" y="583" width="100" height="20" as="geometry" />
        </mxCell>
        <mxCell id="5fdbbbe72816c942-1481" value="" style="verticalLabelPosition=bottom;outlineConnect=0;align=center;dashed=0;html=1;verticalAlign=top;shape=mxgraph.pid.misc.boiler_(dome,_hot_liquid);fillColor=#f8cecc;fontColor=#FF0000;strokeColor=#b85450;strokeWidth=3;" parent="5fdbbbe72816c942-1278" vertex="1">
          <mxGeometry x="350" y="1037" width="43" height="53" as="geometry" />
        </mxCell>
        <mxCell id="5fdbbbe72816c942-1483" style="edgeStyle=orthogonalEdgeStyle;shape=link;curved=1;html=1;entryX=0.11;entryY=0.176;entryPerimeter=0;endArrow=none;endFill=0;jettySize=auto;orthogonalLoop=1;strokeColor=#b85450;strokeWidth=4;fontColor=#FF0000;fillColor=#f8cecc;" parent="5fdbbbe72816c942-1278" source="5fdbbbe72816c942-1481" target="5fdbbbe72816c942-1402" edge="1">
          <mxGeometry relative="1" as="geometry">
            <Array as="points">
              <mxPoint x="1680" y="1050" />
            </Array>
          </mxGeometry>
        </mxCell>
        <mxCell id="5fdbbbe72816c942-1485" style="edgeStyle=orthogonalEdgeStyle;shape=link;curved=1;html=1;endArrow=none;endFill=0;jettySize=auto;orthogonalLoop=1;strokeColor=#b85450;strokeWidth=4;fontColor=#FF0000;fillColor=#f8cecc;" parent="5fdbbbe72816c942-1278" source="5fdbbbe72816c942-1481" target="5fdbbbe72816c942-1433" edge="1">
          <mxGeometry relative="1" as="geometry">
            <Array as="points">
              <mxPoint x="2490" y="1050" />
              <mxPoint x="2490" y="910" />
              <mxPoint x="2372" y="910" />
            </Array>
          </mxGeometry>
        </mxCell>
        <mxCell id="5fdbbbe72816c942-1487" style="edgeStyle=orthogonalEdgeStyle;shape=link;curved=1;html=1;entryX=0;entryY=0.6;entryPerimeter=0;endArrow=none;endFill=0;jettySize=auto;orthogonalLoop=1;strokeColor=#3333FF;strokeWidth=4;fontColor=#FF0000;" parent="5fdbbbe72816c942-1278" source="5fdbbbe72816c942-1472" target="5fdbbbe72816c942-1481" edge="1">
          <mxGeometry relative="1" as="geometry" />
        </mxCell>
        <mxCell id="5fdbbbe72816c942-1489" value="" style="verticalLabelPosition=bottom;outlineConnect=0;align=center;dashed=0;html=1;verticalAlign=top;shape=mxgraph.pid.misc.boiler_(dome,_hot_liquid);fillColor=#f8cecc;fontColor=#FF0000;strokeColor=#b85450;strokeWidth=3;" parent="5fdbbbe72816c942-1278" vertex="1">
          <mxGeometry x="2880" y="623.5" width="43" height="53" as="geometry" />
        </mxCell>
        <mxCell id="5fdbbbe72816c942-1490" value="Water boiler" style="text;html=1;resizable=0;points=[];autosize=1;align=left;verticalAlign=top;spacingTop=-4;" parent="5fdbbbe72816c942-1278" vertex="1">
          <mxGeometry x="2983.5" y="646" width="80" height="20" as="geometry" />
        </mxCell>
        <mxCell id="5fdbbbe72816c942-1492" value="" style="endArrow=none;html=1;strokeColor=#b85450;strokeWidth=3;fillColor=#f8cecc;shape=link;" parent="5fdbbbe72816c942-1278" edge="1">
          <mxGeometry width="50" height="50" relative="1" as="geometry">
            <mxPoint x="2961.5" y="698" as="sourcePoint" />
            <mxPoint x="2881" y="697.5" as="targetPoint" />
          </mxGeometry>
        </mxCell>
        <mxCell id="5fdbbbe72816c942-1493" value="Warm water pipes" style="text;html=1;resizable=0;points=[];autosize=1;align=left;verticalAlign=top;spacingTop=-4;" parent="5fdbbbe72816c942-1278" vertex="1">
          <mxGeometry x="2983.5" y="690" width="110" height="20" as="geometry" />
        </mxCell>
        <mxCell id="5fdbbbe72816c942-1730" style="edgeStyle=orthogonalEdgeStyle;shape=link;curved=1;html=1;endArrow=none;endFill=0;jettySize=auto;orthogonalLoop=1;strokeColor=#3333FF;strokeWidth=4;fontColor=#FF0000;exitX=0.5;exitY=0.022;exitPerimeter=0;" parent="5fdbbbe72816c942-1278" source="5fdbbbe72816c942-1393" target="5fdbbbe72816c942-1472" edge="1">
          <mxGeometry relative="1" as="geometry">
            <Array as="points">
              <mxPoint x="1391" y="688" />
              <mxPoint x="1391" y="1031" />
            </Array>
          </mxGeometry>
        </mxCell>
        <mxCell id="5fdbbbe72816c942-1731" style="edgeStyle=orthogonalEdgeStyle;shape=link;curved=1;html=1;endArrow=none;endFill=0;jettySize=auto;orthogonalLoop=1;strokeColor=#3333FF;strokeWidth=4;fontColor=#FF0000;" parent="5fdbbbe72816c942-1278" source="5fdbbbe72816c942-1433" target="5fdbbbe72816c942-1472" edge="1">
          <mxGeometry relative="1" as="geometry">
            <Array as="points">
              <mxPoint x="2480" y="920" />
              <mxPoint x="2480" y="1031" />
            </Array>
          </mxGeometry>
        </mxCell>
        <mxCell id="5fdbbbe72816c942-1733" style="edgeStyle=orthogonalEdgeStyle;shape=link;curved=1;html=1;endArrow=none;endFill=0;jettySize=auto;orthogonalLoop=1;strokeColor=#82b366;strokeWidth=4;fontColor=#FF0000;fillColor=#d5e8d4;" parent="5fdbbbe72816c942-1278" source="5fdbbbe72816c942-1393" edge="1">
          <mxGeometry relative="1" as="geometry">
            <mxPoint x="1412" y="1590" as="targetPoint" />
          </mxGeometry>
        </mxCell>
        <mxCell id="5fdbbbe72816c942-1732" style="edgeStyle=orthogonalEdgeStyle;shape=link;curved=1;html=1;endArrow=none;endFill=0;jettySize=auto;orthogonalLoop=1;strokeColor=#3333FF;strokeWidth=4;fontColor=#FF0000;" parent="5fdbbbe72816c942-1278" source="5fdbbbe72816c942-1402" target="5fdbbbe72816c942-1472" edge="1">
          <mxGeometry relative="1" as="geometry">
            <Array as="points">
              <mxPoint x="1668" y="1031" />
            </Array>
          </mxGeometry>
        </mxCell>
        <mxCell id="5fdbbbe72816c942-1735" style="edgeStyle=orthogonalEdgeStyle;shape=link;curved=1;html=1;endArrow=none;endFill=0;jettySize=auto;orthogonalLoop=1;strokeColor=#82b366;strokeWidth=4;fontColor=#FF0000;fillColor=#d5e8d4;exitX=0.936;exitY=0.797;exitPerimeter=0;" parent="5fdbbbe72816c942-1278" source="5fdbbbe72816c942-1403" edge="1">
          <mxGeometry relative="1" as="geometry">
            <mxPoint x="1412" y="728" as="targetPoint" />
            <Array as="points">
              <mxPoint x="1660" y="728" />
              <mxPoint x="1660" y="650" />
              <mxPoint x="1412" y="650" />
            </Array>
          </mxGeometry>
        </mxCell>
        <mxCell id="5fdbbbe72816c942-1736" style="edgeStyle=orthogonalEdgeStyle;shape=link;curved=1;html=1;entryX=0.25;entryY=0.466;entryPerimeter=0;endArrow=none;endFill=0;jettySize=auto;orthogonalLoop=1;strokeColor=#82b366;strokeWidth=4;fontColor=#FF0000;fillColor=#d5e8d4;" parent="5fdbbbe72816c942-1278" target="5fdbbbe72816c942-1414" edge="1">
          <mxGeometry relative="1" as="geometry">
            <mxPoint x="1660" y="958" as="sourcePoint" />
            <Array as="points">
              <mxPoint x="1656" y="1020" />
              <mxPoint x="1412" y="1020" />
            </Array>
          </mxGeometry>
        </mxCell>
        <mxCell id="5fdbbbe72816c942-1737" style="edgeStyle=orthogonalEdgeStyle;shape=link;curved=1;html=1;endArrow=none;endFill=0;jettySize=auto;orthogonalLoop=1;strokeColor=#82b366;strokeWidth=4;fontColor=#FF0000;fillColor=#d5e8d4;exitX=0.605;exitY=0.418;exitPerimeter=0;" parent="5fdbbbe72816c942-1278" source="5fdbbbe72816c942-1439" edge="1">
          <mxGeometry relative="1" as="geometry">
            <mxPoint x="1660" y="1010" as="targetPoint" />
            <Array as="points">
              <mxPoint x="2470" y="1040" />
              <mxPoint x="1660" y="1040" />
            </Array>
          </mxGeometry>
        </mxCell>
        <mxCell id="5fdbbbe72816c942-1738" style="edgeStyle=orthogonalEdgeStyle;shape=link;curved=1;html=1;entryX=0.005;entryY=0.484;entryPerimeter=0;endArrow=none;endFill=0;jettySize=auto;orthogonalLoop=1;strokeColor=#82b366;strokeWidth=4;fontColor=#FF0000;fillColor=#d5e8d4;" parent="5fdbbbe72816c942-1278" source="5fdbbbe72816c942-1433" target="5fdbbbe72816c942-1439" edge="1">
          <mxGeometry relative="1" as="geometry">
            <Array as="points">
              <mxPoint x="2332" y="930" />
              <mxPoint x="2468" y="930" />
            </Array>
          </mxGeometry>
        </mxCell>
        <UserObject label="Plumbing" link="data:action/json,{&quot;actions&quot;:[{&quot;toggle&quot;: {&quot;cells&quot;: [&quot;5fdbbbe72816c942-1278&quot;]}}]}" id="5fdbbbe72816c942-1775">
          <mxCell style="rounded=1;whiteSpace=wrap;html=1;strokeWidth=3;fillColor=#e1d5e7;fontColor=#000000;strokeColor=#9673a6;fontSize=28;verticalAlign=middle;" parent="5fdbbbe72816c942-1278" vertex="1">
            <mxGeometry x="732.5" y="1565" width="227" height="60" as="geometry" />
          </mxCell>
        </UserObject>
        <mxCell id="1" value="Lights" style="locked=1;" parent="0" />
        <mxCell id="5fdbbbe72816c942-355" style="edgeStyle=orthogonalEdgeStyle;curved=1;html=1;exitX=1;exitY=0.5;exitPerimeter=0;endArrow=none;endFill=0;jettySize=auto;orthogonalLoop=1;strokeColor=#FF0000;" parent="1" source="5fdbbbe72816c942-316" edge="1">
          <mxGeometry relative="1" as="geometry">
            <mxPoint x="790" y="480" as="targetPoint" />
          </mxGeometry>
        </mxCell>
        <mxCell id="5fdbbbe72816c942-316" value="" style="verticalLabelPosition=bottom;shadow=0;dashed=0;align=center;fillColor=#f8cecc;html=1;verticalAlign=top;strokeWidth=1;shape=mxgraph.electrical.miscellaneous.light_bulb;strokeColor=#b85450;" parent="1" vertex="1">
          <mxGeometry x="679" y="321" width="60" height="50" as="geometry" />
        </mxCell>
        <mxCell id="5fdbbbe72816c942-356" style="edgeStyle=orthogonalEdgeStyle;curved=1;html=1;exitX=0;exitY=0.5;exitPerimeter=0;endArrow=none;endFill=0;jettySize=auto;orthogonalLoop=1;strokeColor=#FF0000;" parent="1" source="5fdbbbe72816c942-318" edge="1">
          <mxGeometry relative="1" as="geometry">
            <mxPoint x="790" y="480" as="targetPoint" />
          </mxGeometry>
        </mxCell>
        <mxCell id="5fdbbbe72816c942-318" value="" style="verticalLabelPosition=bottom;shadow=0;dashed=0;align=center;fillColor=#f8cecc;html=1;verticalAlign=top;strokeWidth=1;shape=mxgraph.electrical.miscellaneous.light_bulb;strokeColor=#b85450;" parent="1" vertex="1">
          <mxGeometry x="856" y="318" width="60" height="50" as="geometry" />
        </mxCell>
        <mxCell id="5fdbbbe72816c942-352" style="edgeStyle=orthogonalEdgeStyle;html=1;exitX=0;exitY=0.5;exitPerimeter=0;entryX=1.079;entryY=0.075;entryPerimeter=0;jettySize=auto;orthogonalLoop=1;strokeColor=none;curved=1;endArrow=none;endFill=0;" parent="1" source="5fdbbbe72816c942-319" edge="1">
          <mxGeometry relative="1" as="geometry">
            <mxPoint x="594.1428571428573" y="520.1428571428573" as="targetPoint" />
          </mxGeometry>
        </mxCell>
        <mxCell id="5fdbbbe72816c942-354" style="edgeStyle=orthogonalEdgeStyle;curved=1;html=1;exitX=0;exitY=0.5;exitPerimeter=0;endArrow=none;endFill=0;jettySize=auto;orthogonalLoop=1;strokeColor=#FF0000;" parent="1" source="5fdbbbe72816c942-319" edge="1">
          <mxGeometry relative="1" as="geometry">
            <mxPoint x="600" y="510" as="targetPoint" />
          </mxGeometry>
        </mxCell>
        <mxCell id="5fdbbbe72816c942-319" value="" style="verticalLabelPosition=bottom;shadow=0;dashed=0;align=center;fillColor=#f8cecc;html=1;verticalAlign=top;strokeWidth=1;shape=mxgraph.electrical.miscellaneous.light_bulb;rotation=180;strokeColor=#b85450;" parent="1" vertex="1">
          <mxGeometry x="466" y="407.5" width="60" height="50" as="geometry" />
        </mxCell>
        <mxCell id="5fdbbbe72816c942-320" value="" style="verticalLabelPosition=bottom;shadow=0;dashed=0;align=center;fillColor=#f8cecc;html=1;verticalAlign=top;strokeWidth=1;shape=mxgraph.electrical.miscellaneous.light_bulb;strokeColor=#b85450;" parent="1" vertex="1">
          <mxGeometry x="460.5" y="898" width="60" height="50" as="geometry" />
        </mxCell>
        <mxCell id="5fdbbbe72816c942-321" value="" style="verticalLabelPosition=bottom;shadow=0;dashed=0;align=center;fillColor=#f8cecc;html=1;verticalAlign=top;strokeWidth=1;shape=mxgraph.electrical.miscellaneous.light_bulb;strokeColor=#b85450;" parent="1" vertex="1">
          <mxGeometry x="461" y="1106" width="60" height="50" as="geometry" />
        </mxCell>
        <mxCell id="5fdbbbe72816c942-322" value="" style="verticalLabelPosition=bottom;shadow=0;dashed=0;align=center;fillColor=#f8cecc;html=1;verticalAlign=top;strokeWidth=1;shape=mxgraph.electrical.miscellaneous.light_bulb;strokeColor=#b85450;" parent="1" vertex="1">
          <mxGeometry x="473" y="1316" width="60" height="50" as="geometry" />
        </mxCell>
        <mxCell id="5fdbbbe72816c942-323" value="" style="verticalLabelPosition=bottom;shadow=0;dashed=0;align=center;fillColor=#f8cecc;html=1;verticalAlign=top;strokeWidth=1;shape=mxgraph.electrical.miscellaneous.light_bulb;strokeColor=#b85450;" parent="1" vertex="1">
          <mxGeometry x="645" y="1314" width="60" height="50" as="geometry" />
        </mxCell>
        <mxCell id="5fdbbbe72816c942-324" value="" style="verticalLabelPosition=bottom;shadow=0;dashed=0;align=center;fillColor=#f8cecc;html=1;verticalAlign=top;strokeWidth=1;shape=mxgraph.electrical.miscellaneous.light_bulb;strokeColor=#b85450;" parent="1" vertex="1">
          <mxGeometry x="863" y="1318.5" width="60" height="50" as="geometry" />
        </mxCell>
        <mxCell id="5fdbbbe72816c942-325" value="" style="verticalLabelPosition=bottom;shadow=0;dashed=0;align=center;fillColor=#f8cecc;html=1;verticalAlign=top;strokeWidth=1;shape=mxgraph.electrical.miscellaneous.light_bulb;strokeColor=#b85450;" parent="1" vertex="1">
          <mxGeometry x="1074" y="1316" width="60" height="50" as="geometry" />
        </mxCell>
        <mxCell id="5fdbbbe72816c942-326" value="" style="verticalLabelPosition=bottom;shadow=0;dashed=0;align=center;fillColor=#f8cecc;html=1;verticalAlign=top;strokeWidth=1;shape=mxgraph.electrical.miscellaneous.light_bulb;strokeColor=#b85450;" parent="1" vertex="1">
          <mxGeometry x="1298" y="1309" width="60" height="50" as="geometry" />
        </mxCell>
        <mxCell id="5fdbbbe72816c942-327" value="" style="verticalLabelPosition=bottom;shadow=0;dashed=0;align=center;fillColor=#f8cecc;html=1;verticalAlign=top;strokeWidth=1;shape=mxgraph.electrical.miscellaneous.light_bulb;strokeColor=#b85450;" parent="1" vertex="1">
          <mxGeometry x="1520" y="1297" width="60" height="50" as="geometry" />
        </mxCell>
        <mxCell id="5fdbbbe72816c942-328" value="" style="verticalLabelPosition=bottom;shadow=0;dashed=0;align=center;fillColor=#f8cecc;html=1;verticalAlign=top;strokeWidth=1;shape=mxgraph.electrical.miscellaneous.light_bulb;strokeColor=#b85450;" parent="1" vertex="1">
          <mxGeometry x="1802" y="1298" width="60" height="50" as="geometry" />
        </mxCell>
        <mxCell id="5fdbbbe72816c942-335" value="" style="verticalLabelPosition=bottom;shadow=0;dashed=0;align=center;fillColor=#f8cecc;html=1;verticalAlign=top;strokeWidth=1;shape=mxgraph.electrical.miscellaneous.light_bulb;strokeColor=#b85450;" parent="1" vertex="1">
          <mxGeometry x="2715" y="387" width="60" height="50" as="geometry" />
        </mxCell>
        <mxCell id="5fdbbbe72816c942-336" value="" style="verticalLabelPosition=bottom;shadow=0;dashed=0;align=center;fillColor=#f8cecc;html=1;verticalAlign=top;strokeWidth=1;shape=mxgraph.electrical.miscellaneous.light_bulb;strokeColor=#b85450;" parent="1" vertex="1">
          <mxGeometry x="2717" y="684" width="60" height="50" as="geometry" />
        </mxCell>
        <mxCell id="5fdbbbe72816c942-337" value="" style="verticalLabelPosition=bottom;shadow=0;dashed=0;align=center;fillColor=#f8cecc;html=1;verticalAlign=top;strokeWidth=1;shape=mxgraph.electrical.miscellaneous.light_bulb;strokeColor=#b85450;" parent="1" vertex="1">
          <mxGeometry x="2720" y="911" width="60" height="50" as="geometry" />
        </mxCell>
        <mxCell id="5fdbbbe72816c942-338" value="" style="verticalLabelPosition=bottom;shadow=0;dashed=0;align=center;fillColor=#f8cecc;html=1;verticalAlign=top;strokeWidth=1;shape=mxgraph.electrical.miscellaneous.light_bulb;strokeColor=#b85450;" parent="1" vertex="1">
          <mxGeometry x="2713.857142857143" y="1129" width="60" height="50" as="geometry" />
        </mxCell>
        <mxCell id="5fdbbbe72816c942-339" value="" style="verticalLabelPosition=bottom;shadow=0;dashed=0;align=center;fillColor=#f8cecc;html=1;verticalAlign=top;strokeWidth=1;shape=mxgraph.electrical.miscellaneous.light_bulb;strokeColor=#b85450;" parent="1" vertex="1">
          <mxGeometry x="2638" y="1311" width="60" height="50" as="geometry" />
        </mxCell>
        <mxCell id="5fdbbbe72816c942-340" value="" style="verticalLabelPosition=bottom;shadow=0;dashed=0;align=center;fillColor=#f8cecc;html=1;verticalAlign=top;strokeWidth=1;shape=mxgraph.electrical.miscellaneous.light_bulb;strokeColor=#b85450;" parent="1" vertex="1">
          <mxGeometry x="2379.5" y="1313" width="60" height="50" as="geometry" />
        </mxCell>
        <mxCell id="5fdbbbe72816c942-341" value="" style="verticalLabelPosition=bottom;shadow=0;dashed=0;align=center;fillColor=#f8cecc;html=1;verticalAlign=top;strokeWidth=1;shape=mxgraph.electrical.miscellaneous.light_bulb;strokeColor=#b85450;" parent="1" vertex="1">
          <mxGeometry x="2106.5" y="1305" width="60" height="50" as="geometry" />
        </mxCell>
        <mxCell id="5fdbbbe72816c942-342" value="" style="verticalLabelPosition=bottom;shadow=0;dashed=0;align=center;fillColor=#d5e8d4;html=1;verticalAlign=top;strokeWidth=1;shape=mxgraph.electrical.miscellaneous.light_bulb;strokeColor=#82b366;" parent="1" vertex="1">
          <mxGeometry x="1531" y="709" width="60" height="50" as="geometry" />
        </mxCell>
        <mxCell id="5fdbbbe72816c942-343" value="" style="verticalLabelPosition=bottom;shadow=0;dashed=0;align=center;fillColor=#d5e8d4;html=1;verticalAlign=top;strokeWidth=1;shape=mxgraph.electrical.miscellaneous.light_bulb;strokeColor=#82b366;" parent="1" vertex="1">
          <mxGeometry x="1528.5" y="904.5" width="60" height="50" as="geometry" />
        </mxCell>
        <mxCell id="5fdbbbe72816c942-358" style="edgeStyle=orthogonalEdgeStyle;curved=1;html=1;exitX=0;exitY=0.5;exitPerimeter=0;endArrow=none;endFill=0;jettySize=auto;orthogonalLoop=1;strokeColor=#FF0000;" parent="1" source="5fdbbbe72816c942-329" edge="1">
          <mxGeometry relative="1" as="geometry">
            <mxPoint x="1350" y="480" as="targetPoint" />
          </mxGeometry>
        </mxCell>
        <mxCell id="5fdbbbe72816c942-329" value="" style="verticalLabelPosition=bottom;shadow=0;dashed=0;align=center;fillColor=#f8cecc;html=1;verticalAlign=top;strokeWidth=1;shape=mxgraph.electrical.miscellaneous.light_bulb;strokeColor=#b85450;" parent="1" vertex="1">
          <mxGeometry x="1310" y="317" width="60" height="50" as="geometry" />
        </mxCell>
        <mxCell id="5fdbbbe72816c942-359" style="edgeStyle=orthogonalEdgeStyle;curved=1;html=1;exitX=0;exitY=0.5;exitPerimeter=0;endArrow=none;endFill=0;jettySize=auto;orthogonalLoop=1;strokeColor=#FF0000;" parent="1" source="5fdbbbe72816c942-330" edge="1">
          <mxGeometry relative="1" as="geometry">
            <mxPoint x="1568" y="480" as="targetPoint" />
          </mxGeometry>
        </mxCell>
        <mxCell id="5fdbbbe72816c942-330" value="" style="verticalLabelPosition=bottom;shadow=0;dashed=0;align=center;fillColor=#f8cecc;html=1;verticalAlign=top;strokeWidth=1;shape=mxgraph.electrical.miscellaneous.light_bulb;strokeColor=#b85450;" parent="1" vertex="1">
          <mxGeometry x="1533" y="321" width="60" height="50" as="geometry" />
        </mxCell>
        <mxCell id="5fdbbbe72816c942-360" style="edgeStyle=orthogonalEdgeStyle;curved=1;html=1;exitX=0;exitY=0.5;exitPerimeter=0;endArrow=none;endFill=0;jettySize=auto;orthogonalLoop=1;strokeColor=#FF0000;entryX=0.991;entryY=0.259;entryPerimeter=0;" parent="1" source="5fdbbbe72816c942-331" edge="1">
          <mxGeometry relative="1" as="geometry">
            <mxPoint x="1791.2857142857147" y="485.8571428571429" as="targetPoint" />
          </mxGeometry>
        </mxCell>
        <mxCell id="5fdbbbe72816c942-331" value="" style="verticalLabelPosition=bottom;shadow=0;dashed=0;align=center;fillColor=#f8cecc;html=1;verticalAlign=top;strokeWidth=1;shape=mxgraph.electrical.miscellaneous.light_bulb;strokeColor=#b85450;" parent="1" vertex="1">
          <mxGeometry x="1752" y="320" width="60" height="50" as="geometry" />
        </mxCell>
        <mxCell id="5fdbbbe72816c942-344" value="" style="verticalLabelPosition=bottom;shadow=0;dashed=0;align=center;fillColor=#ffe6cc;html=1;verticalAlign=top;strokeWidth=1;shape=mxgraph.electrical.miscellaneous.light_bulb;strokeColor=#d79b00;" parent="1" vertex="1">
          <mxGeometry x="2423" y="781" width="60" height="50" as="geometry" />
        </mxCell>
        <mxCell id="5fdbbbe72816c942-332" value="" style="verticalLabelPosition=bottom;shadow=0;dashed=0;align=center;fillColor=#f8cecc;html=1;verticalAlign=top;strokeWidth=1;shape=mxgraph.electrical.miscellaneous.light_bulb;strokeColor=#b85450;" parent="1" vertex="1">
          <mxGeometry x="1973" y="321" width="60" height="50" as="geometry" />
        </mxCell>
        <mxCell id="5fdbbbe72816c942-346" value="" style="verticalLabelPosition=bottom;shadow=0;dashed=0;align=center;fillColor=#f8cecc;html=1;verticalAlign=top;strokeWidth=1;shape=mxgraph.electrical.miscellaneous.light_bulb;strokeColor=#b85450;" parent="1" vertex="1">
          <mxGeometry x="2296" y="718" width="60" height="50" as="geometry" />
        </mxCell>
        <mxCell id="5fdbbbe72816c942-333" value="" style="verticalLabelPosition=bottom;shadow=0;dashed=0;align=center;fillColor=#f8cecc;html=1;verticalAlign=top;strokeWidth=1;shape=mxgraph.electrical.miscellaneous.light_bulb;strokeColor=#b85450;" parent="1" vertex="1">
          <mxGeometry x="2208" y="320" width="60" height="50" as="geometry" />
        </mxCell>
        <mxCell id="5fdbbbe72816c942-347" value="" style="verticalLabelPosition=bottom;shadow=0;dashed=0;align=center;fillColor=#f8cecc;html=1;verticalAlign=top;strokeWidth=1;shape=mxgraph.electrical.miscellaneous.light_bulb;strokeColor=#b85450;" parent="1" vertex="1">
          <mxGeometry x="2018" y="714" width="60" height="50" as="geometry" />
        </mxCell>
        <mxCell id="5fdbbbe72816c942-334" value="" style="verticalLabelPosition=bottom;shadow=0;dashed=0;align=center;fillColor=#f8cecc;html=1;verticalAlign=top;strokeWidth=1;shape=mxgraph.electrical.miscellaneous.light_bulb;strokeColor=#b85450;" parent="1" vertex="1">
          <mxGeometry x="2439.5" y="318" width="60" height="50" as="geometry" />
        </mxCell>
        <mxCell id="5fdbbbe72816c942-348" value="" style="verticalLabelPosition=bottom;shadow=0;dashed=0;align=center;fillColor=#f8cecc;html=1;verticalAlign=top;strokeWidth=1;shape=mxgraph.electrical.miscellaneous.light_bulb;strokeColor=#b85450;" parent="1" vertex="1">
          <mxGeometry x="2023" y="881" width="60" height="50" as="geometry" />
        </mxCell>
        <mxCell id="5fdbbbe72816c942-349" value="" style="verticalLabelPosition=bottom;shadow=0;dashed=0;align=center;fillColor=#d5e8d4;html=1;verticalAlign=top;strokeWidth=1;shape=mxgraph.electrical.miscellaneous.light_bulb;strokeColor=#82b366;" parent="1" vertex="1">
          <mxGeometry x="2370" y="956.5" width="60" height="50" as="geometry" />
        </mxCell>
        <mxCell id="5fdbbbe72816c942-350" value="" style="verticalLabelPosition=bottom;shadow=0;dashed=0;align=center;fillColor=#f8cecc;html=1;verticalAlign=top;strokeWidth=1;shape=mxgraph.electrical.miscellaneous.light_bulb;strokeColor=#b85450;" parent="1" vertex="1">
          <mxGeometry x="994" y="712" width="60" height="50" as="geometry" />
        </mxCell>
        <mxCell id="5fdbbbe72816c942-351" value="" style="verticalLabelPosition=bottom;shadow=0;dashed=0;align=center;fillColor=#f8cecc;html=1;verticalAlign=top;strokeWidth=1;shape=mxgraph.electrical.miscellaneous.light_bulb;strokeColor=#b85450;" parent="1" vertex="1">
          <mxGeometry x="991" y="959.5" width="60" height="50" as="geometry" />
        </mxCell>
        <mxCell id="5fdbbbe72816c942-361" style="edgeStyle=orthogonalEdgeStyle;curved=1;html=1;exitX=0;exitY=0.5;exitPerimeter=0;entryX=0.988;entryY=0.286;entryPerimeter=0;endArrow=none;endFill=0;jettySize=auto;orthogonalLoop=1;strokeColor=#FF0000;" parent="1" source="5fdbbbe72816c942-332" edge="1">
          <mxGeometry relative="1" as="geometry">
            <mxPoint x="2011.2857142857147" y="485.8571428571429" as="targetPoint" />
          </mxGeometry>
        </mxCell>
        <mxCell id="5fdbbbe72816c942-365" style="edgeStyle=orthogonalEdgeStyle;curved=1;html=1;exitX=0;exitY=0.5;exitPerimeter=0;endArrow=none;endFill=0;jettySize=auto;orthogonalLoop=1;strokeColor=#FF0000;" parent="1" source="5fdbbbe72816c942-333" edge="1">
          <mxGeometry relative="1" as="geometry">
            <mxPoint x="2228" y="488" as="targetPoint" />
          </mxGeometry>
        </mxCell>
        <mxCell id="5fdbbbe72816c942-367" style="edgeStyle=orthogonalEdgeStyle;curved=1;html=1;exitX=0;exitY=0.5;exitPerimeter=0;endArrow=none;endFill=0;jettySize=auto;orthogonalLoop=1;strokeColor=#FF0000;" parent="1" source="5fdbbbe72816c942-334" edge="1">
          <mxGeometry relative="1" as="geometry">
            <mxPoint x="2420" y="480" as="targetPoint" />
          </mxGeometry>
        </mxCell>
        <mxCell id="5fdbbbe72816c942-368" style="edgeStyle=orthogonalEdgeStyle;curved=1;html=1;exitX=0;exitY=0.5;exitPerimeter=0;entryX=1.085;entryY=0.06;entryPerimeter=0;endArrow=none;endFill=0;jettySize=auto;orthogonalLoop=1;strokeColor=#FF0000;" parent="1" source="5fdbbbe72816c942-335" edge="1">
          <mxGeometry relative="1" as="geometry">
            <mxPoint x="2645.5714285714294" y="488.7142857142858" as="targetPoint" />
          </mxGeometry>
        </mxCell>
        <mxCell id="5fdbbbe72816c942-369" style="edgeStyle=orthogonalEdgeStyle;curved=1;html=1;exitX=0;exitY=0.5;exitPerimeter=0;entryX=0.954;entryY=0.093;entryPerimeter=0;endArrow=none;endFill=0;jettySize=auto;orthogonalLoop=1;strokeColor=#FF0000;" parent="1" source="5fdbbbe72816c942-336" edge="1">
          <mxGeometry relative="1" as="geometry">
            <mxPoint x="2648.4285714285716" y="720.1428571428573" as="targetPoint" />
          </mxGeometry>
        </mxCell>
        <mxCell id="5fdbbbe72816c942-370" style="edgeStyle=orthogonalEdgeStyle;curved=1;html=1;exitX=0;exitY=0.5;exitPerimeter=0;entryX=0.99;entryY=0.093;entryPerimeter=0;endArrow=none;endFill=0;jettySize=auto;orthogonalLoop=1;strokeColor=#FF0000;" parent="1" source="5fdbbbe72816c942-337" edge="1">
          <mxGeometry relative="1" as="geometry">
            <mxPoint x="2648.4285714285716" y="937.2857142857142" as="targetPoint" />
          </mxGeometry>
        </mxCell>
        <mxCell id="5fdbbbe72816c942-371" style="edgeStyle=orthogonalEdgeStyle;curved=1;html=1;exitX=0;exitY=0.5;exitPerimeter=0;entryX=0.954;entryY=0.06;entryPerimeter=0;endArrow=none;endFill=0;jettySize=auto;orthogonalLoop=1;strokeColor=#FF0000;" parent="1" source="5fdbbbe72816c942-338" edge="1">
          <mxGeometry relative="1" as="geometry">
            <mxPoint x="2645.5714285714294" y="1160.1428571428573" as="targetPoint" />
          </mxGeometry>
        </mxCell>
        <mxCell id="5fdbbbe72816c942-372" style="edgeStyle=orthogonalEdgeStyle;curved=1;html=1;exitX=0;exitY=0.5;exitPerimeter=0;entryX=1.054;entryY=0.108;entryPerimeter=0;endArrow=none;endFill=0;jettySize=auto;orthogonalLoop=1;strokeColor=#FF0000;" parent="1" source="5fdbbbe72816c942-339" edge="1">
          <mxGeometry relative="1" as="geometry">
            <mxPoint x="2631.2857142857147" y="1260.1428571428573" as="targetPoint" />
          </mxGeometry>
        </mxCell>
        <mxCell id="5fdbbbe72816c942-373" style="edgeStyle=orthogonalEdgeStyle;curved=1;html=1;exitX=0;exitY=0.5;exitPerimeter=0;entryX=0.996;entryY=0.108;entryPerimeter=0;endArrow=none;endFill=0;jettySize=auto;orthogonalLoop=1;strokeColor=#FF0000;" parent="1" source="5fdbbbe72816c942-340" edge="1">
          <mxGeometry relative="1" as="geometry">
            <mxPoint x="2402.7142857142862" y="1260.1428571428573" as="targetPoint" />
          </mxGeometry>
        </mxCell>
        <mxCell id="5fdbbbe72816c942-374" style="edgeStyle=orthogonalEdgeStyle;curved=1;html=1;exitX=0;exitY=0.5;exitPerimeter=0;entryX=1.121;entryY=0.04;entryPerimeter=0;endArrow=none;endFill=0;jettySize=auto;orthogonalLoop=1;strokeColor=#FF0000;" parent="1" source="5fdbbbe72816c942-341" edge="1">
          <mxGeometry relative="1" as="geometry">
            <mxPoint x="2062.7142857142862" y="1254.4285714285716" as="targetPoint" />
          </mxGeometry>
        </mxCell>
        <mxCell id="5fdbbbe72816c942-375" style="edgeStyle=orthogonalEdgeStyle;curved=1;html=1;exitX=0;exitY=0.5;exitPerimeter=0;endArrow=none;endFill=0;jettySize=auto;orthogonalLoop=1;strokeColor=#FF0000;" parent="1" source="5fdbbbe72816c942-328" edge="1">
          <mxGeometry relative="1" as="geometry">
            <mxPoint x="1650" y="1200" as="targetPoint" />
          </mxGeometry>
        </mxCell>
        <mxCell id="5fdbbbe72816c942-376" style="edgeStyle=orthogonalEdgeStyle;curved=1;html=1;exitX=1;exitY=0.5;exitPerimeter=0;endArrow=none;endFill=0;jettySize=auto;orthogonalLoop=1;strokeColor=#FF0000;" parent="1" source="5fdbbbe72816c942-327" edge="1">
          <mxGeometry relative="1" as="geometry">
            <mxPoint x="1650" y="1200" as="targetPoint" />
          </mxGeometry>
        </mxCell>
        <mxCell id="5fdbbbe72816c942-377" style="edgeStyle=orthogonalEdgeStyle;curved=1;html=1;exitX=0;exitY=0.5;exitPerimeter=0;entryX=1.055;entryY=0.108;entryPerimeter=0;endArrow=none;endFill=0;jettySize=auto;orthogonalLoop=1;strokeColor=#FF0000;" parent="1" source="5fdbbbe72816c942-326" edge="1">
          <mxGeometry relative="1" as="geometry">
            <mxPoint x="1328.4285714285716" y="1260.1428571428573" as="targetPoint" />
          </mxGeometry>
        </mxCell>
        <mxCell id="5fdbbbe72816c942-378" style="edgeStyle=orthogonalEdgeStyle;curved=1;html=1;exitX=0;exitY=0.5;exitPerimeter=0;entryX=1.07;entryY=0.04;entryPerimeter=0;endArrow=none;endFill=0;jettySize=auto;orthogonalLoop=1;strokeColor=#FF0000;" parent="1" source="5fdbbbe72816c942-325" edge="1">
          <mxGeometry relative="1" as="geometry">
            <mxPoint x="1105.571428571429" y="1254.4285714285716" as="targetPoint" />
          </mxGeometry>
        </mxCell>
        <mxCell id="5fdbbbe72816c942-379" style="edgeStyle=orthogonalEdgeStyle;curved=1;html=1;exitX=0;exitY=0.5;exitPerimeter=0;entryX=1.048;entryY=0.074;entryPerimeter=0;endArrow=none;endFill=0;jettySize=auto;orthogonalLoop=1;strokeColor=#FF0000;" parent="1" source="5fdbbbe72816c942-324" edge="1">
          <mxGeometry relative="1" as="geometry">
            <mxPoint x="879.8571428571431" y="1257.2857142857147" as="targetPoint" />
          </mxGeometry>
        </mxCell>
        <mxCell id="5fdbbbe72816c942-381" style="edgeStyle=orthogonalEdgeStyle;curved=1;html=1;exitX=1;exitY=0.5;exitPerimeter=0;entryX=-0.057;entryY=0.052;entryPerimeter=0;endArrow=none;endFill=0;jettySize=auto;orthogonalLoop=1;strokeColor=#FF0000;" parent="1" source="5fdbbbe72816c942-323" edge="1">
          <mxGeometry relative="1" as="geometry">
            <mxPoint x="688.4285714285716" y="1254.4285714285716" as="targetPoint" />
          </mxGeometry>
        </mxCell>
        <mxCell id="5fdbbbe72816c942-345" value="" style="verticalLabelPosition=bottom;shadow=0;dashed=0;align=center;fillColor=#ffe6cc;html=1;verticalAlign=top;strokeWidth=1;shape=mxgraph.electrical.miscellaneous.light_bulb;strokeColor=#d79b00;" parent="1" vertex="1">
          <mxGeometry x="2307" y="837.5" width="60" height="50" as="geometry" />
        </mxCell>
        <mxCell id="5fdbbbe72816c942-382" style="edgeStyle=orthogonalEdgeStyle;curved=1;html=1;exitX=1;exitY=0.5;exitPerimeter=0;endArrow=none;endFill=0;jettySize=auto;orthogonalLoop=1;strokeColor=#FF0000;" parent="1" source="5fdbbbe72816c942-322" edge="1">
          <mxGeometry relative="1" as="geometry">
            <mxPoint x="690" y="1250" as="targetPoint" />
          </mxGeometry>
        </mxCell>
        <mxCell id="5fdbbbe72816c942-383" style="edgeStyle=orthogonalEdgeStyle;curved=1;html=1;exitX=1;exitY=0.5;exitPerimeter=0;entryX=1.051;entryY=0.097;entryPerimeter=0;endArrow=none;endFill=0;jettySize=auto;orthogonalLoop=1;strokeColor=#FF0000;" parent="1" source="5fdbbbe72816c942-321" edge="1">
          <mxGeometry relative="1" as="geometry">
            <mxPoint x="591.2857142857147" y="1154.4285714285716" as="targetPoint" />
          </mxGeometry>
        </mxCell>
        <mxCell id="5fdbbbe72816c942-384" style="edgeStyle=orthogonalEdgeStyle;curved=1;html=1;exitX=1;exitY=0.5;exitPerimeter=0;entryX=1.072;entryY=0.063;entryPerimeter=0;endArrow=none;endFill=0;jettySize=auto;orthogonalLoop=1;strokeColor=#FF0000;" parent="1" source="5fdbbbe72816c942-320" edge="1">
          <mxGeometry relative="1" as="geometry">
            <mxPoint x="594.1428571428573" y="917.2857142857142" as="targetPoint" />
          </mxGeometry>
        </mxCell>
        <mxCell id="5fdbbbe72816c942-385" style="edgeStyle=orthogonalEdgeStyle;curved=1;html=1;exitX=0;exitY=0.5;exitPerimeter=0;entryX=0.95;entryY=0.6;entryPerimeter=0;endArrow=none;endFill=0;jettySize=auto;orthogonalLoop=1;strokeColor=#FF0000;" parent="1" source="5fdbbbe72816c942-350" edge="1">
          <mxGeometry relative="1" as="geometry">
            <mxPoint x="857" y="771.5714285714289" as="targetPoint" />
          </mxGeometry>
        </mxCell>
        <mxCell id="5fdbbbe72816c942-386" style="edgeStyle=orthogonalEdgeStyle;curved=1;html=1;exitX=0;exitY=0.5;exitPerimeter=0;entryX=0.071;entryY=0.029;entryPerimeter=0;endArrow=none;endFill=0;jettySize=auto;orthogonalLoop=1;strokeColor=#FF0000;" parent="1" source="5fdbbbe72816c942-351" edge="1">
          <mxGeometry relative="1" as="geometry">
            <mxPoint x="862.7142857142858" y="971.5714285714289" as="targetPoint" />
          </mxGeometry>
        </mxCell>
        <mxCell id="5fdbbbe72816c942-387" style="edgeStyle=orthogonalEdgeStyle;curved=1;html=1;exitX=1;exitY=0.5;exitPerimeter=0;entryX=1.098;entryY=0.08;entryPerimeter=0;endArrow=none;endFill=0;jettySize=auto;orthogonalLoop=1;strokeColor=#82b366;fillColor=#d5e8d4;" parent="1" source="5fdbbbe72816c942-342" edge="1">
          <mxGeometry relative="1" as="geometry">
            <mxPoint x="1682.7142857142862" y="734.4285714285716" as="targetPoint" />
          </mxGeometry>
        </mxCell>
        <mxCell id="5fdbbbe72816c942-388" style="edgeStyle=orthogonalEdgeStyle;curved=1;html=1;exitX=1;exitY=0.5;exitPerimeter=0;entryX=-0.088;entryY=0.093;entryPerimeter=0;endArrow=none;endFill=0;jettySize=auto;orthogonalLoop=1;strokeColor=#82b366;fillColor=#d5e8d4;" parent="1" source="5fdbbbe72816c942-343" edge="1">
          <mxGeometry relative="1" as="geometry">
            <mxPoint x="1685.5714285714284" y="931.5714285714289" as="targetPoint" />
          </mxGeometry>
        </mxCell>
        <mxCell id="5fdbbbe72816c942-390" style="edgeStyle=orthogonalEdgeStyle;curved=1;html=1;exitX=1;exitY=0.5;exitPerimeter=0;endArrow=none;endFill=0;jettySize=auto;orthogonalLoop=1;strokeColor=#FF0000;" parent="1" source="5fdbbbe72816c942-348" edge="1">
          <mxGeometry relative="1" as="geometry">
            <mxPoint x="2082.7142857142862" y="640" as="targetPoint" />
          </mxGeometry>
        </mxCell>
        <mxCell id="5fdbbbe72816c942-391" style="edgeStyle=orthogonalEdgeStyle;curved=1;html=1;exitX=0;exitY=0.5;exitPerimeter=0;entryX=0.927;entryY=0.343;entryPerimeter=0;endArrow=none;endFill=0;jettySize=auto;orthogonalLoop=1;strokeColor=#FF0000;" parent="1" source="5fdbbbe72816c942-347" edge="1">
          <mxGeometry relative="1" as="geometry">
            <mxPoint x="2077" y="634.4285714285716" as="targetPoint" />
          </mxGeometry>
        </mxCell>
        <mxCell id="5fdbbbe72816c942-392" style="edgeStyle=orthogonalEdgeStyle;curved=1;html=1;exitX=0;exitY=0.5;exitPerimeter=0;entryX=-0.109;entryY=0.326;entryPerimeter=0;endArrow=none;endFill=0;jettySize=auto;orthogonalLoop=1;strokeColor=#82b366;fillColor=#d5e8d4;" parent="1" source="5fdbbbe72816c942-349" edge="1">
          <mxGeometry relative="1" as="geometry">
            <mxPoint x="2348.4285714285716" y="1028.7142857142858" as="targetPoint" />
          </mxGeometry>
        </mxCell>
        <mxCell id="5fdbbbe72816c942-393" style="edgeStyle=orthogonalEdgeStyle;curved=1;html=1;exitX=0;exitY=0.5;exitPerimeter=0;entryX=0.045;entryY=0.372;entryPerimeter=0;endArrow=none;endFill=0;jettySize=auto;orthogonalLoop=1;strokeColor=#d79b00;fillColor=#ffe6cc;" parent="1" source="5fdbbbe72816c942-345" edge="1">
          <mxGeometry relative="1" as="geometry">
            <mxPoint x="2297" y="931.5714285714289" as="targetPoint" />
          </mxGeometry>
        </mxCell>
        <mxCell id="5fdbbbe72816c942-394" style="edgeStyle=orthogonalEdgeStyle;curved=1;html=1;exitX=0;exitY=0.5;exitPerimeter=0;entryX=0.171;entryY=0.927;entryPerimeter=0;endArrow=none;endFill=0;jettySize=auto;orthogonalLoop=1;strokeColor=#d79b00;fillColor=#ffe6cc;" parent="1" source="5fdbbbe72816c942-344" edge="1">
          <mxGeometry relative="1" as="geometry">
            <mxPoint x="2428.4285714285716" y="777.2857142857142" as="targetPoint" />
            <Array as="points">
              <mxPoint x="2403" y="806" />
              <mxPoint x="2403" y="777" />
            </Array>
          </mxGeometry>
        </mxCell>
        <mxCell id="5fdbbbe72816c942-395" style="edgeStyle=orthogonalEdgeStyle;curved=1;html=1;exitX=0;exitY=0.5;exitPerimeter=0;entryX=1.145;entryY=0.118;entryPerimeter=0;endArrow=none;endFill=0;jettySize=auto;orthogonalLoop=1;strokeColor=#FF0000;" parent="1" source="5fdbbbe72816c942-346" edge="1">
          <mxGeometry relative="1" as="geometry">
            <mxPoint x="2285.5714285714284" y="643" as="targetPoint" />
          </mxGeometry>
        </mxCell>
        <mxCell id="5fdbbbe72816c942-357" style="edgeStyle=orthogonalEdgeStyle;curved=1;html=1;exitX=0;exitY=0.5;exitPerimeter=0;endArrow=none;endFill=0;jettySize=auto;orthogonalLoop=1;strokeColor=#FF0000;" parent="1" source="5fdbbbe72816c942-843" edge="1">
          <mxGeometry relative="1" as="geometry">
            <mxPoint x="790" y="470" as="targetPoint" />
            <mxPoint x="1065.571428571429" y="340.14285714285734" as="sourcePoint" />
          </mxGeometry>
        </mxCell>
        <mxCell id="5fdbbbe72816c942-396" value="" style="verticalLabelPosition=bottom;shadow=0;dashed=0;align=center;fillColor=#dae8fc;html=1;verticalAlign=top;strokeWidth=1;shape=mxgraph.electrical.miscellaneous.light_bulb;strokeColor=#6c8ebf;" parent="1" vertex="1">
          <mxGeometry x="497" y="688" width="60" height="50" as="geometry" />
        </mxCell>
        <mxCell id="5fdbbbe72816c942-397" value="" style="verticalLabelPosition=bottom;shadow=0;dashed=0;align=center;fillColor=#dae8fc;html=1;verticalAlign=top;strokeWidth=1;shape=mxgraph.electrical.miscellaneous.light_bulb;strokeColor=#6c8ebf;" parent="1" vertex="1">
          <mxGeometry x="715" y="540" width="60" height="50" as="geometry" />
        </mxCell>
        <mxCell id="5fdbbbe72816c942-398" value="" style="verticalLabelPosition=bottom;shadow=0;dashed=0;align=center;fillColor=#dae8fc;html=1;verticalAlign=top;strokeWidth=1;shape=mxgraph.electrical.miscellaneous.light_bulb;strokeColor=#6c8ebf;" parent="1" vertex="1">
          <mxGeometry x="716" y="1121" width="60" height="50" as="geometry" />
        </mxCell>
        <mxCell id="5fdbbbe72816c942-399" value="" style="verticalLabelPosition=bottom;shadow=0;dashed=0;align=center;fillColor=#dae8fc;html=1;verticalAlign=top;strokeWidth=1;shape=mxgraph.electrical.miscellaneous.light_bulb;strokeColor=#6c8ebf;" parent="1" vertex="1">
          <mxGeometry x="715" y="851" width="60" height="50" as="geometry" />
        </mxCell>
        <mxCell id="5fdbbbe72816c942-400" value="" style="verticalLabelPosition=bottom;shadow=0;dashed=0;align=center;fillColor=#dae8fc;html=1;verticalAlign=top;strokeWidth=1;shape=mxgraph.electrical.miscellaneous.light_bulb;strokeColor=#6c8ebf;" parent="1" vertex="1">
          <mxGeometry x="1249" y="541" width="60" height="50" as="geometry" />
        </mxCell>
        <mxCell id="5fdbbbe72816c942-402" value="" style="verticalLabelPosition=bottom;shadow=0;dashed=0;align=center;fillColor=#dae8fc;html=1;verticalAlign=top;strokeWidth=1;shape=mxgraph.electrical.miscellaneous.light_bulb;strokeColor=#6c8ebf;" parent="1" vertex="1">
          <mxGeometry x="1251" y="1121" width="60" height="50" as="geometry" />
        </mxCell>
        <mxCell id="5fdbbbe72816c942-403" value="" style="verticalLabelPosition=bottom;shadow=0;dashed=0;align=center;fillColor=#dae8fc;html=1;verticalAlign=top;strokeWidth=1;shape=mxgraph.electrical.miscellaneous.light_bulb;strokeColor=#6c8ebf;" parent="1" vertex="1">
          <mxGeometry x="1519" y="1116" width="60" height="50" as="geometry" />
        </mxCell>
        <mxCell id="5fdbbbe72816c942-404" value="" style="verticalLabelPosition=bottom;shadow=0;dashed=0;align=center;fillColor=#dae8fc;html=1;verticalAlign=top;strokeWidth=1;shape=mxgraph.electrical.miscellaneous.light_bulb;strokeColor=#6c8ebf;" parent="1" vertex="1">
          <mxGeometry x="1761" y="538" width="60" height="50" as="geometry" />
        </mxCell>
        <mxCell id="5fdbbbe72816c942-405" value="" style="verticalLabelPosition=bottom;shadow=0;dashed=0;align=center;fillColor=#dae8fc;html=1;verticalAlign=top;strokeWidth=1;shape=mxgraph.electrical.miscellaneous.light_bulb;strokeColor=#6c8ebf;" parent="1" vertex="1">
          <mxGeometry x="1761" y="1116" width="60" height="50" as="geometry" />
        </mxCell>
        <mxCell id="5fdbbbe72816c942-406" value="" style="verticalLabelPosition=bottom;shadow=0;dashed=0;align=center;fillColor=#dae8fc;html=1;verticalAlign=top;strokeWidth=1;shape=mxgraph.electrical.miscellaneous.light_bulb;strokeColor=#6c8ebf;" parent="1" vertex="1">
          <mxGeometry x="2103" y="1121" width="60" height="50" as="geometry" />
        </mxCell>
        <mxCell id="5fdbbbe72816c942-407" value="" style="verticalLabelPosition=bottom;shadow=0;dashed=0;align=center;fillColor=#dae8fc;html=1;verticalAlign=top;strokeWidth=1;shape=mxgraph.electrical.miscellaneous.light_bulb;strokeColor=#6c8ebf;" parent="1" vertex="1">
          <mxGeometry x="2103" y="540" width="60" height="50" as="geometry" />
        </mxCell>
        <mxCell id="5fdbbbe72816c942-408" value="" style="verticalLabelPosition=bottom;shadow=0;dashed=0;align=center;fillColor=#dae8fc;html=1;verticalAlign=top;strokeWidth=1;shape=mxgraph.electrical.miscellaneous.light_bulb;strokeColor=#6c8ebf;" parent="1" vertex="1">
          <mxGeometry x="2483" y="541" width="60" height="50" as="geometry" />
        </mxCell>
        <mxCell id="5fdbbbe72816c942-409" value="" style="verticalLabelPosition=bottom;shadow=0;dashed=0;align=center;fillColor=#dae8fc;html=1;verticalAlign=top;strokeWidth=1;shape=mxgraph.electrical.miscellaneous.light_bulb;strokeColor=#6c8ebf;" parent="1" vertex="1">
          <mxGeometry x="2484" y="1116" width="60" height="50" as="geometry" />
        </mxCell>
        <mxCell id="5fdbbbe72816c942-411" style="edgeStyle=orthogonalEdgeStyle;curved=1;html=1;exitX=0;exitY=0.5;exitPerimeter=0;endArrow=none;endFill=0;jettySize=auto;orthogonalLoop=1;strokeColor=#3333FF;" parent="1" source="5fdbbbe72816c942-396" edge="1">
          <mxGeometry relative="1" as="geometry">
            <mxPoint x="590" y="815" as="targetPoint" />
          </mxGeometry>
        </mxCell>
        <mxCell id="5fdbbbe72816c942-412" style="edgeStyle=orthogonalEdgeStyle;curved=1;html=1;exitX=0;exitY=0.5;exitPerimeter=0;endArrow=none;endFill=0;jettySize=auto;orthogonalLoop=1;strokeColor=#3333FF;" parent="1" source="5fdbbbe72816c942-397" edge="1">
          <mxGeometry relative="1" as="geometry">
            <mxPoint x="590" y="810" as="targetPoint" />
          </mxGeometry>
        </mxCell>
        <mxCell id="5fdbbbe72816c942-413" style="edgeStyle=orthogonalEdgeStyle;curved=1;html=1;exitX=0;exitY=0.5;exitPerimeter=0;endArrow=none;endFill=0;jettySize=auto;orthogonalLoop=1;strokeColor=#3333FF;" parent="1" source="5fdbbbe72816c942-399" edge="1">
          <mxGeometry relative="1" as="geometry">
            <mxPoint x="590" y="810" as="targetPoint" />
          </mxGeometry>
        </mxCell>
        <mxCell id="5fdbbbe72816c942-414" style="edgeStyle=orthogonalEdgeStyle;curved=1;html=1;exitX=0;exitY=0.5;exitPerimeter=0;endArrow=none;endFill=0;jettySize=auto;orthogonalLoop=1;strokeColor=#3333FF;" parent="1" source="5fdbbbe72816c942-398" edge="1">
          <mxGeometry relative="1" as="geometry">
            <mxPoint x="590" y="810" as="targetPoint" />
          </mxGeometry>
        </mxCell>
        <mxCell id="5fdbbbe72816c942-418" style="edgeStyle=orthogonalEdgeStyle;curved=1;html=1;exitX=1;exitY=0.5;exitPerimeter=0;endArrow=none;endFill=0;jettySize=auto;orthogonalLoop=1;strokeColor=#3333FF;" parent="1" source="5fdbbbe72816c942-403" edge="1">
          <mxGeometry relative="1" as="geometry">
            <mxPoint x="1650" y="1190" as="targetPoint" />
          </mxGeometry>
        </mxCell>
        <mxCell id="5fdbbbe72816c942-419" style="edgeStyle=orthogonalEdgeStyle;curved=1;html=1;exitX=0;exitY=0.5;exitPerimeter=0;endArrow=none;endFill=0;jettySize=auto;orthogonalLoop=1;strokeColor=#3333FF;" parent="1" source="5fdbbbe72816c942-405" edge="1">
          <mxGeometry relative="1" as="geometry">
            <mxPoint x="1650" y="1200" as="targetPoint" />
          </mxGeometry>
        </mxCell>
        <mxCell id="5fdbbbe72816c942-420" style="edgeStyle=orthogonalEdgeStyle;curved=1;html=1;exitX=0;exitY=0.5;exitPerimeter=0;endArrow=none;endFill=0;jettySize=auto;orthogonalLoop=1;strokeColor=#3333FF;entryX=0.192;entryY=1.318;entryPerimeter=0;" parent="1" source="5fdbbbe72816c942-404" edge="1">
          <mxGeometry relative="1" as="geometry">
            <mxPoint x="1679.8571428571431" y="497.28571428571445" as="targetPoint" />
          </mxGeometry>
        </mxCell>
        <mxCell id="5fdbbbe72816c942-421" style="edgeStyle=orthogonalEdgeStyle;curved=1;html=1;exitX=0;exitY=0.5;exitPerimeter=0;endArrow=none;endFill=0;jettySize=auto;orthogonalLoop=1;strokeColor=#3333FF;" parent="1" source="5fdbbbe72816c942-407" edge="1">
          <mxGeometry relative="1" as="geometry">
            <mxPoint x="1680" y="490" as="targetPoint" />
          </mxGeometry>
        </mxCell>
        <mxCell id="5fdbbbe72816c942-422" style="edgeStyle=orthogonalEdgeStyle;curved=1;html=1;exitX=0;exitY=0.5;exitPerimeter=0;endArrow=none;endFill=0;jettySize=auto;orthogonalLoop=1;strokeColor=#3333FF;" parent="1" source="5fdbbbe72816c942-408" edge="1">
          <mxGeometry relative="1" as="geometry">
            <mxPoint x="1680" y="490" as="targetPoint" />
          </mxGeometry>
        </mxCell>
        <mxCell id="5fdbbbe72816c942-423" style="edgeStyle=orthogonalEdgeStyle;curved=1;html=1;exitX=0;exitY=0.5;exitPerimeter=0;endArrow=none;endFill=0;jettySize=auto;orthogonalLoop=1;strokeColor=#3333FF;" parent="1" source="5fdbbbe72816c942-406" edge="1">
          <mxGeometry relative="1" as="geometry">
            <mxPoint x="1650" y="1200" as="targetPoint" />
          </mxGeometry>
        </mxCell>
        <mxCell id="5fdbbbe72816c942-424" style="edgeStyle=orthogonalEdgeStyle;curved=1;html=1;exitX=0;exitY=0.5;exitPerimeter=0;entryX=-0.143;entryY=0.057;entryPerimeter=0;endArrow=none;endFill=0;jettySize=auto;orthogonalLoop=1;strokeColor=#3333FF;" parent="1" source="5fdbbbe72816c942-400" edge="1">
          <mxGeometry relative="1" as="geometry">
            <mxPoint x="591.2857142857147" y="811.5714285714289" as="targetPoint" />
          </mxGeometry>
        </mxCell>
        <mxCell id="5fdbbbe72816c942-425" style="edgeStyle=orthogonalEdgeStyle;curved=1;html=1;exitX=0;exitY=0.5;exitPerimeter=0;endArrow=none;endFill=0;jettySize=auto;orthogonalLoop=1;strokeColor=#3333FF;" parent="1" source="5fdbbbe72816c942-402" edge="1">
          <mxGeometry relative="1" as="geometry">
            <mxPoint x="590" y="810" as="targetPoint" />
          </mxGeometry>
        </mxCell>
        <mxCell id="5fdbbbe72816c942-426" style="edgeStyle=orthogonalEdgeStyle;curved=1;html=1;exitX=0;exitY=0.5;exitPerimeter=0;endArrow=none;endFill=0;jettySize=auto;orthogonalLoop=1;strokeColor=#3333FF;" parent="1" source="5fdbbbe72816c942-409" edge="1">
          <mxGeometry relative="1" as="geometry">
            <mxPoint x="1650" y="1200" as="targetPoint" />
          </mxGeometry>
        </mxCell>
        <mxCell id="5fdbbbe72816c942-843" value="" style="verticalLabelPosition=bottom;shadow=0;dashed=0;align=center;fillColor=#f8cecc;html=1;verticalAlign=top;strokeWidth=1;shape=mxgraph.electrical.miscellaneous.light_bulb;strokeColor=#b85450;" parent="1" vertex="1">
          <mxGeometry x="1035.571428571429" y="315.14285714285734" width="60" height="50" as="geometry" />
        </mxCell>
        <mxCell id="5fdbbbe72816c942-1266" value="" style="verticalLabelPosition=bottom;shadow=0;dashed=0;align=center;fillColor=#f8cecc;html=1;verticalAlign=top;strokeWidth=1;shape=mxgraph.electrical.miscellaneous.light_bulb;strokeColor=#b85450;" parent="1" vertex="1">
          <mxGeometry x="2890" y="863" width="60" height="50" as="geometry" />
        </mxCell>
        <mxCell id="5fdbbbe72816c942-1267" value="" style="verticalLabelPosition=bottom;shadow=0;dashed=0;align=center;fillColor=#d5e8d4;html=1;verticalAlign=top;strokeWidth=1;shape=mxgraph.electrical.miscellaneous.light_bulb;strokeColor=#82b366;" parent="1" vertex="1">
          <mxGeometry x="2890" y="939" width="60" height="50" as="geometry" />
        </mxCell>
        <mxCell id="5fdbbbe72816c942-1268" value="" style="verticalLabelPosition=bottom;shadow=0;dashed=0;align=center;fillColor=#dae8fc;html=1;verticalAlign=top;strokeWidth=1;shape=mxgraph.electrical.miscellaneous.light_bulb;strokeColor=#6c8ebf;" parent="1" vertex="1">
          <mxGeometry x="2890" y="1020" width="60" height="50" as="geometry" />
        </mxCell>
        <mxCell id="5fdbbbe72816c942-1269" value="" style="verticalLabelPosition=bottom;shadow=0;dashed=0;align=center;fillColor=#ffe6cc;html=1;verticalAlign=top;strokeWidth=1;shape=mxgraph.electrical.miscellaneous.light_bulb;strokeColor=#d79b00;" parent="1" vertex="1">
          <mxGeometry x="2890" y="1176" width="60" height="50" as="geometry" />
        </mxCell>
        <mxCell id="5fdbbbe72816c942-1270" value="&lt;span style=&quot;font-size: 16px&quot;&gt;Room lights, warm white LED&lt;/span&gt;" style="text;html=1;resizable=0;points=[];autosize=1;align=left;verticalAlign=top;spacingTop=-4;" parent="1" vertex="1">
          <mxGeometry x="2950" y="878" width="230" height="20" as="geometry" />
        </mxCell>
        <mxCell id="5fdbbbe72816c942-1273" value="&lt;span style=&quot;font-size: 16px&quot;&gt;Sensor lights, cool white LED&lt;/span&gt;" style="text;html=1;resizable=0;points=[];autosize=1;align=left;verticalAlign=top;spacingTop=-4;" parent="1" vertex="1">
          <mxGeometry x="2950" y="950" width="220" height="20" as="geometry" />
        </mxCell>
        <mxCell id="5fdbbbe72816c942-1274" value="&lt;span style=&quot;font-size: 16px&quot;&gt;Space lights, cool white LED&lt;/span&gt;" style="text;html=1;resizable=0;points=[];autosize=1;align=left;verticalAlign=top;spacingTop=-4;" parent="1" vertex="1">
          <mxGeometry x="2950" y="1037" width="220" height="20" as="geometry" />
        </mxCell>
        <mxCell id="5fdbbbe72816c942-1275" value="&lt;span style=&quot;font-size: 16px&quot;&gt;Kitchen task lighting, bright LED&lt;/span&gt;" style="text;html=1;resizable=0;points=[];autosize=1;align=left;verticalAlign=top;spacingTop=-4;" parent="1" vertex="1">
          <mxGeometry x="2950" y="1193" width="240" height="20" as="geometry" />
        </mxCell>
        <mxCell id="5fdbbbe72816c942-1276" value="" style="rounded=1;whiteSpace=wrap;html=1;fillColor=none;" parent="1" vertex="1">
          <mxGeometry x="2870" y="848" width="320" height="292" as="geometry" />
        </mxCell>
        <mxCell id="5fdbbbe72816c942-1277" value="&lt;span style=&quot;font-size: 14px&quot;&gt;Color-coded circuits&amp;nbsp;on main switchboard&lt;/span&gt;" style="text;html=1;resizable=0;points=[];autosize=1;align=left;verticalAlign=top;spacingTop=-4;fontStyle=2" parent="1" vertex="1">
          <mxGeometry x="2900" y="1100" width="270" height="20" as="geometry" />
        </mxCell>
        <UserObject label="Lights" link="data:action/json,{&quot;actions&quot;:[{&quot;toggle&quot;: {&quot;cells&quot;: [&quot;1&quot;]}}]}" id="5fdbbbe72816c942-1772">
          <mxCell style="rounded=1;whiteSpace=wrap;html=1;strokeWidth=3;fillColor=#e1d5e7;fontColor=#000000;strokeColor=#9673a6;fontSize=28;verticalAlign=middle;" parent="1" vertex="1">
            <mxGeometry x="731" y="1485" width="227" height="60" as="geometry" />
          </mxCell>
        </UserObject>
        <mxCell id="5fdbbbe72816c942-1606" value="Fire safety" style="locked=1;" parent="0" />
        <mxCell id="5fdbbbe72816c942-1717" value="" style="shape=image;html=1;verticalAlign=top;verticalLabelPosition=bottom;labelBackgroundColor=#ffffff;imageAspect=0;aspect=fixed;image=https://cdn0.iconfinder.com/data/icons/fire/106/stairs-128.png;strokeWidth=3;fillColor=none;fontColor=#FF0000;" parent="5fdbbbe72816c942-1606" vertex="1">
          <mxGeometry x="2857" y="1460" width="128" height="128" as="geometry" />
        </mxCell>
        <mxCell id="5fdbbbe72816c942-1718" value="" style="shape=image;html=1;verticalAlign=top;verticalLabelPosition=bottom;labelBackgroundColor=#ffffff;imageAspect=0;aspect=fixed;image=https://cdn0.iconfinder.com/data/icons/fire/106/stairs-128.png;strokeWidth=3;fillColor=none;fontColor=#FF0000;" parent="5fdbbbe72816c942-1606" vertex="1">
          <mxGeometry x="265" y="644" width="128" height="128" as="geometry" />
        </mxCell>
        <mxCell id="5fdbbbe72816c942-1719" value="" style="shape=image;html=1;verticalAlign=top;verticalLabelPosition=bottom;labelBackgroundColor=#ffffff;imageAspect=0;aspect=fixed;image=https://cdn0.iconfinder.com/data/icons/fire/106/lever-128.png;strokeWidth=3;fillColor=none;fontColor=#FF0000;" parent="5fdbbbe72816c942-1606" vertex="1">
          <mxGeometry x="2729" y="1460" width="128" height="128" as="geometry" />
        </mxCell>
        <mxCell id="5fdbbbe72816c942-1720" value="" style="shape=image;html=1;verticalAlign=top;verticalLabelPosition=bottom;labelBackgroundColor=#ffffff;imageAspect=0;aspect=fixed;image=https://cdn0.iconfinder.com/data/icons/fire/106/alarm-128.png;strokeWidth=3;fillColor=none;fontColor=#FF0000;" parent="5fdbbbe72816c942-1606" vertex="1">
          <mxGeometry x="733" y="502.5" width="128" height="128" as="geometry" />
        </mxCell>
        <mxCell id="5fdbbbe72816c942-1721" value="" style="shape=image;html=1;verticalAlign=top;verticalLabelPosition=bottom;labelBackgroundColor=#ffffff;imageAspect=0;aspect=fixed;image=https://cdn0.iconfinder.com/data/icons/fire/106/extinguisher-128.png;strokeWidth=3;fillColor=none;fontColor=#FF0000;" parent="5fdbbbe72816c942-1606" vertex="1">
          <mxGeometry x="730" y="630.5" width="128" height="128" as="geometry" />
        </mxCell>
        <mxCell id="5fdbbbe72816c942-1722" value="" style="shape=image;html=1;verticalAlign=top;verticalLabelPosition=bottom;labelBackgroundColor=#ffffff;imageAspect=0;aspect=fixed;image=https://cdn0.iconfinder.com/data/icons/fire/106/extinguisher-128.png;strokeWidth=3;fillColor=none;fontColor=#FF0000;" parent="5fdbbbe72816c942-1606" vertex="1">
          <mxGeometry x="2284" y="640" width="128" height="128" as="geometry" />
        </mxCell>
        <mxCell id="5fdbbbe72816c942-1723" value="" style="shape=image;html=1;verticalAlign=top;verticalLabelPosition=bottom;labelBackgroundColor=#ffffff;imageAspect=0;aspect=fixed;image=https://cdn0.iconfinder.com/data/icons/fire/106/extinguisher-128.png;strokeWidth=3;fillColor=none;fontColor=#FF0000;" parent="5fdbbbe72816c942-1606" vertex="1">
          <mxGeometry x="1749" y="628" width="128" height="128" as="geometry" />
        </mxCell>
        <mxCell id="5fdbbbe72816c942-1724" value="" style="shape=image;html=1;verticalAlign=top;verticalLabelPosition=bottom;labelBackgroundColor=#ffffff;imageAspect=0;aspect=fixed;image=https://cdn0.iconfinder.com/data/icons/fire/106/stairs-128.png;strokeWidth=3;fillColor=none;fontColor=#FF0000;" parent="5fdbbbe72816c942-1606" vertex="1">
          <mxGeometry x="2838" y="112.5" width="128" height="128" as="geometry" />
        </mxCell>
        <mxCell id="5fdbbbe72816c942-1725" value="" style="shape=image;html=1;verticalAlign=top;verticalLabelPosition=bottom;labelBackgroundColor=#ffffff;imageAspect=0;aspect=fixed;image=https://cdn0.iconfinder.com/data/icons/fire/106/lever-128.png;strokeWidth=3;fillColor=none;fontColor=#FF0000;" parent="5fdbbbe72816c942-1606" vertex="1">
          <mxGeometry x="2710" y="112.5" width="128" height="128" as="geometry" />
        </mxCell>
        <mxCell id="5fdbbbe72816c942-1726" value="" style="shape=image;html=1;verticalAlign=top;verticalLabelPosition=bottom;labelBackgroundColor=#ffffff;imageAspect=0;aspect=fixed;image=https://cdn0.iconfinder.com/data/icons/fire/106/alarm-128.png;strokeWidth=3;fillColor=none;fontColor=#FF0000;" parent="5fdbbbe72816c942-1606" vertex="1">
          <mxGeometry x="2285" y="503" width="128" height="128" as="geometry" />
        </mxCell>
        <mxCell id="5fdbbbe72816c942-1728" value="" style="shape=image;html=1;verticalAlign=top;verticalLabelPosition=bottom;labelBackgroundColor=#ffffff;imageAspect=0;aspect=fixed;image=https://cdn0.iconfinder.com/data/icons/fire/85/telephone-128.png;strokeWidth=3;fillColor=none;fontColor=#FF0000;" parent="5fdbbbe72816c942-1606" vertex="1">
          <mxGeometry x="496" y="686" width="128" height="128" as="geometry" />
        </mxCell>
        <UserObject label="Fire safety" link="data:action/json,{&quot;actions&quot;:[{&quot;toggle&quot;: {&quot;cells&quot;: [&quot;5fdbbbe72816c942-1606&quot;]}}]}" id="5fdbbbe72816c942-1776">
          <mxCell style="rounded=1;whiteSpace=wrap;html=1;strokeWidth=3;fillColor=#e1d5e7;fontColor=#000000;strokeColor=#9673a6;fontSize=28;verticalAlign=middle;" parent="5fdbbbe72816c942-1606" vertex="1">
            <mxGeometry x="1053" y="1485" width="227" height="60" as="geometry" />
          </mxCell>
        </UserObject>
      </root>
    </mxGraphModel>
  </diagram>
</mxfile>
